<?xml version="1.0" encoding="utf-8" standalone="no"?>
<!DOCTYPE svg PUBLIC "-//W3C//DTD SVG 1.1//EN"
  "http://www.w3.org/Graphics/SVG/1.1/DTD/svg11.dtd">
<svg xmlns:xlink="http://www.w3.org/1999/xlink" width="1152pt" height="576pt" viewBox="0 0 1152 576" xmlns="http://www.w3.org/2000/svg" version="1.1">
 <metadata>
  <rdf:RDF xmlns:dc="http://purl.org/dc/elements/1.1/" xmlns:cc="http://creativecommons.org/ns#" xmlns:rdf="http://www.w3.org/1999/02/22-rdf-syntax-ns#">
   <cc:Work>
    <dc:type rdf:resource="http://purl.org/dc/dcmitype/StillImage"/>
    <dc:date>2024-03-29T12:02:46.997328</dc:date>
    <dc:format>image/svg+xml</dc:format>
    <dc:creator>
     <cc:Agent>
      <dc:title>Matplotlib v3.8.2, https://matplotlib.org/</dc:title>
     </cc:Agent>
    </dc:creator>
   </cc:Work>
  </rdf:RDF>
 </metadata>
 <defs>
  <style type="text/css">*{stroke-linejoin: round; stroke-linecap: butt}</style>
 </defs>
 <g id="figure_1">
  <g id="patch_1">
   <path d="M 0 576 
L 1152 576 
L 1152 0 
L 0 0 
z
" style="fill: #ffffff"/>
  </g>
  <g id="axes_1">
   <g id="line2d_1">
    <path d="M 590.4 290.79772 
L 587.772381 258.248813 
L 579.957576 226.542905 
L 567.157986 196.501164 
L 549.705113 168.901653 
L 528.050978 144.459187 
L 502.75641 123.806812 
L 474.476527 107.479414 
L 443.943762 95.899863 
L 411.948897 89.368065 
L 379.320584 88.053189 
L 346.903877 91.98929 
L 315.538354 101.074424 
L 286.036364 115.073293 
L 259.161993 133.623332 
L 235.611274 156.244104 
L 215.994157 182.349745 
L 200.818717 211.264132 
L 190.477988 242.238396 
L 185.23979 274.470322 
L 185.23979 307.125118 
L 190.477988 339.357044 
L 200.818717 370.331309 
L 215.994157 399.245695 
L 235.611274 425.351336 
L 259.161993 447.972109 
L 286.036364 466.522148 
L 315.538354 480.521016 
L 346.903877 489.606151 
L 379.320584 493.542251 
L 411.948897 492.227375 
L 443.943762 485.695577 
L 474.476527 474.116027 
L 502.75641 457.788628 
L 528.050978 437.136253 
L 549.705113 412.693787 
L 567.157986 385.094277 
L 579.957576 355.052535 
L 587.772381 323.346627 
L 590.4 290.79772 
" clip-path="url(#p858e3802ea)" style="fill: none; stroke: #000000; stroke-width: 1.5; stroke-linecap: square"/>
   </g>
   <g id="line2d_2">
    <path d="M 476.770909 485.590447 
L 476.665804 484.288491 
L 476.353212 483.020255 
L 475.841229 481.818585 
L 475.143114 480.714605 
L 474.276948 479.736906 
L 473.265166 478.910811 
L 472.13397 478.257715 
L 470.91266 477.794533 
L 469.632865 477.533261 
L 468.327732 477.480666 
L 467.031064 477.63811 
L 465.776443 478.001516 
L 464.596364 478.56147 
L 463.521389 479.303472 
L 462.57936 480.208303 
L 461.794675 481.252528 
L 461.187658 482.409104 
L 460.774029 483.648074 
L 460.564501 484.937352 
L 460.564501 486.243543 
L 460.774029 487.53282 
L 461.187658 488.771791 
L 461.794675 489.928366 
L 462.57936 490.972592 
L 463.521389 491.877423 
L 464.596364 492.619425 
L 465.776443 493.179379 
L 467.031064 493.542785 
L 468.327732 493.700229 
L 469.632865 493.647634 
L 470.91266 493.386362 
L 472.13397 492.92318 
L 473.265166 492.270084 
L 474.276948 491.443989 
L 475.143114 490.46629 
L 475.841229 489.36231 
L 476.353212 488.16064 
L 476.665804 486.892404 
L 476.770909 485.590447 
" clip-path="url(#p858e3802ea)" style="fill: none; stroke: #000000; stroke-width: 1.5; stroke-linecap: square"/>
   </g>
   <g id="line2d_3">
    <path d="M 501.627273 481.024993 
L 501.463047 478.990686 
L 500.974621 477.009067 
L 500.174647 475.131458 
L 499.083842 473.406489 
L 497.730459 471.878835 
L 496.149548 470.588061 
L 494.382056 469.567599 
L 492.473758 468.843877 
L 490.474079 468.435639 
L 488.434809 468.35346 
L 486.408765 468.599466 
L 484.44842 469.167287 
L 482.604545 470.042216 
L 480.924897 471.201594 
L 479.452977 472.615392 
L 478.226908 474.246994 
L 477.278443 476.054144 
L 476.632147 477.990035 
L 476.30476 480.004531 
L 476.30476 482.045455 
L 476.632147 484.059951 
L 477.278443 485.995842 
L 478.226908 487.802991 
L 479.452977 489.434594 
L 480.924897 490.848392 
L 482.604545 492.00777 
L 484.44842 492.882699 
L 486.408765 493.45052 
L 488.434809 493.696526 
L 490.474079 493.614346 
L 492.473758 493.206109 
L 494.382056 492.482387 
L 496.149548 491.461925 
L 497.730459 490.171151 
L 499.083842 488.643497 
L 500.174647 486.918528 
L 500.974621 485.040919 
L 501.463047 483.0593 
L 501.627273 481.024993 
" clip-path="url(#p858e3802ea)" style="fill: none; stroke: #000000; stroke-width: 1.5; stroke-linecap: square"/>
   </g>
   <g id="line2d_4">
    <path d="M 507.579963 489.565809 
L 507.526338 488.901546 
L 507.366852 488.254486 
L 507.105636 487.64139 
L 506.749455 487.078134 
L 506.307534 486.579309 
L 505.791318 486.157832 
L 505.214178 485.824619 
L 504.59106 485.588302 
L 503.938104 485.455 
L 503.27222 485.428166 
L 502.610654 485.508494 
L 501.970542 485.693905 
L 501.36846 485.979596 
L 500.820004 486.358169 
L 500.339377 486.819817 
L 499.939027 487.352585 
L 499.629324 487.942675 
L 499.418289 488.574803 
L 499.311387 489.232597 
L 499.311387 489.899021 
L 499.418289 490.556816 
L 499.629324 491.188944 
L 499.939027 491.779033 
L 500.339377 492.311801 
L 500.820004 492.77345 
L 501.36846 493.152022 
L 501.970542 493.437713 
L 502.610654 493.623124 
L 503.27222 493.703453 
L 503.938104 493.676619 
L 504.59106 493.543317 
L 505.214178 493.306999 
L 505.791318 492.973787 
L 506.307534 492.55231 
L 506.749455 492.053484 
L 507.105636 491.490229 
L 507.366852 490.877132 
L 507.526338 490.230073 
L 507.579963 489.565809 
" clip-path="url(#p858e3802ea)" style="fill: none; stroke: #000000; stroke-width: 1.5; stroke-linecap: square"/>
   </g>
   <g id="line2d_5">
    <path d="M 545.309091 471.161357 
L 545.017133 467.544811 
L 544.148822 464.021933 
L 542.726645 460.683961 
L 540.787437 457.617349 
L 538.381422 454.90152 
L 535.570914 452.606811 
L 532.428705 450.792656 
L 529.036176 449.506039 
L 525.481191 448.780284 
L 521.855822 448.634186 
L 518.253966 449.071531 
L 514.768908 450.08099 
L 511.490909 451.63642 
L 508.504868 453.697536 
L 505.888121 456.210955 
L 503.708442 459.111582 
L 502.022282 462.324291 
L 500.873312 465.765876 
L 500.29129 469.347201 
L 500.29129 472.975512 
L 500.873312 476.556837 
L 502.022282 479.998422 
L 503.708442 483.211132 
L 505.888121 486.111758 
L 508.504868 488.625177 
L 511.490909 490.686293 
L 514.768908 492.241723 
L 518.253966 493.251182 
L 521.855822 493.688527 
L 525.481191 493.542429 
L 529.036176 492.816674 
L 532.428705 491.530057 
L 535.570914 489.715902 
L 538.381422 487.421194 
L 540.787437 484.705364 
L 542.726645 481.638752 
L 544.148822 478.30078 
L 545.017133 474.777902 
L 545.309091 471.161357 
" clip-path="url(#p858e3802ea)" style="fill: none; stroke: #000000; stroke-width: 1.5; stroke-linecap: square"/>
   </g>
   <g id="line2d_6">
    <path d="M 542.843182 490.536357 
L 542.802125 490.02778 
L 542.680019 489.532375 
L 542.480025 489.062973 
L 542.207324 488.63173 
L 541.868978 488.249817 
L 541.473751 487.927124 
L 541.031878 487.672008 
L 540.554803 487.491078 
L 540.054883 487.389018 
L 539.545066 487.368473 
L 539.038555 487.429975 
L 538.548469 487.57193 
L 538.0875 487.790662 
L 537.667588 488.080507 
L 537.299608 488.433956 
L 536.993091 488.841857 
L 536.755974 489.293644 
L 536.5944 489.777617 
L 536.512554 490.281241 
L 536.512554 490.791472 
L 536.5944 491.295096 
L 536.755974 491.779069 
L 536.993091 492.230856 
L 537.299608 492.638757 
L 537.667588 492.992206 
L 538.0875 493.282051 
L 538.548469 493.500783 
L 539.038555 493.642738 
L 539.545066 493.70424 
L 540.054883 493.683695 
L 540.554803 493.581636 
L 541.031878 493.400705 
L 541.473751 493.145589 
L 541.868978 492.822896 
L 542.207324 492.440983 
L 542.480025 492.00974 
L 542.680019 491.540338 
L 542.802125 491.044933 
L 542.843182 490.536357 
" clip-path="url(#p858e3802ea)" style="fill: none; stroke: #000000; stroke-width: 1.5; stroke-linecap: square"/>
   </g>
   <g id="line2d_7">
    <path d="M 557.934545 485.590447 
L 557.829441 484.288491 
L 557.516849 483.020255 
L 557.004865 481.818585 
L 556.30675 480.714605 
L 555.440585 479.736906 
L 554.428802 478.910811 
L 553.297607 478.257715 
L 552.076296 477.794533 
L 550.796501 477.533261 
L 549.491369 477.480666 
L 548.194701 477.63811 
L 546.94008 478.001516 
L 545.76 478.56147 
L 544.685025 479.303472 
L 543.742996 480.208303 
L 542.958312 481.252528 
L 542.351294 482.409104 
L 541.937665 483.648074 
L 541.728137 484.937352 
L 541.728137 486.243543 
L 541.937665 487.53282 
L 542.351294 488.771791 
L 542.958312 489.928366 
L 543.742996 490.972592 
L 544.685025 491.877423 
L 545.76 492.619425 
L 546.94008 493.179379 
L 548.194701 493.542785 
L 549.491369 493.700229 
L 550.796501 493.647634 
L 552.076296 493.386362 
L 553.297607 492.92318 
L 554.428802 492.270084 
L 555.440585 491.443989 
L 556.30675 490.46629 
L 557.004865 489.36231 
L 557.516849 488.16064 
L 557.829441 486.892404 
L 557.934545 485.590447 
" clip-path="url(#p858e3802ea)" style="fill: none; stroke: #000000; stroke-width: 1.5; stroke-linecap: square"/>
   </g>
   <g id="line2d_8">
    <path d="M 565.553989 489.565809 
L 565.500364 488.901546 
L 565.340878 488.254486 
L 565.079662 487.64139 
L 564.723481 487.078134 
L 564.28156 486.579309 
L 563.765344 486.157832 
L 563.188204 485.824619 
L 562.565086 485.588302 
L 561.91213 485.455 
L 561.246246 485.428166 
L 560.58468 485.508494 
L 559.944568 485.693905 
L 559.342486 485.979596 
L 558.79403 486.358169 
L 558.313403 486.819817 
L 557.913053 487.352585 
L 557.60335 487.942675 
L 557.392315 488.574803 
L 557.285413 489.232597 
L 557.285413 489.899021 
L 557.392315 490.556816 
L 557.60335 491.188944 
L 557.913053 491.779033 
L 558.313403 492.311801 
L 558.79403 492.77345 
L 559.342486 493.152022 
L 559.944568 493.437713 
L 560.58468 493.623124 
L 561.246246 493.703453 
L 561.91213 493.676619 
L 562.565086 493.543317 
L 563.188204 493.306999 
L 563.765344 492.973787 
L 564.28156 492.55231 
L 564.723481 492.053484 
L 565.079662 491.490229 
L 565.340878 490.877132 
L 565.500364 490.230073 
L 565.553989 489.565809 
" clip-path="url(#p858e3802ea)" style="fill: none; stroke: #000000; stroke-width: 1.5; stroke-linecap: square"/>
   </g>
   <g id="line2d_9">
    <path d="M 641.127273 442.979538 
L 640.470368 434.842312 
L 638.516667 426.915835 
L 635.316769 419.405399 
L 630.953551 412.505522 
L 625.540017 406.394905 
L 619.216375 401.231811 
L 612.146404 397.149962 
L 604.513213 394.255074 
L 596.514497 392.622125 
L 588.357419 392.293406 
L 580.253242 393.277431 
L 572.411861 395.548714 
L 565.036364 399.048432 
L 558.317771 403.685941 
L 552.430091 409.341134 
L 547.525812 415.867545 
L 543.731952 423.096141 
L 541.14677 430.839707 
L 539.83722 438.897689 
L 539.83722 447.061388 
L 541.14677 455.119369 
L 543.731952 462.862935 
L 547.525812 470.091532 
L 552.430091 476.617942 
L 558.317771 482.273136 
L 565.036364 486.910645 
L 572.411861 490.410362 
L 580.253242 492.681646 
L 588.357419 493.665671 
L 596.514497 493.336952 
L 604.513213 491.704003 
L 612.146404 488.809115 
L 619.216375 484.727265 
L 625.540017 479.564172 
L 630.953551 473.453555 
L 635.316769 466.553677 
L 638.516667 459.043242 
L 640.470368 451.116765 
L 641.127273 442.979538 
" clip-path="url(#p858e3802ea)" style="fill: none; stroke: #000000; stroke-width: 1.5; stroke-linecap: square"/>
   </g>
   <g id="line2d_10">
    <path d="M 623.528015 489.565809 
L 623.47439 488.901546 
L 623.314904 488.254486 
L 623.053688 487.64139 
L 622.697507 487.078134 
L 622.255586 486.579309 
L 621.73937 486.157832 
L 621.16223 485.824619 
L 620.539112 485.588302 
L 619.886156 485.455 
L 619.220272 485.428166 
L 618.558706 485.508494 
L 617.918593 485.693905 
L 617.316512 485.979596 
L 616.768056 486.358169 
L 616.287429 486.819817 
L 615.887079 487.352585 
L 615.577376 487.942675 
L 615.366341 488.574803 
L 615.259439 489.232597 
L 615.259439 489.899021 
L 615.366341 490.556816 
L 615.577376 491.188944 
L 615.887079 491.779033 
L 616.287429 492.311801 
L 616.768056 492.77345 
L 617.316512 493.152022 
L 617.918593 493.437713 
L 618.558706 493.623124 
L 619.220272 493.703453 
L 619.886156 493.676619 
L 620.539112 493.543317 
L 621.16223 493.306999 
L 621.73937 492.973787 
L 622.255586 492.55231 
L 622.697507 492.053484 
L 623.053688 491.490229 
L 623.314904 490.877132 
L 623.47439 490.230073 
L 623.528015 489.565809 
" clip-path="url(#p858e3802ea)" style="fill: none; stroke: #000000; stroke-width: 1.5; stroke-linecap: square"/>
   </g>
   <g id="line2d_11">
    <path d="M 639.098182 485.590447 
L 638.993077 484.288491 
L 638.680485 483.020255 
L 638.168501 481.818585 
L 637.470386 480.714605 
L 636.604221 479.736906 
L 635.592438 478.910811 
L 634.461243 478.257715 
L 633.239932 477.794533 
L 631.960138 477.533261 
L 630.655005 477.480666 
L 629.358337 477.63811 
L 628.103716 478.001516 
L 626.923636 478.56147 
L 625.848662 479.303472 
L 624.906633 480.208303 
L 624.121948 481.252528 
L 623.51493 482.409104 
L 623.101301 483.648074 
L 622.891773 484.937352 
L 622.891773 486.243543 
L 623.101301 487.53282 
L 623.51493 488.771791 
L 624.121948 489.928366 
L 624.906633 490.972592 
L 625.848662 491.877423 
L 626.923636 492.619425 
L 628.103716 493.179379 
L 629.358337 493.542785 
L 630.655005 493.700229 
L 631.960138 493.647634 
L 633.239932 493.386362 
L 634.461243 492.92318 
L 635.592438 492.270084 
L 636.604221 491.443989 
L 637.470386 490.46629 
L 638.168501 489.36231 
L 638.680485 488.16064 
L 638.993077 486.892404 
L 639.098182 485.590447 
" clip-path="url(#p858e3802ea)" style="fill: none; stroke: #000000; stroke-width: 1.5; stroke-linecap: square"/>
   </g>
   <g id="line2d_12">
    <path d="M 644.297727 490.536357 
L 644.256671 490.02778 
L 644.134564 489.532375 
L 643.934571 489.062973 
L 643.66187 488.63173 
L 643.323524 488.249817 
L 642.928296 487.927124 
L 642.486423 487.672008 
L 642.009349 487.491078 
L 641.509429 487.389018 
L 640.999611 487.368473 
L 640.4931 487.429975 
L 640.003014 487.57193 
L 639.542045 487.790662 
L 639.122133 488.080507 
L 638.754153 488.433956 
L 638.447636 488.841857 
L 638.21052 489.293644 
L 638.048946 489.777617 
L 637.967099 490.281241 
L 637.967099 490.791472 
L 638.048946 491.295096 
L 638.21052 491.779069 
L 638.447636 492.230856 
L 638.754153 492.638757 
L 639.122133 492.992206 
L 639.542045 493.282051 
L 640.003014 493.500783 
L 640.4931 493.642738 
L 640.999611 493.70424 
L 641.509429 493.683695 
L 642.009349 493.581636 
L 642.486423 493.400705 
L 642.928296 493.145589 
L 643.323524 492.822896 
L 643.66187 492.440983 
L 643.934571 492.00974 
L 644.134564 491.540338 
L 644.256671 491.044933 
L 644.297727 490.536357 
" clip-path="url(#p858e3802ea)" style="fill: none; stroke: #000000; stroke-width: 1.5; stroke-linecap: square"/>
   </g>
   <g id="line2d_13">
    <path d="M 680.581818 471.161357 
L 680.28986 467.544811 
L 679.421549 464.021933 
L 677.999372 460.683961 
L 676.060164 457.617349 
L 673.654149 454.90152 
L 670.843642 452.606811 
L 667.701432 450.792656 
L 664.308903 449.506039 
L 660.753918 448.780284 
L 657.12855 448.634186 
L 653.526693 449.071531 
L 650.041635 450.08099 
L 646.763636 451.63642 
L 643.777595 453.697536 
L 641.160849 456.210955 
L 638.981169 459.111582 
L 637.295009 462.324291 
L 636.146039 465.765876 
L 635.564017 469.347201 
L 635.564017 472.975512 
L 636.146039 476.556837 
L 637.295009 479.998422 
L 638.981169 483.211132 
L 641.160849 486.111758 
L 643.777595 488.625177 
L 646.763636 490.686293 
L 650.041635 492.241723 
L 653.526693 493.251182 
L 657.12855 493.688527 
L 660.753918 493.542429 
L 664.308903 492.816674 
L 667.701432 491.530057 
L 670.843642 489.715902 
L 673.654149 487.421194 
L 676.060164 484.705364 
L 677.999372 481.638752 
L 679.421549 478.30078 
L 680.28986 474.777902 
L 680.581818 471.161357 
" clip-path="url(#p858e3802ea)" style="fill: none; stroke: #000000; stroke-width: 1.5; stroke-linecap: square"/>
   </g>
   <g id="line2d_14">
    <path d="M 681.502041 489.565809 
L 681.448416 488.901546 
L 681.28893 488.254486 
L 681.027714 487.64139 
L 680.671533 487.078134 
L 680.229612 486.579309 
L 679.713396 486.157832 
L 679.136256 485.824619 
L 678.513138 485.588302 
L 677.860182 485.455 
L 677.194298 485.428166 
L 676.532732 485.508494 
L 675.892619 485.693905 
L 675.290538 485.979596 
L 674.742081 486.358169 
L 674.261455 486.819817 
L 673.861105 487.352585 
L 673.551402 487.942675 
L 673.340367 488.574803 
L 673.233465 489.232597 
L 673.233465 489.899021 
L 673.340367 490.556816 
L 673.551402 491.188944 
L 673.861105 491.779033 
L 674.261455 492.311801 
L 674.742081 492.77345 
L 675.290538 493.152022 
L 675.892619 493.437713 
L 676.532732 493.623124 
L 677.194298 493.703453 
L 677.860182 493.676619 
L 678.513138 493.543317 
L 679.136256 493.306999 
L 679.713396 492.973787 
L 680.229612 492.55231 
L 680.671533 492.053484 
L 681.027714 491.490229 
L 681.28893 490.877132 
L 681.448416 490.230073 
L 681.502041 489.565809 
" clip-path="url(#p858e3802ea)" style="fill: none; stroke: #000000; stroke-width: 1.5; stroke-linecap: square"/>
   </g>
   <g id="line2d_15">
    <path d="M 704.536364 481.024993 
L 704.372137 478.990686 
L 703.883712 477.009067 
L 703.083738 475.131458 
L 701.992933 473.406489 
L 700.63955 471.878835 
L 699.058639 470.588061 
L 697.291147 469.567599 
L 695.382849 468.843877 
L 693.38317 468.435639 
L 691.3439 468.35346 
L 689.317856 468.599466 
L 687.357511 469.167287 
L 685.513636 470.042216 
L 683.833988 471.201594 
L 682.362068 472.615392 
L 681.135998 474.246994 
L 680.187533 476.054144 
L 679.541238 477.990035 
L 679.213851 480.004531 
L 679.213851 482.045455 
L 679.541238 484.059951 
L 680.187533 485.995842 
L 681.135998 487.802991 
L 682.362068 489.434594 
L 683.833988 490.848392 
L 685.513636 492.00777 
L 687.357511 492.882699 
L 689.317856 493.45052 
L 691.3439 493.696526 
L 693.38317 493.614346 
L 695.382849 493.206109 
L 697.291147 492.482387 
L 699.058639 491.461925 
L 700.63955 490.171151 
L 701.992933 488.643497 
L 703.083738 486.918528 
L 703.883712 485.040919 
L 704.372137 483.0593 
L 704.536364 481.024993 
" clip-path="url(#p858e3802ea)" style="fill: none; stroke: #000000; stroke-width: 1.5; stroke-linecap: square"/>
   </g>
   <g id="line2d_16">
    <path d="M 720.261818 485.590447 
L 720.156713 484.288491 
L 719.844121 483.020255 
L 719.332138 481.818585 
L 718.634023 480.714605 
L 717.767857 479.736906 
L 716.756075 478.910811 
L 715.624879 478.257715 
L 714.403569 477.794533 
L 713.123774 477.533261 
L 711.818642 477.480666 
L 710.521973 477.63811 
L 709.267352 478.001516 
L 708.087273 478.56147 
L 707.012298 479.303472 
L 706.070269 480.208303 
L 705.285584 481.252528 
L 704.678567 482.409104 
L 704.264938 483.648074 
L 704.05541 484.937352 
L 704.05541 486.243543 
L 704.264938 487.53282 
L 704.678567 488.771791 
L 705.285584 489.928366 
L 706.070269 490.972592 
L 707.012298 491.877423 
L 708.087273 492.619425 
L 709.267352 493.179379 
L 710.521973 493.542785 
L 711.818642 493.700229 
L 713.123774 493.647634 
L 714.403569 493.386362 
L 715.624879 492.92318 
L 716.756075 492.270084 
L 717.767857 491.443989 
L 718.634023 490.46629 
L 719.332138 489.36231 
L 719.844121 488.16064 
L 720.156713 486.892404 
L 720.261818 485.590447 
" clip-path="url(#p858e3802ea)" style="fill: none; stroke: #000000; stroke-width: 1.5; stroke-linecap: square"/>
   </g>
   <g id="line2d_17">
    <path d="M 996.218182 290.79772 
L 993.590562 258.248813 
L 985.775758 226.542905 
L 972.976168 196.501164 
L 955.523295 168.901653 
L 933.86916 144.459187 
L 908.574592 123.806812 
L 880.294709 107.479414 
L 849.761944 95.899863 
L 817.767079 89.368065 
L 785.138766 88.053189 
L 752.722059 91.98929 
L 721.356536 101.074424 
L 691.854545 115.073293 
L 664.980175 133.623332 
L 641.429455 156.244104 
L 621.812339 182.349745 
L 606.636898 211.264132 
L 596.296169 242.238396 
L 591.057972 274.470322 
L 591.057972 307.125118 
L 596.296169 339.357044 
L 606.636898 370.331309 
L 621.812339 399.245695 
L 641.429455 425.351336 
L 664.980175 447.972109 
L 691.854545 466.522148 
L 721.356536 480.521016 
L 752.722059 489.606151 
L 785.138766 493.542251 
L 817.767079 492.227375 
L 849.761944 485.695577 
L 880.294709 474.116027 
L 908.574592 457.788628 
L 933.86916 437.136253 
L 955.523295 412.693787 
L 972.976168 385.094277 
L 985.775758 355.052535 
L 993.590562 323.346627 
L 996.218182 290.79772 
" clip-path="url(#p858e3802ea)" style="fill: none; stroke: #000000; stroke-width: 1.5; stroke-linecap: square"/>
   </g>
   <g id="line2d_18">
    <path d="M 184.581818 493.706811 
L 996.218182 493.706811 
" clip-path="url(#p858e3802ea)" style="fill: none; stroke: #000000; stroke-width: 1.5; stroke-linecap: square"/>
   </g>
   <g id="text_1">
    <!-- 2 -->
    <g transform="translate(339.772159 332.188345) scale(1.5 -1.5)">
     <defs>
      <path id="DejaVuSans-32" d="M 1228 531 
L 3431 531 
L 3431 0 
L 469 0 
L 469 531 
Q 828 903 1448 1529 
Q 2069 2156 2228 2338 
Q 2531 2678 2651 2914 
Q 2772 3150 2772 3378 
Q 2772 3750 2511 3984 
Q 2250 4219 1831 4219 
Q 1534 4219 1204 4116 
Q 875 4013 500 3803 
L 500 4441 
Q 881 4594 1212 4672 
Q 1544 4750 1819 4750 
Q 2544 4750 2975 4387 
Q 3406 4025 3406 3419 
Q 3406 3131 3298 2873 
Q 3191 2616 2906 2266 
Q 2828 2175 2409 1742 
Q 1991 1309 1228 531 
z
" transform="scale(0.015625)"/>
     </defs>
     <use xlink:href="#DejaVuSans-32"/>
    </g>
   </g>
   <g id="text_2">
    <!-- 50 -->
    <g transform="translate(464.837045 487.246072) scale(0.06 -0.06)">
     <defs>
      <path id="DejaVuSans-35" d="M 691 4666 
L 3169 4666 
L 3169 4134 
L 1269 4134 
L 1269 2991 
Q 1406 3038 1543 3061 
Q 1681 3084 1819 3084 
Q 2600 3084 3056 2656 
Q 3513 2228 3513 1497 
Q 3513 744 3044 326 
Q 2575 -91 1722 -91 
Q 1428 -91 1123 -41 
Q 819 9 494 109 
L 494 744 
Q 775 591 1075 516 
Q 1375 441 1709 441 
Q 2250 441 2565 725 
Q 2881 1009 2881 1497 
Q 2881 1984 2565 2268 
Q 2250 2553 1709 2553 
Q 1456 2553 1204 2497 
Q 953 2441 691 2322 
L 691 4666 
z
" transform="scale(0.015625)"/>
      <path id="DejaVuSans-30" d="M 2034 4250 
Q 1547 4250 1301 3770 
Q 1056 3291 1056 2328 
Q 1056 1369 1301 889 
Q 1547 409 2034 409 
Q 2525 409 2770 889 
Q 3016 1369 3016 2328 
Q 3016 3291 2770 3770 
Q 2525 4250 2034 4250 
z
M 2034 4750 
Q 2819 4750 3233 4129 
Q 3647 3509 3647 2328 
Q 3647 1150 3233 529 
Q 2819 -91 2034 -91 
Q 1250 -91 836 529 
Q 422 1150 422 2328 
Q 422 3509 836 4129 
Q 1250 4750 2034 4750 
z
" transform="scale(0.015625)"/>
     </defs>
     <use xlink:href="#DejaVuSans-35"/>
     <use xlink:href="#DejaVuSans-30" x="63.623047"/>
    </g>
   </g>
   <g id="text_3">
    <!-- 32 -->
    <g transform="translate(483.219205 483.50843) scale(0.09 -0.09)">
     <defs>
      <path id="DejaVuSans-33" d="M 2597 2516 
Q 3050 2419 3304 2112 
Q 3559 1806 3559 1356 
Q 3559 666 3084 287 
Q 2609 -91 1734 -91 
Q 1441 -91 1130 -33 
Q 819 25 488 141 
L 488 750 
Q 750 597 1062 519 
Q 1375 441 1716 441 
Q 2309 441 2620 675 
Q 2931 909 2931 1356 
Q 2931 1769 2642 2001 
Q 2353 2234 1838 2234 
L 1294 2234 
L 1294 2753 
L 1863 2753 
Q 2328 2753 2575 2939 
Q 2822 3125 2822 3475 
Q 2822 3834 2567 4026 
Q 2313 4219 1838 4219 
Q 1578 4219 1281 4162 
Q 984 4106 628 3988 
L 628 4550 
Q 988 4650 1302 4700 
Q 1616 4750 1894 4750 
Q 2613 4750 3031 4423 
Q 3450 4097 3450 3541 
Q 3450 3153 3228 2886 
Q 3006 2619 2597 2516 
z
" transform="scale(0.015625)"/>
     </defs>
     <use xlink:href="#DejaVuSans-33"/>
     <use xlink:href="#DejaVuSans-32" x="63.623047"/>
    </g>
   </g>
   <g id="text_4">
    <!-- 18 -->
    <g transform="translate(512.583636 475.576357) scale(0.16 -0.16)">
     <defs>
      <path id="DejaVuSans-31" d="M 794 531 
L 1825 531 
L 1825 4091 
L 703 3866 
L 703 4441 
L 1819 4666 
L 2450 4666 
L 2450 531 
L 3481 531 
L 3481 0 
L 794 0 
L 794 531 
z
" transform="scale(0.015625)"/>
      <path id="DejaVuSans-38" d="M 2034 2216 
Q 1584 2216 1326 1975 
Q 1069 1734 1069 1313 
Q 1069 891 1326 650 
Q 1584 409 2034 409 
Q 2484 409 2743 651 
Q 3003 894 3003 1313 
Q 3003 1734 2745 1975 
Q 2488 2216 2034 2216 
z
M 1403 2484 
Q 997 2584 770 2862 
Q 544 3141 544 3541 
Q 544 4100 942 4425 
Q 1341 4750 2034 4750 
Q 2731 4750 3128 4425 
Q 3525 4100 3525 3541 
Q 3525 3141 3298 2862 
Q 3072 2584 2669 2484 
Q 3125 2378 3379 2068 
Q 3634 1759 3634 1313 
Q 3634 634 3220 271 
Q 2806 -91 2034 -91 
Q 1263 -91 848 271 
Q 434 634 434 1313 
Q 434 1759 690 2068 
Q 947 2378 1403 2484 
z
M 1172 3481 
Q 1172 3119 1398 2916 
Q 1625 2713 2034 2713 
Q 2441 2713 2670 2916 
Q 2900 3119 2900 3481 
Q 2900 3844 2670 4047 
Q 2441 4250 2034 4250 
Q 1625 4250 1398 4047 
Q 1172 3844 1172 3481 
z
" transform="scale(0.015625)"/>
     </defs>
     <use xlink:href="#DejaVuSans-31"/>
     <use xlink:href="#DejaVuSans-38" x="63.623047"/>
    </g>
   </g>
   <g id="text_5">
    <!-- 50 -->
    <g transform="translate(546.000682 487.246072) scale(0.06 -0.06)">
     <use xlink:href="#DejaVuSans-35"/>
     <use xlink:href="#DejaVuSans-30" x="63.623047"/>
    </g>
   </g>
   <g id="text_6">
    <!-- 8 -->
    <g transform="translate(578.629375 453.189226) scale(0.37 -0.37)">
     <use xlink:href="#DejaVuSans-38"/>
    </g>
   </g>
   <g id="text_7">
    <!-- 50 -->
    <g transform="translate(627.164318 487.246072) scale(0.06 -0.06)">
     <use xlink:href="#DejaVuSans-35"/>
     <use xlink:href="#DejaVuSans-30" x="63.623047"/>
    </g>
   </g>
   <g id="text_8">
    <!-- 18 -->
    <g transform="translate(647.856364 475.576357) scale(0.16 -0.16)">
     <use xlink:href="#DejaVuSans-31"/>
     <use xlink:href="#DejaVuSans-38" x="63.623047"/>
    </g>
   </g>
   <g id="text_9">
    <!-- 32 -->
    <g transform="translate(686.128295 483.50843) scale(0.09 -0.09)">
     <use xlink:href="#DejaVuSans-33"/>
     <use xlink:href="#DejaVuSans-32" x="63.623047"/>
    </g>
   </g>
   <g id="text_10">
    <!-- 50 -->
    <g transform="translate(708.327955 487.246072) scale(0.06 -0.06)">
     <use xlink:href="#DejaVuSans-35"/>
     <use xlink:href="#DejaVuSans-30" x="63.623047"/>
    </g>
   </g>
   <g id="text_11">
    <!-- 2 -->
    <g transform="translate(745.590341 332.188345) scale(1.5 -1.5)">
     <use xlink:href="#DejaVuSans-32"/>
    </g>
   </g>
  </g>
 </g>
 <defs>
  <clipPath id="p858e3802ea">
   <rect x="144" y="69.12" width="892.8" height="443.52"/>
  </clipPath>
 </defs>
</svg>
