<?xml version="1.0" encoding="utf-8" standalone="no"?>
<!DOCTYPE svg PUBLIC "-//W3C//DTD SVG 1.1//EN"
  "http://www.w3.org/Graphics/SVG/1.1/DTD/svg11.dtd">
<svg xmlns:xlink="http://www.w3.org/1999/xlink" width="1152pt" height="576pt" viewBox="0 0 1152 576" xmlns="http://www.w3.org/2000/svg" version="1.1">
 <metadata>
  <rdf:RDF xmlns:dc="http://purl.org/dc/elements/1.1/" xmlns:cc="http://creativecommons.org/ns#" xmlns:rdf="http://www.w3.org/1999/02/22-rdf-syntax-ns#">
   <cc:Work>
    <dc:type rdf:resource="http://purl.org/dc/dcmitype/StillImage"/>
    <dc:date>2025-06-09T08:21:36.804633</dc:date>
    <dc:format>image/svg+xml</dc:format>
    <dc:creator>
     <cc:Agent>
      <dc:title>Matplotlib v3.8.2, https://matplotlib.org/</dc:title>
     </cc:Agent>
    </dc:creator>
   </cc:Work>
  </rdf:RDF>
 </metadata>
 <defs>
  <style type="text/css">*{stroke-linejoin: round; stroke-linecap: butt}</style>
 </defs>
 <g id="figure_1">
  <g id="patch_1">
   <path d="M 0 576 
L 1152 576 
L 1152 0 
L 0 0 
z
" style="fill: #ffffff"/>
  </g>
  <g id="axes_1">
   <g id="line2d_1">
    <path d="M 590.4 288.768629 
L 587.772381 256.219722 
L 579.957576 224.513815 
L 567.157986 194.472073 
L 549.705113 166.872563 
L 528.050978 142.430096 
L 502.75641 121.777721 
L 474.476527 105.450323 
L 443.943762 93.870772 
L 411.948897 87.338974 
L 379.320584 86.024098 
L 346.903877 89.960199 
L 315.538354 99.045333 
L 286.036364 113.044202 
L 259.161993 131.594241 
L 235.611274 154.215014 
L 215.994157 180.320654 
L 200.818717 209.235041 
L 190.477988 240.209305 
L 185.23979 272.441231 
L 185.23979 305.096028 
L 190.477988 337.327953 
L 200.818717 368.302218 
L 215.994157 397.216604 
L 235.611274 423.322245 
L 259.161993 445.943018 
L 286.036364 464.493057 
L 315.538354 478.491925 
L 346.903877 487.57706 
L 379.320584 491.513161 
L 411.948897 490.198284 
L 443.943762 483.666486 
L 474.476527 472.086936 
L 502.75641 455.759537 
L 528.050978 435.107162 
L 549.705113 410.664696 
L 567.157986 383.065186 
L 579.957576 353.023444 
L 587.772381 321.317536 
L 590.4 288.768629 
" clip-path="url(#p9040e9e0b2)" style="fill: none; stroke: #000000; stroke-width: 1.5; stroke-linecap: square"/>
   </g>
   <g id="line2d_2">
    <path d="M 476.770909 483.561357 
L 476.665804 482.2594 
L 476.353212 480.991164 
L 475.841229 479.789494 
L 475.143114 478.685514 
L 474.276948 477.707815 
L 473.265166 476.88172 
L 472.13397 476.228624 
L 470.91266 475.765442 
L 469.632865 475.50417 
L 468.327732 475.451575 
L 467.031064 475.609019 
L 465.776443 475.972425 
L 464.596364 476.532379 
L 463.521389 477.274381 
L 462.57936 478.179212 
L 461.794675 479.223438 
L 461.187658 480.380013 
L 460.774029 481.618984 
L 460.564501 482.908261 
L 460.564501 484.214452 
L 460.774029 485.503729 
L 461.187658 486.7427 
L 461.794675 487.899276 
L 462.57936 488.943501 
L 463.521389 489.848332 
L 464.596364 490.590334 
L 465.776443 491.150288 
L 467.031064 491.513694 
L 468.327732 491.671138 
L 469.632865 491.618543 
L 470.91266 491.357271 
L 472.13397 490.894089 
L 473.265166 490.240993 
L 474.276948 489.414898 
L 475.143114 488.437199 
L 475.841229 487.333219 
L 476.353212 486.131549 
L 476.665804 484.863313 
L 476.770909 483.561357 
" clip-path="url(#p9040e9e0b2)" style="fill: none; stroke: #000000; stroke-width: 1.5; stroke-linecap: square"/>
   </g>
   <g id="line2d_3">
    <path d="M 501.627273 478.995902 
L 501.463047 476.961595 
L 500.974621 474.979976 
L 500.174647 473.102367 
L 499.083842 471.377398 
L 497.730459 469.849744 
L 496.149548 468.55897 
L 494.382056 467.538508 
L 492.473758 466.814786 
L 490.474079 466.406549 
L 488.434809 466.324369 
L 486.408765 466.570375 
L 484.44842 467.138196 
L 482.604545 468.013125 
L 480.924897 469.172503 
L 479.452977 470.586301 
L 478.226908 472.217904 
L 477.278443 474.025053 
L 476.632147 475.960944 
L 476.30476 477.97544 
L 476.30476 480.016364 
L 476.632147 482.03086 
L 477.278443 483.966751 
L 478.226908 485.7739 
L 479.452977 487.405503 
L 480.924897 488.819301 
L 482.604545 489.978679 
L 484.44842 490.853608 
L 486.408765 491.421429 
L 488.434809 491.667435 
L 490.474079 491.585255 
L 492.473758 491.177018 
L 494.382056 490.453296 
L 496.149548 489.432834 
L 497.730459 488.14206 
L 499.083842 486.614406 
L 500.174647 484.889437 
L 500.974621 483.011828 
L 501.463047 481.030209 
L 501.627273 478.995902 
" clip-path="url(#p9040e9e0b2)" style="fill: none; stroke: #000000; stroke-width: 1.5; stroke-linecap: square"/>
   </g>
   <g id="line2d_4">
    <path d="M 507.579963 487.536718 
L 507.526338 486.872455 
L 507.366852 486.225396 
L 507.105636 485.612299 
L 506.749455 485.049043 
L 506.307534 484.550218 
L 505.791318 484.128741 
L 505.214178 483.795528 
L 504.59106 483.559211 
L 503.938104 483.425909 
L 503.27222 483.399075 
L 502.610654 483.479403 
L 501.970542 483.664814 
L 501.36846 483.950506 
L 500.820004 484.329078 
L 500.339377 484.790726 
L 499.939027 485.323494 
L 499.629324 485.913584 
L 499.418289 486.545712 
L 499.311387 487.203506 
L 499.311387 487.869931 
L 499.418289 488.527725 
L 499.629324 489.159853 
L 499.939027 489.749942 
L 500.339377 490.28271 
L 500.820004 490.744359 
L 501.36846 491.122931 
L 501.970542 491.408622 
L 502.610654 491.594033 
L 503.27222 491.674362 
L 503.938104 491.647528 
L 504.59106 491.514226 
L 505.214178 491.277908 
L 505.791318 490.944696 
L 506.307534 490.523219 
L 506.749455 490.024393 
L 507.105636 489.461138 
L 507.366852 488.848041 
L 507.526338 488.200982 
L 507.579963 487.536718 
" clip-path="url(#p9040e9e0b2)" style="fill: none; stroke: #000000; stroke-width: 1.5; stroke-linecap: square"/>
   </g>
   <g id="line2d_5">
    <path d="M 545.309091 469.132266 
L 545.017133 465.51572 
L 544.148822 461.992842 
L 542.726645 458.65487 
L 540.787437 455.588258 
L 538.381422 452.872429 
L 535.570914 450.57772 
L 532.428705 448.763565 
L 529.036176 447.476948 
L 525.481191 446.751193 
L 521.855822 446.605095 
L 518.253966 447.04244 
L 514.768908 448.051899 
L 511.490909 449.607329 
L 508.504868 451.668445 
L 505.888121 454.181864 
L 503.708442 457.082491 
L 502.022282 460.2952 
L 500.873312 463.736785 
L 500.29129 467.31811 
L 500.29129 470.946421 
L 500.873312 474.527746 
L 502.022282 477.969331 
L 503.708442 481.182041 
L 505.888121 484.082667 
L 508.504868 486.596087 
L 511.490909 488.657202 
L 514.768908 490.212632 
L 518.253966 491.222091 
L 521.855822 491.659436 
L 525.481191 491.513338 
L 529.036176 490.787583 
L 532.428705 489.500966 
L 535.570914 487.686811 
L 538.381422 485.392103 
L 540.787437 482.676273 
L 542.726645 479.609661 
L 544.148822 476.271689 
L 545.017133 472.748811 
L 545.309091 469.132266 
" clip-path="url(#p9040e9e0b2)" style="fill: none; stroke: #000000; stroke-width: 1.5; stroke-linecap: square"/>
   </g>
   <g id="line2d_6">
    <path d="M 542.843182 488.507266 
L 542.802125 487.998689 
L 542.680019 487.503284 
L 542.480025 487.033882 
L 542.207324 486.60264 
L 541.868978 486.220726 
L 541.473751 485.898033 
L 541.031878 485.642917 
L 540.554803 485.461987 
L 540.054883 485.359927 
L 539.545066 485.339382 
L 539.038555 485.400884 
L 538.548469 485.542839 
L 538.0875 485.761571 
L 537.667588 486.051416 
L 537.299608 486.404865 
L 536.993091 486.812766 
L 536.755974 487.264553 
L 536.5944 487.748526 
L 536.512554 488.25215 
L 536.512554 488.762381 
L 536.5944 489.266005 
L 536.755974 489.749978 
L 536.993091 490.201765 
L 537.299608 490.609666 
L 537.667588 490.963115 
L 538.0875 491.25296 
L 538.548469 491.471692 
L 539.038555 491.613647 
L 539.545066 491.675149 
L 540.054883 491.654604 
L 540.554803 491.552545 
L 541.031878 491.371614 
L 541.473751 491.116499 
L 541.868978 490.793805 
L 542.207324 490.411892 
L 542.480025 489.980649 
L 542.680019 489.511247 
L 542.802125 489.015842 
L 542.843182 488.507266 
" clip-path="url(#p9040e9e0b2)" style="fill: none; stroke: #000000; stroke-width: 1.5; stroke-linecap: square"/>
   </g>
   <g id="line2d_7">
    <path d="M 557.934545 483.561357 
L 557.829441 482.2594 
L 557.516849 480.991164 
L 557.004865 479.789494 
L 556.30675 478.685514 
L 555.440585 477.707815 
L 554.428802 476.88172 
L 553.297607 476.228624 
L 552.076296 475.765442 
L 550.796501 475.50417 
L 549.491369 475.451575 
L 548.194701 475.609019 
L 546.94008 475.972425 
L 545.76 476.532379 
L 544.685025 477.274381 
L 543.742996 478.179212 
L 542.958312 479.223438 
L 542.351294 480.380013 
L 541.937665 481.618984 
L 541.728137 482.908261 
L 541.728137 484.214452 
L 541.937665 485.503729 
L 542.351294 486.7427 
L 542.958312 487.899276 
L 543.742996 488.943501 
L 544.685025 489.848332 
L 545.76 490.590334 
L 546.94008 491.150288 
L 548.194701 491.513694 
L 549.491369 491.671138 
L 550.796501 491.618543 
L 552.076296 491.357271 
L 553.297607 490.894089 
L 554.428802 490.240993 
L 555.440585 489.414898 
L 556.30675 488.437199 
L 557.004865 487.333219 
L 557.516849 486.131549 
L 557.829441 484.863313 
L 557.934545 483.561357 
" clip-path="url(#p9040e9e0b2)" style="fill: none; stroke: #000000; stroke-width: 1.5; stroke-linecap: square"/>
   </g>
   <g id="line2d_8">
    <path d="M 565.553989 487.536718 
L 565.500364 486.872455 
L 565.340878 486.225396 
L 565.079662 485.612299 
L 564.723481 485.049043 
L 564.28156 484.550218 
L 563.765344 484.128741 
L 563.188204 483.795528 
L 562.565086 483.559211 
L 561.91213 483.425909 
L 561.246246 483.399075 
L 560.58468 483.479403 
L 559.944568 483.664814 
L 559.342486 483.950506 
L 558.79403 484.329078 
L 558.313403 484.790726 
L 557.913053 485.323494 
L 557.60335 485.913584 
L 557.392315 486.545712 
L 557.285413 487.203506 
L 557.285413 487.869931 
L 557.392315 488.527725 
L 557.60335 489.159853 
L 557.913053 489.749942 
L 558.313403 490.28271 
L 558.79403 490.744359 
L 559.342486 491.122931 
L 559.944568 491.408622 
L 560.58468 491.594033 
L 561.246246 491.674362 
L 561.91213 491.647528 
L 562.565086 491.514226 
L 563.188204 491.277908 
L 563.765344 490.944696 
L 564.28156 490.523219 
L 564.723481 490.024393 
L 565.079662 489.461138 
L 565.340878 488.848041 
L 565.500364 488.200982 
L 565.553989 487.536718 
" clip-path="url(#p9040e9e0b2)" style="fill: none; stroke: #000000; stroke-width: 1.5; stroke-linecap: square"/>
   </g>
   <g id="line2d_9">
    <path d="M 641.127273 440.950447 
L 640.470368 432.813221 
L 638.516667 424.886744 
L 635.316769 417.376308 
L 630.953551 410.476431 
L 625.540017 404.365814 
L 619.216375 399.20272 
L 612.146404 395.120871 
L 604.513213 392.225983 
L 596.514497 390.593034 
L 588.357419 390.264315 
L 580.253242 391.24834 
L 572.411861 393.519624 
L 565.036364 397.019341 
L 558.317771 401.65685 
L 552.430091 407.312044 
L 547.525812 413.838454 
L 543.731952 421.06705 
L 541.14677 428.810616 
L 539.83722 436.868598 
L 539.83722 445.032297 
L 541.14677 453.090278 
L 543.731952 460.833845 
L 547.525812 468.062441 
L 552.430091 474.588851 
L 558.317771 480.244045 
L 565.036364 484.881554 
L 572.411861 488.381271 
L 580.253242 490.652555 
L 588.357419 491.63658 
L 596.514497 491.307861 
L 604.513213 489.674912 
L 612.146404 486.780024 
L 619.216375 482.698174 
L 625.540017 477.535081 
L 630.953551 471.424464 
L 635.316769 464.524587 
L 638.516667 457.014151 
L 640.470368 449.087674 
L 641.127273 440.950447 
" clip-path="url(#p9040e9e0b2)" style="fill: none; stroke: #000000; stroke-width: 1.5; stroke-linecap: square"/>
   </g>
   <g id="line2d_10">
    <path d="M 623.528015 487.536718 
L 623.47439 486.872455 
L 623.314904 486.225396 
L 623.053688 485.612299 
L 622.697507 485.049043 
L 622.255586 484.550218 
L 621.73937 484.128741 
L 621.16223 483.795528 
L 620.539112 483.559211 
L 619.886156 483.425909 
L 619.220272 483.399075 
L 618.558706 483.479403 
L 617.918593 483.664814 
L 617.316512 483.950506 
L 616.768056 484.329078 
L 616.287429 484.790726 
L 615.887079 485.323494 
L 615.577376 485.913584 
L 615.366341 486.545712 
L 615.259439 487.203506 
L 615.259439 487.869931 
L 615.366341 488.527725 
L 615.577376 489.159853 
L 615.887079 489.749942 
L 616.287429 490.28271 
L 616.768056 490.744359 
L 617.316512 491.122931 
L 617.918593 491.408622 
L 618.558706 491.594033 
L 619.220272 491.674362 
L 619.886156 491.647528 
L 620.539112 491.514226 
L 621.16223 491.277908 
L 621.73937 490.944696 
L 622.255586 490.523219 
L 622.697507 490.024393 
L 623.053688 489.461138 
L 623.314904 488.848041 
L 623.47439 488.200982 
L 623.528015 487.536718 
" clip-path="url(#p9040e9e0b2)" style="fill: none; stroke: #000000; stroke-width: 1.5; stroke-linecap: square"/>
   </g>
   <g id="line2d_11">
    <path d="M 639.098182 483.561357 
L 638.993077 482.2594 
L 638.680485 480.991164 
L 638.168501 479.789494 
L 637.470386 478.685514 
L 636.604221 477.707815 
L 635.592438 476.88172 
L 634.461243 476.228624 
L 633.239932 475.765442 
L 631.960138 475.50417 
L 630.655005 475.451575 
L 629.358337 475.609019 
L 628.103716 475.972425 
L 626.923636 476.532379 
L 625.848662 477.274381 
L 624.906633 478.179212 
L 624.121948 479.223438 
L 623.51493 480.380013 
L 623.101301 481.618984 
L 622.891773 482.908261 
L 622.891773 484.214452 
L 623.101301 485.503729 
L 623.51493 486.7427 
L 624.121948 487.899276 
L 624.906633 488.943501 
L 625.848662 489.848332 
L 626.923636 490.590334 
L 628.103716 491.150288 
L 629.358337 491.513694 
L 630.655005 491.671138 
L 631.960138 491.618543 
L 633.239932 491.357271 
L 634.461243 490.894089 
L 635.592438 490.240993 
L 636.604221 489.414898 
L 637.470386 488.437199 
L 638.168501 487.333219 
L 638.680485 486.131549 
L 638.993077 484.863313 
L 639.098182 483.561357 
" clip-path="url(#p9040e9e0b2)" style="fill: none; stroke: #000000; stroke-width: 1.5; stroke-linecap: square"/>
   </g>
   <g id="line2d_12">
    <path d="M 644.297727 488.507266 
L 644.256671 487.998689 
L 644.134564 487.503284 
L 643.934571 487.033882 
L 643.66187 486.60264 
L 643.323524 486.220726 
L 642.928296 485.898033 
L 642.486423 485.642917 
L 642.009349 485.461987 
L 641.509429 485.359927 
L 640.999611 485.339382 
L 640.4931 485.400884 
L 640.003014 485.542839 
L 639.542045 485.761571 
L 639.122133 486.051416 
L 638.754153 486.404865 
L 638.447636 486.812766 
L 638.21052 487.264553 
L 638.048946 487.748526 
L 637.967099 488.25215 
L 637.967099 488.762381 
L 638.048946 489.266005 
L 638.21052 489.749978 
L 638.447636 490.201765 
L 638.754153 490.609666 
L 639.122133 490.963115 
L 639.542045 491.25296 
L 640.003014 491.471692 
L 640.4931 491.613647 
L 640.999611 491.675149 
L 641.509429 491.654604 
L 642.009349 491.552545 
L 642.486423 491.371614 
L 642.928296 491.116499 
L 643.323524 490.793805 
L 643.66187 490.411892 
L 643.934571 489.980649 
L 644.134564 489.511247 
L 644.256671 489.015842 
L 644.297727 488.507266 
" clip-path="url(#p9040e9e0b2)" style="fill: none; stroke: #000000; stroke-width: 1.5; stroke-linecap: square"/>
   </g>
   <g id="line2d_13">
    <path d="M 680.581818 469.132266 
L 680.28986 465.51572 
L 679.421549 461.992842 
L 677.999372 458.65487 
L 676.060164 455.588258 
L 673.654149 452.872429 
L 670.843642 450.57772 
L 667.701432 448.763565 
L 664.308903 447.476948 
L 660.753918 446.751193 
L 657.12855 446.605095 
L 653.526693 447.04244 
L 650.041635 448.051899 
L 646.763636 449.607329 
L 643.777595 451.668445 
L 641.160849 454.181864 
L 638.981169 457.082491 
L 637.295009 460.2952 
L 636.146039 463.736785 
L 635.564017 467.31811 
L 635.564017 470.946421 
L 636.146039 474.527746 
L 637.295009 477.969331 
L 638.981169 481.182041 
L 641.160849 484.082667 
L 643.777595 486.596087 
L 646.763636 488.657202 
L 650.041635 490.212632 
L 653.526693 491.222091 
L 657.12855 491.659436 
L 660.753918 491.513338 
L 664.308903 490.787583 
L 667.701432 489.500966 
L 670.843642 487.686811 
L 673.654149 485.392103 
L 676.060164 482.676273 
L 677.999372 479.609661 
L 679.421549 476.271689 
L 680.28986 472.748811 
L 680.581818 469.132266 
" clip-path="url(#p9040e9e0b2)" style="fill: none; stroke: #000000; stroke-width: 1.5; stroke-linecap: square"/>
   </g>
   <g id="line2d_14">
    <path d="M 681.502041 487.536718 
L 681.448416 486.872455 
L 681.28893 486.225396 
L 681.027714 485.612299 
L 680.671533 485.049043 
L 680.229612 484.550218 
L 679.713396 484.128741 
L 679.136256 483.795528 
L 678.513138 483.559211 
L 677.860182 483.425909 
L 677.194298 483.399075 
L 676.532732 483.479403 
L 675.892619 483.664814 
L 675.290538 483.950506 
L 674.742081 484.329078 
L 674.261455 484.790726 
L 673.861105 485.323494 
L 673.551402 485.913584 
L 673.340367 486.545712 
L 673.233465 487.203506 
L 673.233465 487.869931 
L 673.340367 488.527725 
L 673.551402 489.159853 
L 673.861105 489.749942 
L 674.261455 490.28271 
L 674.742081 490.744359 
L 675.290538 491.122931 
L 675.892619 491.408622 
L 676.532732 491.594033 
L 677.194298 491.674362 
L 677.860182 491.647528 
L 678.513138 491.514226 
L 679.136256 491.277908 
L 679.713396 490.944696 
L 680.229612 490.523219 
L 680.671533 490.024393 
L 681.027714 489.461138 
L 681.28893 488.848041 
L 681.448416 488.200982 
L 681.502041 487.536718 
" clip-path="url(#p9040e9e0b2)" style="fill: none; stroke: #000000; stroke-width: 1.5; stroke-linecap: square"/>
   </g>
   <g id="line2d_15">
    <path d="M 704.536364 478.995902 
L 704.372137 476.961595 
L 703.883712 474.979976 
L 703.083738 473.102367 
L 701.992933 471.377398 
L 700.63955 469.849744 
L 699.058639 468.55897 
L 697.291147 467.538508 
L 695.382849 466.814786 
L 693.38317 466.406549 
L 691.3439 466.324369 
L 689.317856 466.570375 
L 687.357511 467.138196 
L 685.513636 468.013125 
L 683.833988 469.172503 
L 682.362068 470.586301 
L 681.135998 472.217904 
L 680.187533 474.025053 
L 679.541238 475.960944 
L 679.213851 477.97544 
L 679.213851 480.016364 
L 679.541238 482.03086 
L 680.187533 483.966751 
L 681.135998 485.7739 
L 682.362068 487.405503 
L 683.833988 488.819301 
L 685.513636 489.978679 
L 687.357511 490.853608 
L 689.317856 491.421429 
L 691.3439 491.667435 
L 693.38317 491.585255 
L 695.382849 491.177018 
L 697.291147 490.453296 
L 699.058639 489.432834 
L 700.63955 488.14206 
L 701.992933 486.614406 
L 703.083738 484.889437 
L 703.883712 483.011828 
L 704.372137 481.030209 
L 704.536364 478.995902 
" clip-path="url(#p9040e9e0b2)" style="fill: none; stroke: #000000; stroke-width: 1.5; stroke-linecap: square"/>
   </g>
   <g id="line2d_16">
    <path d="M 720.261818 483.561357 
L 720.156713 482.2594 
L 719.844121 480.991164 
L 719.332138 479.789494 
L 718.634023 478.685514 
L 717.767857 477.707815 
L 716.756075 476.88172 
L 715.624879 476.228624 
L 714.403569 475.765442 
L 713.123774 475.50417 
L 711.818642 475.451575 
L 710.521973 475.609019 
L 709.267352 475.972425 
L 708.087273 476.532379 
L 707.012298 477.274381 
L 706.070269 478.179212 
L 705.285584 479.223438 
L 704.678567 480.380013 
L 704.264938 481.618984 
L 704.05541 482.908261 
L 704.05541 484.214452 
L 704.264938 485.503729 
L 704.678567 486.7427 
L 705.285584 487.899276 
L 706.070269 488.943501 
L 707.012298 489.848332 
L 708.087273 490.590334 
L 709.267352 491.150288 
L 710.521973 491.513694 
L 711.818642 491.671138 
L 713.123774 491.618543 
L 714.403569 491.357271 
L 715.624879 490.894089 
L 716.756075 490.240993 
L 717.767857 489.414898 
L 718.634023 488.437199 
L 719.332138 487.333219 
L 719.844121 486.131549 
L 720.156713 484.863313 
L 720.261818 483.561357 
" clip-path="url(#p9040e9e0b2)" style="fill: none; stroke: #000000; stroke-width: 1.5; stroke-linecap: square"/>
   </g>
   <g id="line2d_17">
    <path d="M 996.218182 288.768629 
L 993.590562 256.219722 
L 985.775758 224.513815 
L 972.976168 194.472073 
L 955.523295 166.872563 
L 933.86916 142.430096 
L 908.574592 121.777721 
L 880.294709 105.450323 
L 849.761944 93.870772 
L 817.767079 87.338974 
L 785.138766 86.024098 
L 752.722059 89.960199 
L 721.356536 99.045333 
L 691.854545 113.044202 
L 664.980175 131.594241 
L 641.429455 154.215014 
L 621.812339 180.320654 
L 606.636898 209.235041 
L 596.296169 240.209305 
L 591.057972 272.441231 
L 591.057972 305.096028 
L 596.296169 337.327953 
L 606.636898 368.302218 
L 621.812339 397.216604 
L 641.429455 423.322245 
L 664.980175 445.943018 
L 691.854545 464.493057 
L 721.356536 478.491925 
L 752.722059 487.57706 
L 785.138766 491.513161 
L 817.767079 490.198284 
L 849.761944 483.666486 
L 880.294709 472.086936 
L 908.574592 455.759537 
L 933.86916 435.107162 
L 955.523295 410.664696 
L 972.976168 383.065186 
L 985.775758 353.023444 
L 993.590562 321.317536 
L 996.218182 288.768629 
" clip-path="url(#p9040e9e0b2)" style="fill: none; stroke: #000000; stroke-width: 1.5; stroke-linecap: square"/>
   </g>
   <g id="line2d_18">
    <path d="M 882.589091 483.561357 
L 882.483986 482.2594 
L 882.171394 480.991164 
L 881.65941 479.789494 
L 880.961295 478.685514 
L 880.09513 477.707815 
L 879.083347 476.88172 
L 877.952152 476.228624 
L 876.730841 475.765442 
L 875.451047 475.50417 
L 874.145914 475.451575 
L 872.849246 475.609019 
L 871.594625 475.972425 
L 870.414545 476.532379 
L 869.339571 477.274381 
L 868.397542 478.179212 
L 867.612857 479.223438 
L 867.00584 480.380013 
L 866.59221 481.618984 
L 866.382683 482.908261 
L 866.382683 484.214452 
L 866.59221 485.503729 
L 867.00584 486.7427 
L 867.612857 487.899276 
L 868.397542 488.943501 
L 869.339571 489.848332 
L 870.414545 490.590334 
L 871.594625 491.150288 
L 872.849246 491.513694 
L 874.145914 491.671138 
L 875.451047 491.618543 
L 876.730841 491.357271 
L 877.952152 490.894089 
L 879.083347 490.240993 
L 880.09513 489.414898 
L 880.961295 488.437199 
L 881.65941 487.333219 
L 882.171394 486.131549 
L 882.483986 484.863313 
L 882.589091 483.561357 
" clip-path="url(#p9040e9e0b2)" style="fill: none; stroke: #000000; stroke-width: 1.5; stroke-linecap: square"/>
   </g>
   <g id="line2d_19">
    <path d="M 907.445455 478.995902 
L 907.281228 476.961595 
L 906.792803 474.979976 
L 905.992829 473.102367 
L 904.902024 471.377398 
L 903.548641 469.849744 
L 901.96773 468.55897 
L 900.200237 467.538508 
L 898.29194 466.814786 
L 896.292261 466.406549 
L 894.252991 466.324369 
L 892.226947 466.570375 
L 890.266602 467.138196 
L 888.422727 468.013125 
L 886.743079 469.172503 
L 885.271159 470.586301 
L 884.045089 472.217904 
L 883.096624 474.025053 
L 882.450329 475.960944 
L 882.122941 477.97544 
L 882.122941 480.016364 
L 882.450329 482.03086 
L 883.096624 483.966751 
L 884.045089 485.7739 
L 885.271159 487.405503 
L 886.743079 488.819301 
L 888.422727 489.978679 
L 890.266602 490.853608 
L 892.226947 491.421429 
L 894.252991 491.667435 
L 896.292261 491.585255 
L 898.29194 491.177018 
L 900.200237 490.453296 
L 901.96773 489.432834 
L 903.548641 488.14206 
L 904.902024 486.614406 
L 905.992829 484.889437 
L 906.792803 483.011828 
L 907.281228 481.030209 
L 907.445455 478.995902 
" clip-path="url(#p9040e9e0b2)" style="fill: none; stroke: #000000; stroke-width: 1.5; stroke-linecap: square"/>
   </g>
   <g id="line2d_20">
    <path d="M 913.398145 487.536718 
L 913.34452 486.872455 
L 913.185034 486.225396 
L 912.923818 485.612299 
L 912.567637 485.049043 
L 912.125716 484.550218 
L 911.6095 484.128741 
L 911.03236 483.795528 
L 910.409242 483.559211 
L 909.756285 483.425909 
L 909.090402 483.399075 
L 908.428836 483.479403 
L 907.788723 483.664814 
L 907.186642 483.950506 
L 906.638185 484.329078 
L 906.157558 484.790726 
L 905.757209 485.323494 
L 905.447506 485.913584 
L 905.236471 486.545712 
L 905.129569 487.203506 
L 905.129569 487.869931 
L 905.236471 488.527725 
L 905.447506 489.159853 
L 905.757209 489.749942 
L 906.157558 490.28271 
L 906.638185 490.744359 
L 907.186642 491.122931 
L 907.788723 491.408622 
L 908.428836 491.594033 
L 909.090402 491.674362 
L 909.756285 491.647528 
L 910.409242 491.514226 
L 911.03236 491.277908 
L 911.6095 490.944696 
L 912.125716 490.523219 
L 912.567637 490.024393 
L 912.923818 489.461138 
L 913.185034 488.848041 
L 913.34452 488.200982 
L 913.398145 487.536718 
" clip-path="url(#p9040e9e0b2)" style="fill: none; stroke: #000000; stroke-width: 1.5; stroke-linecap: square"/>
   </g>
   <g id="line2d_21">
    <path d="M 951.127273 469.132266 
L 950.835315 465.51572 
L 949.967003 461.992842 
L 948.544827 458.65487 
L 946.605619 455.588258 
L 944.199604 452.872429 
L 941.389096 450.57772 
L 938.246887 448.763565 
L 934.854357 447.476948 
L 931.299372 446.751193 
L 927.674004 446.605095 
L 924.072148 447.04244 
L 920.58709 448.051899 
L 917.309091 449.607329 
L 914.32305 451.668445 
L 911.706303 454.181864 
L 909.526624 457.082491 
L 907.840463 460.2952 
L 906.691494 463.736785 
L 906.109472 467.31811 
L 906.109472 470.946421 
L 906.691494 474.527746 
L 907.840463 477.969331 
L 909.526624 481.182041 
L 911.706303 484.082667 
L 914.32305 486.596087 
L 917.309091 488.657202 
L 920.58709 490.212632 
L 924.072148 491.222091 
L 927.674004 491.659436 
L 931.299372 491.513338 
L 934.854357 490.787583 
L 938.246887 489.500966 
L 941.389096 487.686811 
L 944.199604 485.392103 
L 946.605619 482.676273 
L 948.544827 479.609661 
L 949.967003 476.271689 
L 950.835315 472.748811 
L 951.127273 469.132266 
" clip-path="url(#p9040e9e0b2)" style="fill: none; stroke: #000000; stroke-width: 1.5; stroke-linecap: square"/>
   </g>
   <g id="line2d_22">
    <path d="M 948.661364 488.507266 
L 948.620307 487.998689 
L 948.498201 487.503284 
L 948.298207 487.033882 
L 948.025506 486.60264 
L 947.68716 486.220726 
L 947.291933 485.898033 
L 946.850059 485.642917 
L 946.372985 485.461987 
L 945.873065 485.359927 
L 945.363248 485.339382 
L 944.856737 485.400884 
L 944.36665 485.542839 
L 943.905682 485.761571 
L 943.48577 486.051416 
L 943.11779 486.404865 
L 942.811272 486.812766 
L 942.574156 487.264553 
L 942.412582 487.748526 
L 942.330735 488.25215 
L 942.330735 488.762381 
L 942.412582 489.266005 
L 942.574156 489.749978 
L 942.811272 490.201765 
L 943.11779 490.609666 
L 943.48577 490.963115 
L 943.905682 491.25296 
L 944.36665 491.471692 
L 944.856737 491.613647 
L 945.363248 491.675149 
L 945.873065 491.654604 
L 946.372985 491.552545 
L 946.850059 491.371614 
L 947.291933 491.116499 
L 947.68716 490.793805 
L 948.025506 490.411892 
L 948.298207 489.980649 
L 948.498201 489.511247 
L 948.620307 489.015842 
L 948.661364 488.507266 
" clip-path="url(#p9040e9e0b2)" style="fill: none; stroke: #000000; stroke-width: 1.5; stroke-linecap: square"/>
   </g>
   <g id="line2d_23">
    <path d="M 963.752727 483.561357 
L 963.647622 482.2594 
L 963.33503 480.991164 
L 962.823047 479.789494 
L 962.124932 478.685514 
L 961.258766 477.707815 
L 960.246984 476.88172 
L 959.115788 476.228624 
L 957.894478 475.765442 
L 956.614683 475.50417 
L 955.309551 475.451575 
L 954.012882 475.609019 
L 952.758261 475.972425 
L 951.578182 476.532379 
L 950.503207 477.274381 
L 949.561178 478.179212 
L 948.776494 479.223438 
L 948.169476 480.380013 
L 947.755847 481.618984 
L 947.546319 482.908261 
L 947.546319 484.214452 
L 947.755847 485.503729 
L 948.169476 486.7427 
L 948.776494 487.899276 
L 949.561178 488.943501 
L 950.503207 489.848332 
L 951.578182 490.590334 
L 952.758261 491.150288 
L 954.012882 491.513694 
L 955.309551 491.671138 
L 956.614683 491.618543 
L 957.894478 491.357271 
L 959.115788 490.894089 
L 960.246984 490.240993 
L 961.258766 489.414898 
L 962.124932 488.437199 
L 962.823047 487.333219 
L 963.33503 486.131549 
L 963.647622 484.863313 
L 963.752727 483.561357 
" clip-path="url(#p9040e9e0b2)" style="fill: none; stroke: #000000; stroke-width: 1.5; stroke-linecap: square"/>
   </g>
   <g id="line2d_24">
    <path d="M 971.372171 487.536718 
L 971.318546 486.872455 
L 971.15906 486.225396 
L 970.897844 485.612299 
L 970.541663 485.049043 
L 970.099742 484.550218 
L 969.583526 484.128741 
L 969.006386 483.795528 
L 968.383268 483.559211 
L 967.730311 483.425909 
L 967.064427 483.399075 
L 966.402862 483.479403 
L 965.762749 483.664814 
L 965.160668 483.950506 
L 964.612211 484.329078 
L 964.131584 484.790726 
L 963.731235 485.323494 
L 963.421532 485.913584 
L 963.210497 486.545712 
L 963.103595 487.203506 
L 963.103595 487.869931 
L 963.210497 488.527725 
L 963.421532 489.159853 
L 963.731235 489.749942 
L 964.131584 490.28271 
L 964.612211 490.744359 
L 965.160668 491.122931 
L 965.762749 491.408622 
L 966.402862 491.594033 
L 967.064427 491.674362 
L 967.730311 491.647528 
L 968.383268 491.514226 
L 969.006386 491.277908 
L 969.583526 490.944696 
L 970.099742 490.523219 
L 970.541663 490.024393 
L 970.897844 489.461138 
L 971.15906 488.848041 
L 971.318546 488.200982 
L 971.372171 487.536718 
" clip-path="url(#p9040e9e0b2)" style="fill: none; stroke: #000000; stroke-width: 1.5; stroke-linecap: square"/>
   </g>
   <g id="line2d_25">
    <path d="M 217.709833 487.536718 
L 217.656208 486.872455 
L 217.496722 486.225396 
L 217.235506 485.612299 
L 216.879325 485.049043 
L 216.437404 484.550218 
L 215.921188 484.128741 
L 215.344048 483.795528 
L 214.72093 483.559211 
L 214.067974 483.425909 
L 213.40209 483.399075 
L 212.740524 483.479403 
L 212.100412 483.664814 
L 211.49833 483.950506 
L 210.949874 484.329078 
L 210.469247 484.790726 
L 210.068897 485.323494 
L 209.759195 485.913584 
L 209.548159 486.545712 
L 209.441257 487.203506 
L 209.441257 487.869931 
L 209.548159 488.527725 
L 209.759195 489.159853 
L 210.068897 489.749942 
L 210.469247 490.28271 
L 210.949874 490.744359 
L 211.49833 491.122931 
L 212.100412 491.408622 
L 212.740524 491.594033 
L 213.40209 491.674362 
L 214.067974 491.647528 
L 214.72093 491.514226 
L 215.344048 491.277908 
L 215.921188 490.944696 
L 216.437404 490.523219 
L 216.879325 490.024393 
L 217.235506 489.461138 
L 217.496722 488.848041 
L 217.656208 488.200982 
L 217.709833 487.536718 
" clip-path="url(#p9040e9e0b2)" style="fill: none; stroke: #000000; stroke-width: 1.5; stroke-linecap: square"/>
   </g>
   <g id="line2d_26">
    <path d="M 233.28 483.561357 
L 233.174895 482.2594 
L 232.862303 480.991164 
L 232.350319 479.789494 
L 231.652205 478.685514 
L 230.786039 477.707815 
L 229.774256 476.88172 
L 228.643061 476.228624 
L 227.42175 475.765442 
L 226.141956 475.50417 
L 224.836823 475.451575 
L 223.540155 475.609019 
L 222.285534 475.972425 
L 221.105455 476.532379 
L 220.03048 477.274381 
L 219.088451 478.179212 
L 218.303766 479.223438 
L 217.696749 480.380013 
L 217.28312 481.618984 
L 217.073592 482.908261 
L 217.073592 484.214452 
L 217.28312 485.503729 
L 217.696749 486.7427 
L 218.303766 487.899276 
L 219.088451 488.943501 
L 220.03048 489.848332 
L 221.105455 490.590334 
L 222.285534 491.150288 
L 223.540155 491.513694 
L 224.836823 491.671138 
L 226.141956 491.618543 
L 227.42175 491.357271 
L 228.643061 490.894089 
L 229.774256 490.240993 
L 230.786039 489.414898 
L 231.652205 488.437199 
L 232.350319 487.333219 
L 232.862303 486.131549 
L 233.174895 484.863313 
L 233.28 483.561357 
" clip-path="url(#p9040e9e0b2)" style="fill: none; stroke: #000000; stroke-width: 1.5; stroke-linecap: square"/>
   </g>
   <g id="line2d_27">
    <path d="M 238.479545 488.507266 
L 238.438489 487.998689 
L 238.316383 487.503284 
L 238.116389 487.033882 
L 237.843688 486.60264 
L 237.505342 486.220726 
L 237.110114 485.898033 
L 236.668241 485.642917 
L 236.191167 485.461987 
L 235.691247 485.359927 
L 235.18143 485.339382 
L 234.674919 485.400884 
L 234.184832 485.542839 
L 233.723864 485.761571 
L 233.303952 486.051416 
L 232.935972 486.404865 
L 232.629454 486.812766 
L 232.392338 487.264553 
L 232.230764 487.748526 
L 232.148917 488.25215 
L 232.148917 488.762381 
L 232.230764 489.266005 
L 232.392338 489.749978 
L 232.629454 490.201765 
L 232.935972 490.609666 
L 233.303952 490.963115 
L 233.723864 491.25296 
L 234.184832 491.471692 
L 234.674919 491.613647 
L 235.18143 491.675149 
L 235.691247 491.654604 
L 236.191167 491.552545 
L 236.668241 491.371614 
L 237.110114 491.116499 
L 237.505342 490.793805 
L 237.843688 490.411892 
L 238.116389 489.980649 
L 238.316383 489.511247 
L 238.438489 489.015842 
L 238.479545 488.507266 
" clip-path="url(#p9040e9e0b2)" style="fill: none; stroke: #000000; stroke-width: 1.5; stroke-linecap: square"/>
   </g>
   <g id="line2d_28">
    <path d="M 274.763636 469.132266 
L 274.471679 465.51572 
L 273.603367 461.992842 
L 272.18119 458.65487 
L 270.241982 455.588258 
L 267.835967 452.872429 
L 265.02546 450.57772 
L 261.88325 448.763565 
L 258.490721 447.476948 
L 254.935736 446.751193 
L 251.310368 446.605095 
L 247.708512 447.04244 
L 244.223453 448.051899 
L 240.945455 449.607329 
L 237.959413 451.668445 
L 235.342667 454.181864 
L 233.162987 457.082491 
L 231.476827 460.2952 
L 230.327857 463.736785 
L 229.745835 467.31811 
L 229.745835 470.946421 
L 230.327857 474.527746 
L 231.476827 477.969331 
L 233.162987 481.182041 
L 235.342667 484.082667 
L 237.959413 486.596087 
L 240.945455 488.657202 
L 244.223453 490.212632 
L 247.708512 491.222091 
L 251.310368 491.659436 
L 254.935736 491.513338 
L 258.490721 490.787583 
L 261.88325 489.500966 
L 265.02546 487.686811 
L 267.835967 485.392103 
L 270.241982 482.676273 
L 272.18119 479.609661 
L 273.603367 476.271689 
L 274.471679 472.748811 
L 274.763636 469.132266 
" clip-path="url(#p9040e9e0b2)" style="fill: none; stroke: #000000; stroke-width: 1.5; stroke-linecap: square"/>
   </g>
   <g id="line2d_29">
    <path d="M 275.683859 487.536718 
L 275.630234 486.872455 
L 275.470748 486.225396 
L 275.209532 485.612299 
L 274.853351 485.049043 
L 274.41143 484.550218 
L 273.895214 484.128741 
L 273.318074 483.795528 
L 272.694956 483.559211 
L 272.042 483.425909 
L 271.376116 483.399075 
L 270.71455 483.479403 
L 270.074438 483.664814 
L 269.472356 483.950506 
L 268.9239 484.329078 
L 268.443273 484.790726 
L 268.042923 485.323494 
L 267.733221 485.913584 
L 267.522185 486.545712 
L 267.415283 487.203506 
L 267.415283 487.869931 
L 267.522185 488.527725 
L 267.733221 489.159853 
L 268.042923 489.749942 
L 268.443273 490.28271 
L 268.9239 490.744359 
L 269.472356 491.122931 
L 270.074438 491.408622 
L 270.71455 491.594033 
L 271.376116 491.674362 
L 272.042 491.647528 
L 272.694956 491.514226 
L 273.318074 491.277908 
L 273.895214 490.944696 
L 274.41143 490.523219 
L 274.853351 490.024393 
L 275.209532 489.461138 
L 275.470748 488.848041 
L 275.630234 488.200982 
L 275.683859 487.536718 
" clip-path="url(#p9040e9e0b2)" style="fill: none; stroke: #000000; stroke-width: 1.5; stroke-linecap: square"/>
   </g>
   <g id="line2d_30">
    <path d="M 298.718182 478.995902 
L 298.553956 476.961595 
L 298.06553 474.979976 
L 297.265556 473.102367 
L 296.174751 471.377398 
L 294.821368 469.849744 
L 293.240457 468.55897 
L 291.472965 467.538508 
L 289.564667 466.814786 
L 287.564988 466.406549 
L 285.525718 466.324369 
L 283.499674 466.570375 
L 281.539329 467.138196 
L 279.695455 468.013125 
L 278.015806 469.172503 
L 276.543886 470.586301 
L 275.317817 472.217904 
L 274.369352 474.025053 
L 273.723056 475.960944 
L 273.395669 477.97544 
L 273.395669 480.016364 
L 273.723056 482.03086 
L 274.369352 483.966751 
L 275.317817 485.7739 
L 276.543886 487.405503 
L 278.015806 488.819301 
L 279.695455 489.978679 
L 281.539329 490.853608 
L 283.499674 491.421429 
L 285.525718 491.667435 
L 287.564988 491.585255 
L 289.564667 491.177018 
L 291.472965 490.453296 
L 293.240457 489.432834 
L 294.821368 488.14206 
L 296.174751 486.614406 
L 297.265556 484.889437 
L 298.06553 483.011828 
L 298.553956 481.030209 
L 298.718182 478.995902 
" clip-path="url(#p9040e9e0b2)" style="fill: none; stroke: #000000; stroke-width: 1.5; stroke-linecap: square"/>
   </g>
   <g id="line2d_31">
    <path d="M 314.443636 483.561357 
L 314.338532 482.2594 
L 314.025939 480.991164 
L 313.513956 479.789494 
L 312.815841 478.685514 
L 311.949675 477.707815 
L 310.937893 476.88172 
L 309.806697 476.228624 
L 308.585387 475.765442 
L 307.305592 475.50417 
L 306.00046 475.451575 
L 304.703791 475.609019 
L 303.449171 475.972425 
L 302.269091 476.532379 
L 301.194116 477.274381 
L 300.252087 478.179212 
L 299.467403 479.223438 
L 298.860385 480.380013 
L 298.446756 481.618984 
L 298.237228 482.908261 
L 298.237228 484.214452 
L 298.446756 485.503729 
L 298.860385 486.7427 
L 299.467403 487.899276 
L 300.252087 488.943501 
L 301.194116 489.848332 
L 302.269091 490.590334 
L 303.449171 491.150288 
L 304.703791 491.513694 
L 306.00046 491.671138 
L 307.305592 491.618543 
L 308.585387 491.357271 
L 309.806697 490.894089 
L 310.937893 490.240993 
L 311.949675 489.414898 
L 312.815841 488.437199 
L 313.513956 487.333219 
L 314.025939 486.131549 
L 314.338532 484.863313 
L 314.443636 483.561357 
" clip-path="url(#p9040e9e0b2)" style="fill: none; stroke: #000000; stroke-width: 1.5; stroke-linecap: square"/>
   </g>
   <g id="line2d_32">
    <path d="M 184.581818 491.67772 
L 996.218182 491.67772 
" clip-path="url(#p9040e9e0b2)" style="fill: none; stroke: #000000; stroke-width: 1.5; stroke-linecap: square"/>
   </g>
   <g id="line2d_33">
    <path d="M 387.490909 495.735902 
" clip-path="url(#p9040e9e0b2)" style="fill: none; stroke: #000000; stroke-width: 1.5; stroke-linecap: square"/>
   </g>
   <g id="text_1">
    <!-- 2 -->
    <g transform="translate(352.358191 326.123756) scale(1.5 -1.5)">
     <defs>
      <path id="CMSS17-32" d="M 1651 1357 
C 1830 1541 2099 1764 2285 1987 
C 2464 2204 2701 2511 2701 2957 
C 2701 3657 2227 4288 1421 4288 
C 787 4288 422 3893 250 3274 
L 499 2929 
C 640 3510 838 3880 1338 3880 
C 1888 3880 2195 3433 2195 2942 
C 2195 2355 1747 1901 1408 1563 
C 1030 1187 659 804 301 408 
L 301 0 
L 2701 0 
L 2701 433 
L 1613 433 
C 1536 433 1459 433 1382 433 
L 742 433 
L 742 439 
L 1651 1357 
z
" transform="scale(0.015625)"/>
     </defs>
     <use xlink:href="#CMSS17-32" transform="scale(0.996264)"/>
    </g>
   </g>
   <g id="text_2">
    <!-- $\frac{0}{1}$ -->
    <g transform="translate(384.07668 516.949949) scale(0.2 -0.2)">
     <defs>
      <path id="CMR17-30" d="M 2688 2025 
C 2688 2416 2682 3080 2413 3591 
C 2176 4039 1798 4198 1466 4198 
C 1158 4198 768 4058 525 3597 
C 269 3118 243 2524 243 2025 
C 243 1661 250 1106 448 619 
C 723 -39 1216 -128 1466 -128 
C 1760 -128 2208 -7 2470 600 
C 2662 1042 2688 1559 2688 2025 
z
M 1466 -26 
C 1056 -26 813 325 723 812 
C 653 1188 653 1738 653 2096 
C 653 2588 653 2997 736 3387 
C 858 3929 1216 4096 1466 4096 
C 1728 4096 2067 3923 2189 3400 
C 2272 3036 2278 2607 2278 2096 
C 2278 1680 2278 1169 2202 792 
C 2067 95 1690 -26 1466 -26 
z
" transform="scale(0.015625)"/>
      <path id="CMR17-31" d="M 1702 4058 
C 1702 4192 1696 4192 1606 4192 
C 1357 3916 979 3827 621 3827 
C 602 3827 570 3827 563 3808 
C 557 3795 557 3782 557 3648 
C 755 3648 1088 3686 1344 3839 
L 1344 461 
C 1344 236 1331 160 781 160 
L 589 160 
L 589 0 
C 896 0 1216 0 1523 0 
C 1830 0 2150 0 2458 0 
L 2458 160 
L 2266 160 
C 1715 160 1702 230 1702 458 
L 1702 4058 
z
" transform="scale(0.015625)"/>
     </defs>
     <use xlink:href="#CMR17-30" transform="translate(0 39.226102) scale(0.697382)"/>
     <use xlink:href="#CMR17-31" transform="translate(0 -34.355253) scale(0.697382)"/>
     <path d="M 0 22.914133 
L 31.983182 22.914133 
L 31.983182 26.899083 
L 0 26.899083 
L 0 22.914133 
z
"/>
    </g>
   </g>
   <g id="text_3">
    <!-- 50 -->
    <g transform="translate(465.478908 485.055753) scale(0.06 -0.06)">
     <defs>
      <path id="CMSS17-35" d="M 934 3752 
L 2502 3752 
L 2502 4160 
L 467 4160 
L 467 1781 
L 896 1781 
C 1011 2046 1248 2240 1555 2240 
C 1843 2240 2163 1989 2163 1266 
C 2163 493 1709 267 1376 267 
C 966 267 589 512 422 851 
L 218 499 
C 512 49 992 -128 1376 -128 
C 2118 -128 2701 497 2701 1253 
C 2701 2030 2182 2629 1562 2629 
C 1338 2629 1120 2553 934 2399 
L 934 3752 
z
" transform="scale(0.015625)"/>
      <path id="CMSS17-30" d="M 2758 2044 
C 2758 2405 2752 3077 2490 3596 
C 2227 4096 1805 4229 1504 4229 
C 1069 4229 698 3975 506 3570 
C 301 3146 243 2709 243 2044 
C 243 1589 262 1031 493 543 
C 755 5 1197 -128 1498 -128 
C 1894 -128 2278 81 2496 518 
C 2720 974 2758 1474 2758 2044 
z
M 1498 261 
C 1011 261 864 811 819 995 
C 742 1310 730 1614 730 2114 
C 730 2506 730 2948 851 3297 
C 998 3701 1254 3840 1498 3840 
C 1971 3840 2125 3372 2176 3208 
C 2272 2873 2272 2481 2272 2114 
C 2272 1526 2272 261 1498 261 
z
" transform="scale(0.015625)"/>
     </defs>
     <use xlink:href="#CMSS17-35" transform="scale(0.996264)"/>
     <use xlink:href="#CMSS17-30" transform="translate(46.843624 0) scale(0.996264)"/>
    </g>
   </g>
   <g id="text_4">
    <!-- $\frac{1}{5}$ -->
    <g transform="translate(465.240316 516.949949) scale(0.2 -0.2)">
     <defs>
      <path id="CMR17-35" d="M 730 3692 
C 794 3666 1056 3584 1325 3584 
C 1920 3584 2246 3911 2432 4100 
C 2432 4157 2432 4192 2394 4192 
C 2387 4192 2374 4192 2323 4163 
C 2099 4058 1837 3973 1517 3973 
C 1325 3973 1037 3999 723 4139 
C 653 4171 640 4171 634 4171 
C 602 4171 595 4164 595 4037 
L 595 2203 
C 595 2089 595 2057 659 2057 
C 691 2057 704 2070 736 2114 
C 941 2401 1222 2522 1542 2522 
C 1766 2522 2246 2382 2246 1289 
C 2246 1085 2246 715 2054 421 
C 1894 159 1645 25 1370 25 
C 947 25 518 320 403 814 
C 429 807 480 795 506 795 
C 589 795 749 840 749 1038 
C 749 1210 627 1280 506 1280 
C 358 1280 262 1190 262 1011 
C 262 454 704 -128 1382 -128 
C 2042 -128 2669 440 2669 1264 
C 2669 2030 2170 2624 1549 2624 
C 1222 2624 947 2503 730 2274 
L 730 3692 
z
" transform="scale(0.015625)"/>
     </defs>
     <use xlink:href="#CMR17-31" transform="translate(0 39.226102) scale(0.697382)"/>
     <use xlink:href="#CMR17-35" transform="translate(0 -34.355253) scale(0.697382)"/>
     <path d="M 0 22.914133 
L 31.983182 22.914133 
L 31.983182 26.899083 
L 0 26.899083 
L 0 22.914133 
z
"/>
    </g>
   </g>
   <g id="text_5">
    <!-- 32 -->
    <g transform="translate(484.337764 481.237496) scale(0.09 -0.09)">
     <defs>
      <path id="CMSS17-33" d="M 1005 2025 
L 1440 2025 
C 2042 2025 2214 1507 2214 1146 
C 2214 653 1933 267 1472 267 
C 1114 267 608 444 320 912 
C 275 691 275 678 250 526 
C 550 88 1037 -128 1485 -128 
C 2214 -128 2752 473 2752 1138 
C 2752 1638 2400 2057 1920 2215 
C 2304 2424 2586 2816 2586 3273 
C 2586 3805 2093 4229 1491 4229 
C 941 4229 512 3892 333 3530 
C 378 3468 493 3284 550 3189 
C 691 3562 1056 3840 1485 3840 
C 1843 3840 2080 3607 2080 3271 
C 2080 2923 1856 2543 1478 2455 
C 1453 2455 1056 2417 1005 2411 
L 1005 2025 
z
" transform="scale(0.015625)"/>
     </defs>
     <use xlink:href="#CMSS17-33" transform="scale(0.996264)"/>
     <use xlink:href="#CMSS17-32" transform="translate(46.843624 0) scale(0.996264)"/>
    </g>
   </g>
   <g id="text_6">
    <!-- $\frac{1}{4}$ -->
    <g transform="translate(485.531225 516.949949) scale(0.2 -0.2)">
     <defs>
      <path id="CMR17-34" d="M 2150 4122 
C 2150 4256 2144 4256 2029 4256 
L 128 1254 
L 128 1088 
L 1779 1088 
L 1779 457 
C 1779 224 1766 160 1318 160 
L 1197 160 
L 1197 0 
C 1402 0 1747 0 1965 0 
C 2182 0 2528 0 2733 0 
L 2733 160 
L 2611 160 
C 2163 160 2150 224 2150 457 
L 2150 1088 
L 2803 1088 
L 2803 1254 
L 2150 1254 
L 2150 4122 
z
M 1798 3703 
L 1798 1254 
L 256 1254 
L 1798 3703 
z
" transform="scale(0.015625)"/>
     </defs>
     <use xlink:href="#CMR17-31" transform="translate(0 39.226102) scale(0.697382)"/>
     <use xlink:href="#CMR17-34" transform="translate(0 -34.355253) scale(0.697382)"/>
     <path d="M 0 22.914133 
L 31.983182 22.914133 
L 31.983182 26.899083 
L 0 26.899083 
L 0 22.914133 
z
"/>
    </g>
   </g>
   <g id="text_7">
    <!-- 18 -->
    <g transform="translate(514.959649 473.117322) scale(0.16 -0.16)">
     <defs>
      <path id="CMSS17-31" d="M 1818 4288 
L 1696 4288 
C 1350 3940 947 3890 538 3890 
L 538 3520 
C 723 3520 1024 3520 1325 3667 
L 1325 369 
L 570 369 
L 570 0 
L 2573 0 
L 2573 369 
L 1818 369 
L 1818 4288 
z
" transform="scale(0.015625)"/>
      <path id="CMSS17-38" d="M 1933 2222 
C 2419 2380 2669 2760 2669 3134 
C 2669 3722 2157 4229 1504 4229 
C 826 4229 333 3708 333 3144 
C 333 2780 576 2403 1069 2241 
C 442 1997 250 1512 250 1149 
C 250 446 819 -128 1498 -128 
C 2202 -128 2752 455 2752 1138 
C 2752 1557 2502 2000 1933 2222 
z
M 1504 2432 
C 1075 2432 787 2712 787 3136 
C 787 3566 1075 3840 1504 3840 
C 1901 3840 2214 3591 2214 3136 
C 2214 2687 1907 2432 1504 2432 
z
M 1504 267 
C 1139 267 749 517 749 1156 
C 749 1813 1184 2043 1498 2043 
C 1843 2043 2253 1800 2253 1156 
C 2253 491 1830 267 1504 267 
z
" transform="scale(0.015625)"/>
     </defs>
     <use xlink:href="#CMSS17-31" transform="scale(0.996264)"/>
     <use xlink:href="#CMSS17-38" transform="translate(46.843624 0) scale(0.996264)"/>
    </g>
   </g>
   <g id="text_8">
    <!-- $\frac{1}{3}$ -->
    <g transform="translate(519.349407 516.949949) scale(0.2 -0.2)">
     <defs>
      <path id="CMR17-33" d="M 1414 2157 
C 1984 2157 2234 1662 2234 1090 
C 2234 320 1824 25 1453 25 
C 1114 25 563 194 390 693 
C 422 680 454 680 486 680 
C 640 680 755 782 755 948 
C 755 1133 614 1216 486 1216 
C 378 1216 211 1165 211 926 
C 211 335 787 -128 1466 -128 
C 2176 -128 2720 430 2720 1085 
C 2720 1707 2208 2157 1600 2227 
C 2086 2328 2554 2756 2554 3329 
C 2554 3820 2048 4179 1472 4179 
C 890 4179 378 3829 378 3329 
C 378 3110 544 3072 627 3072 
C 762 3072 877 3155 877 3321 
C 877 3486 762 3569 627 3569 
C 602 3569 570 3569 544 3557 
C 730 3959 1235 4032 1459 4032 
C 1683 4032 2106 3925 2106 3320 
C 2106 3143 2080 2828 1862 2550 
C 1670 2304 1453 2304 1242 2284 
C 1210 2284 1062 2269 1037 2269 
C 992 2263 966 2257 966 2208 
C 966 2163 973 2157 1101 2157 
L 1414 2157 
z
" transform="scale(0.015625)"/>
     </defs>
     <use xlink:href="#CMR17-31" transform="translate(0 39.226102) scale(0.697382)"/>
     <use xlink:href="#CMR17-33" transform="translate(0 -34.355253) scale(0.697382)"/>
     <path d="M 0 22.914133 
L 31.983182 22.914133 
L 31.983182 26.899083 
L 0 26.899083 
L 0 22.914133 
z
"/>
    </g>
   </g>
   <g id="text_9">
    <!-- 50 -->
    <g transform="translate(546.642545 485.055753) scale(0.06 -0.06)">
     <use xlink:href="#CMSS17-35" transform="scale(0.996264)"/>
     <use xlink:href="#CMSS17-30" transform="translate(46.843624 0) scale(0.996264)"/>
    </g>
   </g>
   <g id="text_10">
    <!-- $\frac{2}{5}$ -->
    <g transform="translate(546.403953 516.949949) scale(0.2 -0.2)">
     <defs>
      <path id="CMR17-32" d="M 2669 989 
L 2554 989 
C 2490 536 2438 459 2413 420 
C 2381 369 1920 369 1830 369 
L 602 369 
C 832 619 1280 1072 1824 1597 
C 2214 1967 2669 2402 2669 3035 
C 2669 3790 2067 4224 1395 4224 
C 691 4224 262 3604 262 3030 
C 262 2780 448 2748 525 2748 
C 589 2748 781 2787 781 3010 
C 781 3207 614 3264 525 3264 
C 486 3264 448 3258 422 3245 
C 544 3790 915 4058 1306 4058 
C 1862 4058 2227 3617 2227 3035 
C 2227 2479 1901 2000 1536 1584 
L 262 146 
L 262 0 
L 2515 0 
L 2669 989 
z
" transform="scale(0.015625)"/>
     </defs>
     <use xlink:href="#CMR17-32" transform="translate(0 39.226102) scale(0.697382)"/>
     <use xlink:href="#CMR17-35" transform="translate(0 -34.355253) scale(0.697382)"/>
     <path d="M 0 22.914133 
L 31.983182 22.914133 
L 31.983182 26.899083 
L 0 26.899083 
L 0 22.914133 
z
"/>
    </g>
   </g>
   <g id="text_11">
    <!-- 8 -->
    <g transform="translate(581.733935 450.164711) scale(0.37 -0.37)">
     <use xlink:href="#CMSS17-38" transform="scale(0.996264)"/>
    </g>
   </g>
   <g id="text_12">
    <!-- $\frac{1}{2}$ -->
    <g transform="translate(586.985771 516.949949) scale(0.2 -0.2)">
     <use xlink:href="#CMR17-31" transform="translate(0 39.226102) scale(0.697382)"/>
     <use xlink:href="#CMR17-32" transform="translate(0 -34.355253) scale(0.697382)"/>
     <path d="M 0 22.914133 
L 31.983182 22.914133 
L 31.983182 26.899083 
L 0 26.899083 
L 0 22.914133 
z
"/>
    </g>
   </g>
   <g id="text_13">
    <!-- 50 -->
    <g transform="translate(627.806181 485.055753) scale(0.06 -0.06)">
     <use xlink:href="#CMSS17-35" transform="scale(0.996264)"/>
     <use xlink:href="#CMSS17-30" transform="translate(46.843624 0) scale(0.996264)"/>
    </g>
   </g>
   <g id="text_14">
    <!-- $\frac{3}{5}$ -->
    <g transform="translate(627.567589 516.949949) scale(0.2 -0.2)">
     <use xlink:href="#CMR17-33" transform="translate(0 39.226102) scale(0.697382)"/>
     <use xlink:href="#CMR17-35" transform="translate(0 -34.355253) scale(0.697382)"/>
     <path d="M 0 22.914133 
L 31.983182 22.914133 
L 31.983182 26.899083 
L 0 26.899083 
L 0 22.914133 
z
"/>
    </g>
   </g>
   <g id="text_15">
    <!-- 18 -->
    <g transform="translate(650.232377 473.117322) scale(0.16 -0.16)">
     <use xlink:href="#CMSS17-31" transform="scale(0.996264)"/>
     <use xlink:href="#CMSS17-38" transform="translate(46.843624 0) scale(0.996264)"/>
    </g>
   </g>
   <g id="text_16">
    <!-- $\frac{2}{3}$ -->
    <g transform="translate(654.622135 516.949949) scale(0.2 -0.2)">
     <use xlink:href="#CMR17-32" transform="translate(0 39.226102) scale(0.697382)"/>
     <use xlink:href="#CMR17-33" transform="translate(0 -34.355253) scale(0.697382)"/>
     <path d="M 0 22.914133 
L 31.983182 22.914133 
L 31.983182 26.899083 
L 0 26.899083 
L 0 22.914133 
z
"/>
    </g>
   </g>
   <g id="text_17">
    <!-- 32 -->
    <g transform="translate(687.246855 481.237496) scale(0.09 -0.09)">
     <use xlink:href="#CMSS17-33" transform="scale(0.996264)"/>
     <use xlink:href="#CMSS17-32" transform="translate(46.843624 0) scale(0.996264)"/>
    </g>
   </g>
   <g id="text_18">
    <!-- $\frac{3}{4}$ -->
    <g transform="translate(688.440316 516.949949) scale(0.2 -0.2)">
     <use xlink:href="#CMR17-33" transform="translate(0 39.226102) scale(0.697382)"/>
     <use xlink:href="#CMR17-34" transform="translate(0 -34.355253) scale(0.697382)"/>
     <path d="M 0 22.914133 
L 31.983182 22.914133 
L 31.983182 26.899083 
L 0 26.899083 
L 0 22.914133 
z
"/>
    </g>
   </g>
   <g id="text_19">
    <!-- 50 -->
    <g transform="translate(708.969817 485.055753) scale(0.06 -0.06)">
     <use xlink:href="#CMSS17-35" transform="scale(0.996264)"/>
     <use xlink:href="#CMSS17-30" transform="translate(46.843624 0) scale(0.996264)"/>
    </g>
   </g>
   <g id="text_20">
    <!-- $\frac{4}{5}$ -->
    <g transform="translate(708.731225 516.949949) scale(0.2 -0.2)">
     <use xlink:href="#CMR17-34" transform="translate(0 39.226102) scale(0.697382)"/>
     <use xlink:href="#CMR17-35" transform="translate(0 -34.355253) scale(0.697382)"/>
     <path d="M 0 22.914133 
L 31.983182 22.914133 
L 31.983182 26.899083 
L 0 26.899083 
L 0 22.914133 
z
"/>
    </g>
   </g>
   <g id="text_21">
    <!-- 2 -->
    <g transform="translate(758.176373 326.123756) scale(1.5 -1.5)">
     <use xlink:href="#CMSS17-32" transform="scale(0.996264)"/>
    </g>
   </g>
   <g id="text_22">
    <!-- $\frac{1}{1}$ -->
    <g transform="translate(789.894862 516.949949) scale(0.2 -0.2)">
     <use xlink:href="#CMR17-31" transform="translate(0 39.226102) scale(0.697382)"/>
     <use xlink:href="#CMR17-31" transform="translate(0 -34.355253) scale(0.697382)"/>
     <path d="M 0 22.914133 
L 31.983182 22.914133 
L 31.983182 26.899083 
L 0 26.899083 
L 0 22.914133 
z
"/>
    </g>
   </g>
   <g id="text_23">
    <!-- 50 -->
    <g transform="translate(871.29709 485.055753) scale(0.06 -0.06)">
     <use xlink:href="#CMSS17-35" transform="scale(0.996264)"/>
     <use xlink:href="#CMSS17-30" transform="translate(46.843624 0) scale(0.996264)"/>
    </g>
   </g>
   <g id="text_24">
    <!-- $\frac{6}{5}$ -->
    <g transform="translate(871.058498 516.949949) scale(0.2 -0.2)">
     <defs>
      <path id="CMR17-36" d="M 678 2176 
C 678 3690 1395 4032 1811 4032 
C 1946 4032 2272 4009 2400 3776 
C 2298 3776 2106 3776 2106 3553 
C 2106 3381 2246 3323 2336 3323 
C 2394 3323 2566 3348 2566 3560 
C 2566 3954 2246 4179 1805 4179 
C 1043 4179 243 3390 243 1984 
C 243 253 966 -128 1478 -128 
C 2099 -128 2688 427 2688 1283 
C 2688 2081 2170 2662 1517 2662 
C 1126 2662 838 2407 678 1960 
L 678 2176 
z
M 1478 25 
C 691 25 691 1200 691 1436 
C 691 1896 909 2560 1504 2560 
C 1613 2560 1926 2560 2138 2120 
C 2253 1870 2253 1609 2253 1289 
C 2253 944 2253 690 2118 434 
C 1978 171 1773 25 1478 25 
z
" transform="scale(0.015625)"/>
     </defs>
     <use xlink:href="#CMR17-36" transform="translate(0 39.226102) scale(0.697382)"/>
     <use xlink:href="#CMR17-35" transform="translate(0 -34.355253) scale(0.697382)"/>
     <path d="M 0 22.914133 
L 31.983182 22.914133 
L 31.983182 26.899083 
L 0 26.899083 
L 0 22.914133 
z
"/>
    </g>
   </g>
   <g id="text_25">
    <!-- 32 -->
    <g transform="translate(890.155946 481.237496) scale(0.09 -0.09)">
     <use xlink:href="#CMSS17-33" transform="scale(0.996264)"/>
     <use xlink:href="#CMSS17-32" transform="translate(46.843624 0) scale(0.996264)"/>
    </g>
   </g>
   <g id="text_26">
    <!-- $\frac{5}{4}$ -->
    <g transform="translate(891.349407 516.949949) scale(0.2 -0.2)">
     <use xlink:href="#CMR17-35" transform="translate(0 39.226102) scale(0.697382)"/>
     <use xlink:href="#CMR17-34" transform="translate(0 -34.355253) scale(0.697382)"/>
     <path d="M 0 22.914133 
L 31.983182 22.914133 
L 31.983182 26.899083 
L 0 26.899083 
L 0 22.914133 
z
"/>
    </g>
   </g>
   <g id="text_27">
    <!-- 18 -->
    <g transform="translate(920.777831 473.117322) scale(0.16 -0.16)">
     <use xlink:href="#CMSS17-31" transform="scale(0.996264)"/>
     <use xlink:href="#CMSS17-38" transform="translate(46.843624 0) scale(0.996264)"/>
    </g>
   </g>
   <g id="text_28">
    <!-- $\frac{4}{3}$ -->
    <g transform="translate(925.167589 516.949949) scale(0.2 -0.2)">
     <use xlink:href="#CMR17-34" transform="translate(0 39.226102) scale(0.697382)"/>
     <use xlink:href="#CMR17-33" transform="translate(0 -34.355253) scale(0.697382)"/>
     <path d="M 0 22.914133 
L 31.983182 22.914133 
L 31.983182 26.899083 
L 0 26.899083 
L 0 22.914133 
z
"/>
    </g>
   </g>
   <g id="text_29">
    <!-- 50 -->
    <g transform="translate(952.460726 485.055753) scale(0.06 -0.06)">
     <use xlink:href="#CMSS17-35" transform="scale(0.996264)"/>
     <use xlink:href="#CMSS17-30" transform="translate(46.843624 0) scale(0.996264)"/>
    </g>
   </g>
   <g id="text_30">
    <!-- $\frac{7}{5}$ -->
    <g transform="translate(952.222135 516.949949) scale(0.2 -0.2)">
     <defs>
      <path id="CMR17-37" d="M 2886 3941 
L 2886 4081 
L 1382 4081 
C 634 4081 621 4165 595 4288 
L 480 4288 
L 294 3094 
L 410 3094 
C 429 3215 474 3540 550 3661 
C 589 3712 1062 3712 1171 3712 
L 2579 3712 
L 1869 2661 
C 1395 1954 1069 999 1069 165 
C 1069 89 1069 -128 1299 -128 
C 1530 -128 1530 89 1530 171 
L 1530 465 
C 1530 1508 1709 2196 2003 2636 
L 2886 3941 
z
" transform="scale(0.015625)"/>
     </defs>
     <use xlink:href="#CMR17-37" transform="translate(0 39.226102) scale(0.697382)"/>
     <use xlink:href="#CMR17-35" transform="translate(0 -34.355253) scale(0.697382)"/>
     <path d="M 0 22.914133 
L 31.983182 22.914133 
L 31.983182 26.899083 
L 0 26.899083 
L 0 22.914133 
z
"/>
    </g>
   </g>
   <g id="text_31">
    <!-- 50 -->
    <g transform="translate(221.987999 485.055753) scale(0.06 -0.06)">
     <use xlink:href="#CMSS17-35" transform="scale(0.996264)"/>
     <use xlink:href="#CMSS17-30" transform="translate(46.843624 0) scale(0.996264)"/>
    </g>
   </g>
   <g id="text_32">
    <!-- $-\frac{2}{5}$ -->
    <g transform="translate(206.098179 516.949949) scale(0.2 -0.2)">
     <defs>
      <path id="CMSY10-0" d="M 4218 1472 
C 4326 1472 4442 1472 4442 1600 
C 4442 1728 4326 1728 4218 1728 
L 755 1728 
C 646 1728 531 1728 531 1600 
C 531 1472 646 1472 755 1472 
L 4218 1472 
z
" transform="scale(0.015625)"/>
     </defs>
     <use xlink:href="#CMSY10-0" transform="scale(0.996264)"/>
     <use xlink:href="#CMR17-32" transform="translate(78.682981 39.226102) scale(0.697382)"/>
     <use xlink:href="#CMR17-35" transform="translate(78.682981 -34.355253) scale(0.697382)"/>
     <path d="M 78.682981 22.914133 
L 110.666163 22.914133 
L 110.666163 26.899083 
L 78.682981 26.899083 
L 78.682981 22.914133 
z
"/>
    </g>
   </g>
   <g id="text_33">
    <!-- 18 -->
    <g transform="translate(244.414195 473.117322) scale(0.16 -0.16)">
     <use xlink:href="#CMSS17-31" transform="scale(0.996264)"/>
     <use xlink:href="#CMSS17-38" transform="translate(46.843624 0) scale(0.996264)"/>
    </g>
   </g>
   <g id="text_34">
    <!-- $-\frac{1}{3}$ -->
    <g transform="translate(233.152725 516.949949) scale(0.2 -0.2)">
     <use xlink:href="#CMSY10-0" transform="scale(0.996264)"/>
     <use xlink:href="#CMR17-31" transform="translate(78.682981 39.226102) scale(0.697382)"/>
     <use xlink:href="#CMR17-33" transform="translate(78.682981 -34.355253) scale(0.697382)"/>
     <path d="M 78.682981 22.914133 
L 110.666163 22.914133 
L 110.666163 26.899083 
L 78.682981 26.899083 
L 78.682981 22.914133 
z
"/>
    </g>
   </g>
   <g id="text_35">
    <!-- 32 -->
    <g transform="translate(281.428673 481.237496) scale(0.09 -0.09)">
     <use xlink:href="#CMSS17-33" transform="scale(0.996264)"/>
     <use xlink:href="#CMSS17-32" transform="translate(46.843624 0) scale(0.996264)"/>
    </g>
   </g>
   <g id="text_36">
    <!-- $-\frac{1}{4}$ -->
    <g transform="translate(266.970907 516.949949) scale(0.2 -0.2)">
     <use xlink:href="#CMSY10-0" transform="scale(0.996264)"/>
     <use xlink:href="#CMR17-31" transform="translate(78.682981 39.226102) scale(0.697382)"/>
     <use xlink:href="#CMR17-34" transform="translate(78.682981 -34.355253) scale(0.697382)"/>
     <path d="M 78.682981 22.914133 
L 110.666163 22.914133 
L 110.666163 26.899083 
L 78.682981 26.899083 
L 78.682981 22.914133 
z
"/>
    </g>
   </g>
   <g id="text_37">
    <!-- 50 -->
    <g transform="translate(303.151636 485.055753) scale(0.06 -0.06)">
     <use xlink:href="#CMSS17-35" transform="scale(0.996264)"/>
     <use xlink:href="#CMSS17-30" transform="translate(46.843624 0) scale(0.996264)"/>
    </g>
   </g>
   <g id="text_38">
    <!-- $-\frac{1}{5}$ -->
    <g transform="translate(287.261816 516.949949) scale(0.2 -0.2)">
     <use xlink:href="#CMSY10-0" transform="scale(0.996264)"/>
     <use xlink:href="#CMR17-31" transform="translate(78.682981 39.226102) scale(0.697382)"/>
     <use xlink:href="#CMR17-35" transform="translate(78.682981 -34.355253) scale(0.697382)"/>
     <path d="M 78.682981 22.914133 
L 110.666163 22.914133 
L 110.666163 26.899083 
L 78.682981 26.899083 
L 78.682981 22.914133 
z
"/>
    </g>
   </g>
  </g>
 </g>
 <defs>
  <clipPath id="p9040e9e0b2">
   <rect x="144" y="69.12" width="892.8" height="443.52"/>
  </clipPath>
 </defs>
</svg>
