<?xml version="1.0" encoding="utf-8" standalone="no"?>
<!DOCTYPE svg PUBLIC "-//W3C//DTD SVG 1.1//EN"
  "http://www.w3.org/Graphics/SVG/1.1/DTD/svg11.dtd">
<svg xmlns:xlink="http://www.w3.org/1999/xlink" width="1152pt" height="576pt" viewBox="0 0 1152 576" xmlns="http://www.w3.org/2000/svg" version="1.1">
 <metadata>
  <rdf:RDF xmlns:dc="http://purl.org/dc/elements/1.1/" xmlns:cc="http://creativecommons.org/ns#" xmlns:rdf="http://www.w3.org/1999/02/22-rdf-syntax-ns#">
   <cc:Work>
    <dc:type rdf:resource="http://purl.org/dc/dcmitype/StillImage"/>
    <dc:date>2025-06-06T15:55:30.685432</dc:date>
    <dc:format>image/svg+xml</dc:format>
    <dc:creator>
     <cc:Agent>
      <dc:title>Matplotlib v3.8.2, https://matplotlib.org/</dc:title>
     </cc:Agent>
    </dc:creator>
   </cc:Work>
  </rdf:RDF>
 </metadata>
 <defs>
  <style type="text/css">*{stroke-linejoin: round; stroke-linecap: butt}</style>
 </defs>
 <g id="figure_1">
  <g id="patch_1">
   <path d="M 0 576 
L 1152 576 
L 1152 0 
L 0 0 
z
" style="fill: #ffffff"/>
  </g>
  <g id="axes_1">
   <g id="line2d_1">
    <path d="M 590.4 288.768629 
L 587.772381 256.219722 
L 579.957576 224.513815 
L 567.157986 194.472073 
L 549.705113 166.872563 
L 528.050978 142.430096 
L 502.75641 121.777721 
L 474.476527 105.450323 
L 443.943762 93.870772 
L 411.948897 87.338974 
L 379.320584 86.024098 
L 346.903877 89.960199 
L 315.538354 99.045333 
L 286.036364 113.044202 
L 259.161993 131.594241 
L 235.611274 154.215014 
L 215.994157 180.320654 
L 200.818717 209.235041 
L 190.477988 240.209305 
L 185.23979 272.441231 
L 185.23979 305.096028 
L 190.477988 337.327953 
L 200.818717 368.302218 
L 215.994157 397.216604 
L 235.611274 423.322245 
L 259.161993 445.943018 
L 286.036364 464.493057 
L 315.538354 478.491925 
L 346.903877 487.57706 
L 379.320584 491.513161 
L 411.948897 490.198284 
L 443.943762 483.666486 
L 474.476527 472.086936 
L 502.75641 455.759537 
L 528.050978 435.107162 
L 549.705113 410.664696 
L 567.157986 383.065186 
L 579.957576 353.023444 
L 587.772381 321.317536 
L 590.4 288.768629 
" clip-path="url(#p186014b818)" style="fill: none; stroke: #000000; stroke-width: 1.5; stroke-linecap: square"/>
   </g>
   <g id="line2d_2">
    <path d="M 476.770909 483.561357 
L 476.665804 482.2594 
L 476.353212 480.991164 
L 475.841229 479.789494 
L 475.143114 478.685514 
L 474.276948 477.707815 
L 473.265166 476.88172 
L 472.13397 476.228624 
L 470.91266 475.765442 
L 469.632865 475.50417 
L 468.327732 475.451575 
L 467.031064 475.609019 
L 465.776443 475.972425 
L 464.596364 476.532379 
L 463.521389 477.274381 
L 462.57936 478.179212 
L 461.794675 479.223438 
L 461.187658 480.380013 
L 460.774029 481.618984 
L 460.564501 482.908261 
L 460.564501 484.214452 
L 460.774029 485.503729 
L 461.187658 486.7427 
L 461.794675 487.899276 
L 462.57936 488.943501 
L 463.521389 489.848332 
L 464.596364 490.590334 
L 465.776443 491.150288 
L 467.031064 491.513694 
L 468.327732 491.671138 
L 469.632865 491.618543 
L 470.91266 491.357271 
L 472.13397 490.894089 
L 473.265166 490.240993 
L 474.276948 489.414898 
L 475.143114 488.437199 
L 475.841229 487.333219 
L 476.353212 486.131549 
L 476.665804 484.863313 
L 476.770909 483.561357 
" clip-path="url(#p186014b818)" style="fill: none; stroke: #000000; stroke-width: 1.5; stroke-linecap: square"/>
   </g>
   <g id="line2d_3">
    <path d="M 501.627273 478.995902 
L 501.463047 476.961595 
L 500.974621 474.979976 
L 500.174647 473.102367 
L 499.083842 471.377398 
L 497.730459 469.849744 
L 496.149548 468.55897 
L 494.382056 467.538508 
L 492.473758 466.814786 
L 490.474079 466.406549 
L 488.434809 466.324369 
L 486.408765 466.570375 
L 484.44842 467.138196 
L 482.604545 468.013125 
L 480.924897 469.172503 
L 479.452977 470.586301 
L 478.226908 472.217904 
L 477.278443 474.025053 
L 476.632147 475.960944 
L 476.30476 477.97544 
L 476.30476 480.016364 
L 476.632147 482.03086 
L 477.278443 483.966751 
L 478.226908 485.7739 
L 479.452977 487.405503 
L 480.924897 488.819301 
L 482.604545 489.978679 
L 484.44842 490.853608 
L 486.408765 491.421429 
L 488.434809 491.667435 
L 490.474079 491.585255 
L 492.473758 491.177018 
L 494.382056 490.453296 
L 496.149548 489.432834 
L 497.730459 488.14206 
L 499.083842 486.614406 
L 500.174647 484.889437 
L 500.974621 483.011828 
L 501.463047 481.030209 
L 501.627273 478.995902 
" clip-path="url(#p186014b818)" style="fill: none; stroke: #000000; stroke-width: 1.5; stroke-linecap: square"/>
   </g>
   <g id="line2d_4">
    <path d="M 507.579963 487.536718 
L 507.526338 486.872455 
L 507.366852 486.225396 
L 507.105636 485.612299 
L 506.749455 485.049043 
L 506.307534 484.550218 
L 505.791318 484.128741 
L 505.214178 483.795528 
L 504.59106 483.559211 
L 503.938104 483.425909 
L 503.27222 483.399075 
L 502.610654 483.479403 
L 501.970542 483.664814 
L 501.36846 483.950506 
L 500.820004 484.329078 
L 500.339377 484.790726 
L 499.939027 485.323494 
L 499.629324 485.913584 
L 499.418289 486.545712 
L 499.311387 487.203506 
L 499.311387 487.869931 
L 499.418289 488.527725 
L 499.629324 489.159853 
L 499.939027 489.749942 
L 500.339377 490.28271 
L 500.820004 490.744359 
L 501.36846 491.122931 
L 501.970542 491.408622 
L 502.610654 491.594033 
L 503.27222 491.674362 
L 503.938104 491.647528 
L 504.59106 491.514226 
L 505.214178 491.277908 
L 505.791318 490.944696 
L 506.307534 490.523219 
L 506.749455 490.024393 
L 507.105636 489.461138 
L 507.366852 488.848041 
L 507.526338 488.200982 
L 507.579963 487.536718 
" clip-path="url(#p186014b818)" style="fill: none; stroke: #000000; stroke-width: 1.5; stroke-linecap: square"/>
   </g>
   <g id="line2d_5">
    <path d="M 545.309091 469.132266 
L 545.017133 465.51572 
L 544.148822 461.992842 
L 542.726645 458.65487 
L 540.787437 455.588258 
L 538.381422 452.872429 
L 535.570914 450.57772 
L 532.428705 448.763565 
L 529.036176 447.476948 
L 525.481191 446.751193 
L 521.855822 446.605095 
L 518.253966 447.04244 
L 514.768908 448.051899 
L 511.490909 449.607329 
L 508.504868 451.668445 
L 505.888121 454.181864 
L 503.708442 457.082491 
L 502.022282 460.2952 
L 500.873312 463.736785 
L 500.29129 467.31811 
L 500.29129 470.946421 
L 500.873312 474.527746 
L 502.022282 477.969331 
L 503.708442 481.182041 
L 505.888121 484.082667 
L 508.504868 486.596087 
L 511.490909 488.657202 
L 514.768908 490.212632 
L 518.253966 491.222091 
L 521.855822 491.659436 
L 525.481191 491.513338 
L 529.036176 490.787583 
L 532.428705 489.500966 
L 535.570914 487.686811 
L 538.381422 485.392103 
L 540.787437 482.676273 
L 542.726645 479.609661 
L 544.148822 476.271689 
L 545.017133 472.748811 
L 545.309091 469.132266 
" clip-path="url(#p186014b818)" style="fill: none; stroke: #000000; stroke-width: 1.5; stroke-linecap: square"/>
   </g>
   <g id="line2d_6">
    <path d="M 542.843182 488.507266 
L 542.802125 487.998689 
L 542.680019 487.503284 
L 542.480025 487.033882 
L 542.207324 486.60264 
L 541.868978 486.220726 
L 541.473751 485.898033 
L 541.031878 485.642917 
L 540.554803 485.461987 
L 540.054883 485.359927 
L 539.545066 485.339382 
L 539.038555 485.400884 
L 538.548469 485.542839 
L 538.0875 485.761571 
L 537.667588 486.051416 
L 537.299608 486.404865 
L 536.993091 486.812766 
L 536.755974 487.264553 
L 536.5944 487.748526 
L 536.512554 488.25215 
L 536.512554 488.762381 
L 536.5944 489.266005 
L 536.755974 489.749978 
L 536.993091 490.201765 
L 537.299608 490.609666 
L 537.667588 490.963115 
L 538.0875 491.25296 
L 538.548469 491.471692 
L 539.038555 491.613647 
L 539.545066 491.675149 
L 540.054883 491.654604 
L 540.554803 491.552545 
L 541.031878 491.371614 
L 541.473751 491.116499 
L 541.868978 490.793805 
L 542.207324 490.411892 
L 542.480025 489.980649 
L 542.680019 489.511247 
L 542.802125 489.015842 
L 542.843182 488.507266 
" clip-path="url(#p186014b818)" style="fill: none; stroke: #000000; stroke-width: 1.5; stroke-linecap: square"/>
   </g>
   <g id="line2d_7">
    <path d="M 557.934545 483.561357 
L 557.829441 482.2594 
L 557.516849 480.991164 
L 557.004865 479.789494 
L 556.30675 478.685514 
L 555.440585 477.707815 
L 554.428802 476.88172 
L 553.297607 476.228624 
L 552.076296 475.765442 
L 550.796501 475.50417 
L 549.491369 475.451575 
L 548.194701 475.609019 
L 546.94008 475.972425 
L 545.76 476.532379 
L 544.685025 477.274381 
L 543.742996 478.179212 
L 542.958312 479.223438 
L 542.351294 480.380013 
L 541.937665 481.618984 
L 541.728137 482.908261 
L 541.728137 484.214452 
L 541.937665 485.503729 
L 542.351294 486.7427 
L 542.958312 487.899276 
L 543.742996 488.943501 
L 544.685025 489.848332 
L 545.76 490.590334 
L 546.94008 491.150288 
L 548.194701 491.513694 
L 549.491369 491.671138 
L 550.796501 491.618543 
L 552.076296 491.357271 
L 553.297607 490.894089 
L 554.428802 490.240993 
L 555.440585 489.414898 
L 556.30675 488.437199 
L 557.004865 487.333219 
L 557.516849 486.131549 
L 557.829441 484.863313 
L 557.934545 483.561357 
" clip-path="url(#p186014b818)" style="fill: none; stroke: #000000; stroke-width: 1.5; stroke-linecap: square"/>
   </g>
   <g id="line2d_8">
    <path d="M 565.553989 487.536718 
L 565.500364 486.872455 
L 565.340878 486.225396 
L 565.079662 485.612299 
L 564.723481 485.049043 
L 564.28156 484.550218 
L 563.765344 484.128741 
L 563.188204 483.795528 
L 562.565086 483.559211 
L 561.91213 483.425909 
L 561.246246 483.399075 
L 560.58468 483.479403 
L 559.944568 483.664814 
L 559.342486 483.950506 
L 558.79403 484.329078 
L 558.313403 484.790726 
L 557.913053 485.323494 
L 557.60335 485.913584 
L 557.392315 486.545712 
L 557.285413 487.203506 
L 557.285413 487.869931 
L 557.392315 488.527725 
L 557.60335 489.159853 
L 557.913053 489.749942 
L 558.313403 490.28271 
L 558.79403 490.744359 
L 559.342486 491.122931 
L 559.944568 491.408622 
L 560.58468 491.594033 
L 561.246246 491.674362 
L 561.91213 491.647528 
L 562.565086 491.514226 
L 563.188204 491.277908 
L 563.765344 490.944696 
L 564.28156 490.523219 
L 564.723481 490.024393 
L 565.079662 489.461138 
L 565.340878 488.848041 
L 565.500364 488.200982 
L 565.553989 487.536718 
" clip-path="url(#p186014b818)" style="fill: none; stroke: #000000; stroke-width: 1.5; stroke-linecap: square"/>
   </g>
   <g id="line2d_9">
    <path d="M 641.127273 440.950447 
L 640.470368 432.813221 
L 638.516667 424.886744 
L 635.316769 417.376308 
L 630.953551 410.476431 
L 625.540017 404.365814 
L 619.216375 399.20272 
L 612.146404 395.120871 
L 604.513213 392.225983 
L 596.514497 390.593034 
L 588.357419 390.264315 
L 580.253242 391.24834 
L 572.411861 393.519624 
L 565.036364 397.019341 
L 558.317771 401.65685 
L 552.430091 407.312044 
L 547.525812 413.838454 
L 543.731952 421.06705 
L 541.14677 428.810616 
L 539.83722 436.868598 
L 539.83722 445.032297 
L 541.14677 453.090278 
L 543.731952 460.833845 
L 547.525812 468.062441 
L 552.430091 474.588851 
L 558.317771 480.244045 
L 565.036364 484.881554 
L 572.411861 488.381271 
L 580.253242 490.652555 
L 588.357419 491.63658 
L 596.514497 491.307861 
L 604.513213 489.674912 
L 612.146404 486.780024 
L 619.216375 482.698174 
L 625.540017 477.535081 
L 630.953551 471.424464 
L 635.316769 464.524587 
L 638.516667 457.014151 
L 640.470368 449.087674 
L 641.127273 440.950447 
" clip-path="url(#p186014b818)" style="fill: none; stroke: #000000; stroke-width: 1.5; stroke-linecap: square"/>
   </g>
   <g id="line2d_10">
    <path d="M 623.528015 487.536718 
L 623.47439 486.872455 
L 623.314904 486.225396 
L 623.053688 485.612299 
L 622.697507 485.049043 
L 622.255586 484.550218 
L 621.73937 484.128741 
L 621.16223 483.795528 
L 620.539112 483.559211 
L 619.886156 483.425909 
L 619.220272 483.399075 
L 618.558706 483.479403 
L 617.918593 483.664814 
L 617.316512 483.950506 
L 616.768056 484.329078 
L 616.287429 484.790726 
L 615.887079 485.323494 
L 615.577376 485.913584 
L 615.366341 486.545712 
L 615.259439 487.203506 
L 615.259439 487.869931 
L 615.366341 488.527725 
L 615.577376 489.159853 
L 615.887079 489.749942 
L 616.287429 490.28271 
L 616.768056 490.744359 
L 617.316512 491.122931 
L 617.918593 491.408622 
L 618.558706 491.594033 
L 619.220272 491.674362 
L 619.886156 491.647528 
L 620.539112 491.514226 
L 621.16223 491.277908 
L 621.73937 490.944696 
L 622.255586 490.523219 
L 622.697507 490.024393 
L 623.053688 489.461138 
L 623.314904 488.848041 
L 623.47439 488.200982 
L 623.528015 487.536718 
" clip-path="url(#p186014b818)" style="fill: none; stroke: #000000; stroke-width: 1.5; stroke-linecap: square"/>
   </g>
   <g id="line2d_11">
    <path d="M 639.098182 483.561357 
L 638.993077 482.2594 
L 638.680485 480.991164 
L 638.168501 479.789494 
L 637.470386 478.685514 
L 636.604221 477.707815 
L 635.592438 476.88172 
L 634.461243 476.228624 
L 633.239932 475.765442 
L 631.960138 475.50417 
L 630.655005 475.451575 
L 629.358337 475.609019 
L 628.103716 475.972425 
L 626.923636 476.532379 
L 625.848662 477.274381 
L 624.906633 478.179212 
L 624.121948 479.223438 
L 623.51493 480.380013 
L 623.101301 481.618984 
L 622.891773 482.908261 
L 622.891773 484.214452 
L 623.101301 485.503729 
L 623.51493 486.7427 
L 624.121948 487.899276 
L 624.906633 488.943501 
L 625.848662 489.848332 
L 626.923636 490.590334 
L 628.103716 491.150288 
L 629.358337 491.513694 
L 630.655005 491.671138 
L 631.960138 491.618543 
L 633.239932 491.357271 
L 634.461243 490.894089 
L 635.592438 490.240993 
L 636.604221 489.414898 
L 637.470386 488.437199 
L 638.168501 487.333219 
L 638.680485 486.131549 
L 638.993077 484.863313 
L 639.098182 483.561357 
" clip-path="url(#p186014b818)" style="fill: none; stroke: #000000; stroke-width: 1.5; stroke-linecap: square"/>
   </g>
   <g id="line2d_12">
    <path d="M 644.297727 488.507266 
L 644.256671 487.998689 
L 644.134564 487.503284 
L 643.934571 487.033882 
L 643.66187 486.60264 
L 643.323524 486.220726 
L 642.928296 485.898033 
L 642.486423 485.642917 
L 642.009349 485.461987 
L 641.509429 485.359927 
L 640.999611 485.339382 
L 640.4931 485.400884 
L 640.003014 485.542839 
L 639.542045 485.761571 
L 639.122133 486.051416 
L 638.754153 486.404865 
L 638.447636 486.812766 
L 638.21052 487.264553 
L 638.048946 487.748526 
L 637.967099 488.25215 
L 637.967099 488.762381 
L 638.048946 489.266005 
L 638.21052 489.749978 
L 638.447636 490.201765 
L 638.754153 490.609666 
L 639.122133 490.963115 
L 639.542045 491.25296 
L 640.003014 491.471692 
L 640.4931 491.613647 
L 640.999611 491.675149 
L 641.509429 491.654604 
L 642.009349 491.552545 
L 642.486423 491.371614 
L 642.928296 491.116499 
L 643.323524 490.793805 
L 643.66187 490.411892 
L 643.934571 489.980649 
L 644.134564 489.511247 
L 644.256671 489.015842 
L 644.297727 488.507266 
" clip-path="url(#p186014b818)" style="fill: none; stroke: #000000; stroke-width: 1.5; stroke-linecap: square"/>
   </g>
   <g id="line2d_13">
    <path d="M 680.581818 469.132266 
L 680.28986 465.51572 
L 679.421549 461.992842 
L 677.999372 458.65487 
L 676.060164 455.588258 
L 673.654149 452.872429 
L 670.843642 450.57772 
L 667.701432 448.763565 
L 664.308903 447.476948 
L 660.753918 446.751193 
L 657.12855 446.605095 
L 653.526693 447.04244 
L 650.041635 448.051899 
L 646.763636 449.607329 
L 643.777595 451.668445 
L 641.160849 454.181864 
L 638.981169 457.082491 
L 637.295009 460.2952 
L 636.146039 463.736785 
L 635.564017 467.31811 
L 635.564017 470.946421 
L 636.146039 474.527746 
L 637.295009 477.969331 
L 638.981169 481.182041 
L 641.160849 484.082667 
L 643.777595 486.596087 
L 646.763636 488.657202 
L 650.041635 490.212632 
L 653.526693 491.222091 
L 657.12855 491.659436 
L 660.753918 491.513338 
L 664.308903 490.787583 
L 667.701432 489.500966 
L 670.843642 487.686811 
L 673.654149 485.392103 
L 676.060164 482.676273 
L 677.999372 479.609661 
L 679.421549 476.271689 
L 680.28986 472.748811 
L 680.581818 469.132266 
" clip-path="url(#p186014b818)" style="fill: none; stroke: #000000; stroke-width: 1.5; stroke-linecap: square"/>
   </g>
   <g id="line2d_14">
    <path d="M 681.502041 487.536718 
L 681.448416 486.872455 
L 681.28893 486.225396 
L 681.027714 485.612299 
L 680.671533 485.049043 
L 680.229612 484.550218 
L 679.713396 484.128741 
L 679.136256 483.795528 
L 678.513138 483.559211 
L 677.860182 483.425909 
L 677.194298 483.399075 
L 676.532732 483.479403 
L 675.892619 483.664814 
L 675.290538 483.950506 
L 674.742081 484.329078 
L 674.261455 484.790726 
L 673.861105 485.323494 
L 673.551402 485.913584 
L 673.340367 486.545712 
L 673.233465 487.203506 
L 673.233465 487.869931 
L 673.340367 488.527725 
L 673.551402 489.159853 
L 673.861105 489.749942 
L 674.261455 490.28271 
L 674.742081 490.744359 
L 675.290538 491.122931 
L 675.892619 491.408622 
L 676.532732 491.594033 
L 677.194298 491.674362 
L 677.860182 491.647528 
L 678.513138 491.514226 
L 679.136256 491.277908 
L 679.713396 490.944696 
L 680.229612 490.523219 
L 680.671533 490.024393 
L 681.027714 489.461138 
L 681.28893 488.848041 
L 681.448416 488.200982 
L 681.502041 487.536718 
" clip-path="url(#p186014b818)" style="fill: none; stroke: #000000; stroke-width: 1.5; stroke-linecap: square"/>
   </g>
   <g id="line2d_15">
    <path d="M 704.536364 478.995902 
L 704.372137 476.961595 
L 703.883712 474.979976 
L 703.083738 473.102367 
L 701.992933 471.377398 
L 700.63955 469.849744 
L 699.058639 468.55897 
L 697.291147 467.538508 
L 695.382849 466.814786 
L 693.38317 466.406549 
L 691.3439 466.324369 
L 689.317856 466.570375 
L 687.357511 467.138196 
L 685.513636 468.013125 
L 683.833988 469.172503 
L 682.362068 470.586301 
L 681.135998 472.217904 
L 680.187533 474.025053 
L 679.541238 475.960944 
L 679.213851 477.97544 
L 679.213851 480.016364 
L 679.541238 482.03086 
L 680.187533 483.966751 
L 681.135998 485.7739 
L 682.362068 487.405503 
L 683.833988 488.819301 
L 685.513636 489.978679 
L 687.357511 490.853608 
L 689.317856 491.421429 
L 691.3439 491.667435 
L 693.38317 491.585255 
L 695.382849 491.177018 
L 697.291147 490.453296 
L 699.058639 489.432834 
L 700.63955 488.14206 
L 701.992933 486.614406 
L 703.083738 484.889437 
L 703.883712 483.011828 
L 704.372137 481.030209 
L 704.536364 478.995902 
" clip-path="url(#p186014b818)" style="fill: none; stroke: #000000; stroke-width: 1.5; stroke-linecap: square"/>
   </g>
   <g id="line2d_16">
    <path d="M 720.261818 483.561357 
L 720.156713 482.2594 
L 719.844121 480.991164 
L 719.332138 479.789494 
L 718.634023 478.685514 
L 717.767857 477.707815 
L 716.756075 476.88172 
L 715.624879 476.228624 
L 714.403569 475.765442 
L 713.123774 475.50417 
L 711.818642 475.451575 
L 710.521973 475.609019 
L 709.267352 475.972425 
L 708.087273 476.532379 
L 707.012298 477.274381 
L 706.070269 478.179212 
L 705.285584 479.223438 
L 704.678567 480.380013 
L 704.264938 481.618984 
L 704.05541 482.908261 
L 704.05541 484.214452 
L 704.264938 485.503729 
L 704.678567 486.7427 
L 705.285584 487.899276 
L 706.070269 488.943501 
L 707.012298 489.848332 
L 708.087273 490.590334 
L 709.267352 491.150288 
L 710.521973 491.513694 
L 711.818642 491.671138 
L 713.123774 491.618543 
L 714.403569 491.357271 
L 715.624879 490.894089 
L 716.756075 490.240993 
L 717.767857 489.414898 
L 718.634023 488.437199 
L 719.332138 487.333219 
L 719.844121 486.131549 
L 720.156713 484.863313 
L 720.261818 483.561357 
" clip-path="url(#p186014b818)" style="fill: none; stroke: #000000; stroke-width: 1.5; stroke-linecap: square"/>
   </g>
   <g id="line2d_17">
    <path d="M 996.218182 288.768629 
L 993.590562 256.219722 
L 985.775758 224.513815 
L 972.976168 194.472073 
L 955.523295 166.872563 
L 933.86916 142.430096 
L 908.574592 121.777721 
L 880.294709 105.450323 
L 849.761944 93.870772 
L 817.767079 87.338974 
L 785.138766 86.024098 
L 752.722059 89.960199 
L 721.356536 99.045333 
L 691.854545 113.044202 
L 664.980175 131.594241 
L 641.429455 154.215014 
L 621.812339 180.320654 
L 606.636898 209.235041 
L 596.296169 240.209305 
L 591.057972 272.441231 
L 591.057972 305.096028 
L 596.296169 337.327953 
L 606.636898 368.302218 
L 621.812339 397.216604 
L 641.429455 423.322245 
L 664.980175 445.943018 
L 691.854545 464.493057 
L 721.356536 478.491925 
L 752.722059 487.57706 
L 785.138766 491.513161 
L 817.767079 490.198284 
L 849.761944 483.666486 
L 880.294709 472.086936 
L 908.574592 455.759537 
L 933.86916 435.107162 
L 955.523295 410.664696 
L 972.976168 383.065186 
L 985.775758 353.023444 
L 993.590562 321.317536 
L 996.218182 288.768629 
" clip-path="url(#p186014b818)" style="fill: none; stroke: #000000; stroke-width: 1.5; stroke-linecap: square"/>
   </g>
   <g id="line2d_18">
    <path d="M 882.589091 483.561357 
L 882.483986 482.2594 
L 882.171394 480.991164 
L 881.65941 479.789494 
L 880.961295 478.685514 
L 880.09513 477.707815 
L 879.083347 476.88172 
L 877.952152 476.228624 
L 876.730841 475.765442 
L 875.451047 475.50417 
L 874.145914 475.451575 
L 872.849246 475.609019 
L 871.594625 475.972425 
L 870.414545 476.532379 
L 869.339571 477.274381 
L 868.397542 478.179212 
L 867.612857 479.223438 
L 867.00584 480.380013 
L 866.59221 481.618984 
L 866.382683 482.908261 
L 866.382683 484.214452 
L 866.59221 485.503729 
L 867.00584 486.7427 
L 867.612857 487.899276 
L 868.397542 488.943501 
L 869.339571 489.848332 
L 870.414545 490.590334 
L 871.594625 491.150288 
L 872.849246 491.513694 
L 874.145914 491.671138 
L 875.451047 491.618543 
L 876.730841 491.357271 
L 877.952152 490.894089 
L 879.083347 490.240993 
L 880.09513 489.414898 
L 880.961295 488.437199 
L 881.65941 487.333219 
L 882.171394 486.131549 
L 882.483986 484.863313 
L 882.589091 483.561357 
" clip-path="url(#p186014b818)" style="fill: none; stroke: #000000; stroke-width: 1.5; stroke-linecap: square"/>
   </g>
   <g id="line2d_19">
    <path d="M 907.445455 478.995902 
L 907.281228 476.961595 
L 906.792803 474.979976 
L 905.992829 473.102367 
L 904.902024 471.377398 
L 903.548641 469.849744 
L 901.96773 468.55897 
L 900.200237 467.538508 
L 898.29194 466.814786 
L 896.292261 466.406549 
L 894.252991 466.324369 
L 892.226947 466.570375 
L 890.266602 467.138196 
L 888.422727 468.013125 
L 886.743079 469.172503 
L 885.271159 470.586301 
L 884.045089 472.217904 
L 883.096624 474.025053 
L 882.450329 475.960944 
L 882.122941 477.97544 
L 882.122941 480.016364 
L 882.450329 482.03086 
L 883.096624 483.966751 
L 884.045089 485.7739 
L 885.271159 487.405503 
L 886.743079 488.819301 
L 888.422727 489.978679 
L 890.266602 490.853608 
L 892.226947 491.421429 
L 894.252991 491.667435 
L 896.292261 491.585255 
L 898.29194 491.177018 
L 900.200237 490.453296 
L 901.96773 489.432834 
L 903.548641 488.14206 
L 904.902024 486.614406 
L 905.992829 484.889437 
L 906.792803 483.011828 
L 907.281228 481.030209 
L 907.445455 478.995902 
" clip-path="url(#p186014b818)" style="fill: none; stroke: #000000; stroke-width: 1.5; stroke-linecap: square"/>
   </g>
   <g id="line2d_20">
    <path d="M 913.398145 487.536718 
L 913.34452 486.872455 
L 913.185034 486.225396 
L 912.923818 485.612299 
L 912.567637 485.049043 
L 912.125716 484.550218 
L 911.6095 484.128741 
L 911.03236 483.795528 
L 910.409242 483.559211 
L 909.756285 483.425909 
L 909.090402 483.399075 
L 908.428836 483.479403 
L 907.788723 483.664814 
L 907.186642 483.950506 
L 906.638185 484.329078 
L 906.157558 484.790726 
L 905.757209 485.323494 
L 905.447506 485.913584 
L 905.236471 486.545712 
L 905.129569 487.203506 
L 905.129569 487.869931 
L 905.236471 488.527725 
L 905.447506 489.159853 
L 905.757209 489.749942 
L 906.157558 490.28271 
L 906.638185 490.744359 
L 907.186642 491.122931 
L 907.788723 491.408622 
L 908.428836 491.594033 
L 909.090402 491.674362 
L 909.756285 491.647528 
L 910.409242 491.514226 
L 911.03236 491.277908 
L 911.6095 490.944696 
L 912.125716 490.523219 
L 912.567637 490.024393 
L 912.923818 489.461138 
L 913.185034 488.848041 
L 913.34452 488.200982 
L 913.398145 487.536718 
" clip-path="url(#p186014b818)" style="fill: none; stroke: #000000; stroke-width: 1.5; stroke-linecap: square"/>
   </g>
   <g id="line2d_21">
    <path d="M 951.127273 469.132266 
L 950.835315 465.51572 
L 949.967003 461.992842 
L 948.544827 458.65487 
L 946.605619 455.588258 
L 944.199604 452.872429 
L 941.389096 450.57772 
L 938.246887 448.763565 
L 934.854357 447.476948 
L 931.299372 446.751193 
L 927.674004 446.605095 
L 924.072148 447.04244 
L 920.58709 448.051899 
L 917.309091 449.607329 
L 914.32305 451.668445 
L 911.706303 454.181864 
L 909.526624 457.082491 
L 907.840463 460.2952 
L 906.691494 463.736785 
L 906.109472 467.31811 
L 906.109472 470.946421 
L 906.691494 474.527746 
L 907.840463 477.969331 
L 909.526624 481.182041 
L 911.706303 484.082667 
L 914.32305 486.596087 
L 917.309091 488.657202 
L 920.58709 490.212632 
L 924.072148 491.222091 
L 927.674004 491.659436 
L 931.299372 491.513338 
L 934.854357 490.787583 
L 938.246887 489.500966 
L 941.389096 487.686811 
L 944.199604 485.392103 
L 946.605619 482.676273 
L 948.544827 479.609661 
L 949.967003 476.271689 
L 950.835315 472.748811 
L 951.127273 469.132266 
" clip-path="url(#p186014b818)" style="fill: none; stroke: #000000; stroke-width: 1.5; stroke-linecap: square"/>
   </g>
   <g id="line2d_22">
    <path d="M 948.661364 488.507266 
L 948.620307 487.998689 
L 948.498201 487.503284 
L 948.298207 487.033882 
L 948.025506 486.60264 
L 947.68716 486.220726 
L 947.291933 485.898033 
L 946.850059 485.642917 
L 946.372985 485.461987 
L 945.873065 485.359927 
L 945.363248 485.339382 
L 944.856737 485.400884 
L 944.36665 485.542839 
L 943.905682 485.761571 
L 943.48577 486.051416 
L 943.11779 486.404865 
L 942.811272 486.812766 
L 942.574156 487.264553 
L 942.412582 487.748526 
L 942.330735 488.25215 
L 942.330735 488.762381 
L 942.412582 489.266005 
L 942.574156 489.749978 
L 942.811272 490.201765 
L 943.11779 490.609666 
L 943.48577 490.963115 
L 943.905682 491.25296 
L 944.36665 491.471692 
L 944.856737 491.613647 
L 945.363248 491.675149 
L 945.873065 491.654604 
L 946.372985 491.552545 
L 946.850059 491.371614 
L 947.291933 491.116499 
L 947.68716 490.793805 
L 948.025506 490.411892 
L 948.298207 489.980649 
L 948.498201 489.511247 
L 948.620307 489.015842 
L 948.661364 488.507266 
" clip-path="url(#p186014b818)" style="fill: none; stroke: #000000; stroke-width: 1.5; stroke-linecap: square"/>
   </g>
   <g id="line2d_23">
    <path d="M 963.752727 483.561357 
L 963.647622 482.2594 
L 963.33503 480.991164 
L 962.823047 479.789494 
L 962.124932 478.685514 
L 961.258766 477.707815 
L 960.246984 476.88172 
L 959.115788 476.228624 
L 957.894478 475.765442 
L 956.614683 475.50417 
L 955.309551 475.451575 
L 954.012882 475.609019 
L 952.758261 475.972425 
L 951.578182 476.532379 
L 950.503207 477.274381 
L 949.561178 478.179212 
L 948.776494 479.223438 
L 948.169476 480.380013 
L 947.755847 481.618984 
L 947.546319 482.908261 
L 947.546319 484.214452 
L 947.755847 485.503729 
L 948.169476 486.7427 
L 948.776494 487.899276 
L 949.561178 488.943501 
L 950.503207 489.848332 
L 951.578182 490.590334 
L 952.758261 491.150288 
L 954.012882 491.513694 
L 955.309551 491.671138 
L 956.614683 491.618543 
L 957.894478 491.357271 
L 959.115788 490.894089 
L 960.246984 490.240993 
L 961.258766 489.414898 
L 962.124932 488.437199 
L 962.823047 487.333219 
L 963.33503 486.131549 
L 963.647622 484.863313 
L 963.752727 483.561357 
" clip-path="url(#p186014b818)" style="fill: none; stroke: #000000; stroke-width: 1.5; stroke-linecap: square"/>
   </g>
   <g id="line2d_24">
    <path d="M 971.372171 487.536718 
L 971.318546 486.872455 
L 971.15906 486.225396 
L 970.897844 485.612299 
L 970.541663 485.049043 
L 970.099742 484.550218 
L 969.583526 484.128741 
L 969.006386 483.795528 
L 968.383268 483.559211 
L 967.730311 483.425909 
L 967.064427 483.399075 
L 966.402862 483.479403 
L 965.762749 483.664814 
L 965.160668 483.950506 
L 964.612211 484.329078 
L 964.131584 484.790726 
L 963.731235 485.323494 
L 963.421532 485.913584 
L 963.210497 486.545712 
L 963.103595 487.203506 
L 963.103595 487.869931 
L 963.210497 488.527725 
L 963.421532 489.159853 
L 963.731235 489.749942 
L 964.131584 490.28271 
L 964.612211 490.744359 
L 965.160668 491.122931 
L 965.762749 491.408622 
L 966.402862 491.594033 
L 967.064427 491.674362 
L 967.730311 491.647528 
L 968.383268 491.514226 
L 969.006386 491.277908 
L 969.583526 490.944696 
L 970.099742 490.523219 
L 970.541663 490.024393 
L 970.897844 489.461138 
L 971.15906 488.848041 
L 971.318546 488.200982 
L 971.372171 487.536718 
" clip-path="url(#p186014b818)" style="fill: none; stroke: #000000; stroke-width: 1.5; stroke-linecap: square"/>
   </g>
   <g id="line2d_25">
    <path d="M 217.709833 487.536718 
L 217.656208 486.872455 
L 217.496722 486.225396 
L 217.235506 485.612299 
L 216.879325 485.049043 
L 216.437404 484.550218 
L 215.921188 484.128741 
L 215.344048 483.795528 
L 214.72093 483.559211 
L 214.067974 483.425909 
L 213.40209 483.399075 
L 212.740524 483.479403 
L 212.100412 483.664814 
L 211.49833 483.950506 
L 210.949874 484.329078 
L 210.469247 484.790726 
L 210.068897 485.323494 
L 209.759195 485.913584 
L 209.548159 486.545712 
L 209.441257 487.203506 
L 209.441257 487.869931 
L 209.548159 488.527725 
L 209.759195 489.159853 
L 210.068897 489.749942 
L 210.469247 490.28271 
L 210.949874 490.744359 
L 211.49833 491.122931 
L 212.100412 491.408622 
L 212.740524 491.594033 
L 213.40209 491.674362 
L 214.067974 491.647528 
L 214.72093 491.514226 
L 215.344048 491.277908 
L 215.921188 490.944696 
L 216.437404 490.523219 
L 216.879325 490.024393 
L 217.235506 489.461138 
L 217.496722 488.848041 
L 217.656208 488.200982 
L 217.709833 487.536718 
" clip-path="url(#p186014b818)" style="fill: none; stroke: #000000; stroke-width: 1.5; stroke-linecap: square"/>
   </g>
   <g id="line2d_26">
    <path d="M 233.28 483.561357 
L 233.174895 482.2594 
L 232.862303 480.991164 
L 232.350319 479.789494 
L 231.652205 478.685514 
L 230.786039 477.707815 
L 229.774256 476.88172 
L 228.643061 476.228624 
L 227.42175 475.765442 
L 226.141956 475.50417 
L 224.836823 475.451575 
L 223.540155 475.609019 
L 222.285534 475.972425 
L 221.105455 476.532379 
L 220.03048 477.274381 
L 219.088451 478.179212 
L 218.303766 479.223438 
L 217.696749 480.380013 
L 217.28312 481.618984 
L 217.073592 482.908261 
L 217.073592 484.214452 
L 217.28312 485.503729 
L 217.696749 486.7427 
L 218.303766 487.899276 
L 219.088451 488.943501 
L 220.03048 489.848332 
L 221.105455 490.590334 
L 222.285534 491.150288 
L 223.540155 491.513694 
L 224.836823 491.671138 
L 226.141956 491.618543 
L 227.42175 491.357271 
L 228.643061 490.894089 
L 229.774256 490.240993 
L 230.786039 489.414898 
L 231.652205 488.437199 
L 232.350319 487.333219 
L 232.862303 486.131549 
L 233.174895 484.863313 
L 233.28 483.561357 
" clip-path="url(#p186014b818)" style="fill: none; stroke: #000000; stroke-width: 1.5; stroke-linecap: square"/>
   </g>
   <g id="line2d_27">
    <path d="M 238.479545 488.507266 
L 238.438489 487.998689 
L 238.316383 487.503284 
L 238.116389 487.033882 
L 237.843688 486.60264 
L 237.505342 486.220726 
L 237.110114 485.898033 
L 236.668241 485.642917 
L 236.191167 485.461987 
L 235.691247 485.359927 
L 235.18143 485.339382 
L 234.674919 485.400884 
L 234.184832 485.542839 
L 233.723864 485.761571 
L 233.303952 486.051416 
L 232.935972 486.404865 
L 232.629454 486.812766 
L 232.392338 487.264553 
L 232.230764 487.748526 
L 232.148917 488.25215 
L 232.148917 488.762381 
L 232.230764 489.266005 
L 232.392338 489.749978 
L 232.629454 490.201765 
L 232.935972 490.609666 
L 233.303952 490.963115 
L 233.723864 491.25296 
L 234.184832 491.471692 
L 234.674919 491.613647 
L 235.18143 491.675149 
L 235.691247 491.654604 
L 236.191167 491.552545 
L 236.668241 491.371614 
L 237.110114 491.116499 
L 237.505342 490.793805 
L 237.843688 490.411892 
L 238.116389 489.980649 
L 238.316383 489.511247 
L 238.438489 489.015842 
L 238.479545 488.507266 
" clip-path="url(#p186014b818)" style="fill: none; stroke: #000000; stroke-width: 1.5; stroke-linecap: square"/>
   </g>
   <g id="line2d_28">
    <path d="M 274.763636 469.132266 
L 274.471679 465.51572 
L 273.603367 461.992842 
L 272.18119 458.65487 
L 270.241982 455.588258 
L 267.835967 452.872429 
L 265.02546 450.57772 
L 261.88325 448.763565 
L 258.490721 447.476948 
L 254.935736 446.751193 
L 251.310368 446.605095 
L 247.708512 447.04244 
L 244.223453 448.051899 
L 240.945455 449.607329 
L 237.959413 451.668445 
L 235.342667 454.181864 
L 233.162987 457.082491 
L 231.476827 460.2952 
L 230.327857 463.736785 
L 229.745835 467.31811 
L 229.745835 470.946421 
L 230.327857 474.527746 
L 231.476827 477.969331 
L 233.162987 481.182041 
L 235.342667 484.082667 
L 237.959413 486.596087 
L 240.945455 488.657202 
L 244.223453 490.212632 
L 247.708512 491.222091 
L 251.310368 491.659436 
L 254.935736 491.513338 
L 258.490721 490.787583 
L 261.88325 489.500966 
L 265.02546 487.686811 
L 267.835967 485.392103 
L 270.241982 482.676273 
L 272.18119 479.609661 
L 273.603367 476.271689 
L 274.471679 472.748811 
L 274.763636 469.132266 
" clip-path="url(#p186014b818)" style="fill: none; stroke: #000000; stroke-width: 1.5; stroke-linecap: square"/>
   </g>
   <g id="line2d_29">
    <path d="M 275.683859 487.536718 
L 275.630234 486.872455 
L 275.470748 486.225396 
L 275.209532 485.612299 
L 274.853351 485.049043 
L 274.41143 484.550218 
L 273.895214 484.128741 
L 273.318074 483.795528 
L 272.694956 483.559211 
L 272.042 483.425909 
L 271.376116 483.399075 
L 270.71455 483.479403 
L 270.074438 483.664814 
L 269.472356 483.950506 
L 268.9239 484.329078 
L 268.443273 484.790726 
L 268.042923 485.323494 
L 267.733221 485.913584 
L 267.522185 486.545712 
L 267.415283 487.203506 
L 267.415283 487.869931 
L 267.522185 488.527725 
L 267.733221 489.159853 
L 268.042923 489.749942 
L 268.443273 490.28271 
L 268.9239 490.744359 
L 269.472356 491.122931 
L 270.074438 491.408622 
L 270.71455 491.594033 
L 271.376116 491.674362 
L 272.042 491.647528 
L 272.694956 491.514226 
L 273.318074 491.277908 
L 273.895214 490.944696 
L 274.41143 490.523219 
L 274.853351 490.024393 
L 275.209532 489.461138 
L 275.470748 488.848041 
L 275.630234 488.200982 
L 275.683859 487.536718 
" clip-path="url(#p186014b818)" style="fill: none; stroke: #000000; stroke-width: 1.5; stroke-linecap: square"/>
   </g>
   <g id="line2d_30">
    <path d="M 298.718182 478.995902 
L 298.553956 476.961595 
L 298.06553 474.979976 
L 297.265556 473.102367 
L 296.174751 471.377398 
L 294.821368 469.849744 
L 293.240457 468.55897 
L 291.472965 467.538508 
L 289.564667 466.814786 
L 287.564988 466.406549 
L 285.525718 466.324369 
L 283.499674 466.570375 
L 281.539329 467.138196 
L 279.695455 468.013125 
L 278.015806 469.172503 
L 276.543886 470.586301 
L 275.317817 472.217904 
L 274.369352 474.025053 
L 273.723056 475.960944 
L 273.395669 477.97544 
L 273.395669 480.016364 
L 273.723056 482.03086 
L 274.369352 483.966751 
L 275.317817 485.7739 
L 276.543886 487.405503 
L 278.015806 488.819301 
L 279.695455 489.978679 
L 281.539329 490.853608 
L 283.499674 491.421429 
L 285.525718 491.667435 
L 287.564988 491.585255 
L 289.564667 491.177018 
L 291.472965 490.453296 
L 293.240457 489.432834 
L 294.821368 488.14206 
L 296.174751 486.614406 
L 297.265556 484.889437 
L 298.06553 483.011828 
L 298.553956 481.030209 
L 298.718182 478.995902 
" clip-path="url(#p186014b818)" style="fill: none; stroke: #000000; stroke-width: 1.5; stroke-linecap: square"/>
   </g>
   <g id="line2d_31">
    <path d="M 314.443636 483.561357 
L 314.338532 482.2594 
L 314.025939 480.991164 
L 313.513956 479.789494 
L 312.815841 478.685514 
L 311.949675 477.707815 
L 310.937893 476.88172 
L 309.806697 476.228624 
L 308.585387 475.765442 
L 307.305592 475.50417 
L 306.00046 475.451575 
L 304.703791 475.609019 
L 303.449171 475.972425 
L 302.269091 476.532379 
L 301.194116 477.274381 
L 300.252087 478.179212 
L 299.467403 479.223438 
L 298.860385 480.380013 
L 298.446756 481.618984 
L 298.237228 482.908261 
L 298.237228 484.214452 
L 298.446756 485.503729 
L 298.860385 486.7427 
L 299.467403 487.899276 
L 300.252087 488.943501 
L 301.194116 489.848332 
L 302.269091 490.590334 
L 303.449171 491.150288 
L 304.703791 491.513694 
L 306.00046 491.671138 
L 307.305592 491.618543 
L 308.585387 491.357271 
L 309.806697 490.894089 
L 310.937893 490.240993 
L 311.949675 489.414898 
L 312.815841 488.437199 
L 313.513956 487.333219 
L 314.025939 486.131549 
L 314.338532 484.863313 
L 314.443636 483.561357 
" clip-path="url(#p186014b818)" style="fill: none; stroke: #000000; stroke-width: 1.5; stroke-linecap: square"/>
   </g>
   <g id="line2d_32">
    <path d="M 590.4 288.768629 
L 587.772381 256.219722 
L 579.957576 224.513815 
L 567.157986 194.472073 
L 549.705113 166.872563 
L 528.050978 142.430096 
L 502.75641 121.777721 
L 474.476527 105.450323 
L 443.943762 93.870772 
L 411.948897 87.338974 
L 379.320584 86.024098 
L 346.903877 89.960199 
L 315.538354 99.045333 
L 286.036364 113.044202 
L 259.161993 131.594241 
L 235.611274 154.215014 
L 215.994157 180.320654 
L 200.818717 209.235041 
L 190.477988 240.209305 
L 185.23979 272.441231 
L 185.23979 305.096028 
L 190.477988 337.327953 
L 200.818717 368.302218 
L 215.994157 397.216604 
L 235.611274 423.322245 
L 259.161993 445.943018 
L 286.036364 464.493057 
L 315.538354 478.491925 
L 346.903877 487.57706 
L 379.320584 491.513161 
L 411.948897 490.198284 
L 443.943762 483.666486 
L 474.476527 472.086936 
L 502.75641 455.759537 
L 528.050978 435.107162 
L 549.705113 410.664696 
L 567.157986 383.065186 
L 579.957576 353.023444 
L 587.772381 321.317536 
L 590.4 288.768629 
" clip-path="url(#p186014b818)" style="fill: none; stroke: #000000; stroke-width: 1.5; stroke-linecap: square"/>
   </g>
   <g id="line2d_33">
    <path d="M 184.581818 491.67772 
L 996.218182 491.67772 
" clip-path="url(#p186014b818)" style="fill: none; stroke: #000000; stroke-width: 1.5; stroke-linecap: square"/>
   </g>
   <g id="line2d_34">
    <path d="M 387.490909 495.735902 
" clip-path="url(#p186014b818)" style="fill: none; stroke: #000000; stroke-width: 1.5; stroke-linecap: square"/>
   </g>
   <g id="text_1">
    <!-- 2 -->
    <g transform="translate(339.772159 330.159254) scale(1.5 -1.5)">
     <defs>
      <path id="DejaVuSans-32" d="M 1228 531 
L 3431 531 
L 3431 0 
L 469 0 
L 469 531 
Q 828 903 1448 1529 
Q 2069 2156 2228 2338 
Q 2531 2678 2651 2914 
Q 2772 3150 2772 3378 
Q 2772 3750 2511 3984 
Q 2250 4219 1831 4219 
Q 1534 4219 1204 4116 
Q 875 4013 500 3803 
L 500 4441 
Q 881 4594 1212 4672 
Q 1544 4750 1819 4750 
Q 2544 4750 2975 4387 
Q 3406 4025 3406 3419 
Q 3406 3131 3298 2873 
Q 3191 2616 2906 2266 
Q 2828 2175 2409 1742 
Q 1991 1309 1228 531 
z
" transform="scale(0.015625)"/>
     </defs>
     <use xlink:href="#DejaVuSans-32"/>
    </g>
   </g>
   <g id="text_2">
    <!-- $\frac{0}{1}$ -->
    <g transform="translate(381.690909 517.768629) scale(0.2 -0.2)">
     <defs>
      <path id="DejaVuSans-30" d="M 2034 4250 
Q 1547 4250 1301 3770 
Q 1056 3291 1056 2328 
Q 1056 1369 1301 889 
Q 1547 409 2034 409 
Q 2525 409 2770 889 
Q 3016 1369 3016 2328 
Q 3016 3291 2770 3770 
Q 2525 4250 2034 4250 
z
M 2034 4750 
Q 2819 4750 3233 4129 
Q 3647 3509 3647 2328 
Q 3647 1150 3233 529 
Q 2819 -91 2034 -91 
Q 1250 -91 836 529 
Q 422 1150 422 2328 
Q 422 3509 836 4129 
Q 1250 4750 2034 4750 
z
" transform="scale(0.015625)"/>
      <path id="DejaVuSans-31" d="M 794 531 
L 1825 531 
L 1825 4091 
L 703 3866 
L 703 4441 
L 1819 4666 
L 2450 4666 
L 2450 531 
L 3481 531 
L 3481 0 
L 794 0 
L 794 531 
z
" transform="scale(0.015625)"/>
     </defs>
     <use xlink:href="#DejaVuSans-30" transform="translate(0 45.046875) scale(0.7)"/>
     <use xlink:href="#DejaVuSans-31" transform="translate(0 -38.232812) scale(0.7)"/>
     <path d="M 0 19.051563 
L 0 25.301563 
L 44.536133 25.301563 
L 44.536133 19.051563 
L 0 19.051563 
z
"/>
    </g>
   </g>
   <g id="text_3">
    <!-- 50 -->
    <g transform="translate(464.837045 485.216982) scale(0.06 -0.06)">
     <defs>
      <path id="DejaVuSans-35" d="M 691 4666 
L 3169 4666 
L 3169 4134 
L 1269 4134 
L 1269 2991 
Q 1406 3038 1543 3061 
Q 1681 3084 1819 3084 
Q 2600 3084 3056 2656 
Q 3513 2228 3513 1497 
Q 3513 744 3044 326 
Q 2575 -91 1722 -91 
Q 1428 -91 1123 -41 
Q 819 9 494 109 
L 494 744 
Q 775 591 1075 516 
Q 1375 441 1709 441 
Q 2250 441 2565 725 
Q 2881 1009 2881 1497 
Q 2881 1984 2565 2268 
Q 2250 2553 1709 2553 
Q 1456 2553 1204 2497 
Q 953 2441 691 2322 
L 691 4666 
z
" transform="scale(0.015625)"/>
     </defs>
     <use xlink:href="#DejaVuSans-35"/>
     <use xlink:href="#DejaVuSans-30" x="63.623047"/>
    </g>
   </g>
   <g id="text_4">
    <!-- $\frac{1}{5}$ -->
    <g transform="translate(462.854545 517.468629) scale(0.2 -0.2)">
     <use xlink:href="#DejaVuSans-31" transform="translate(0 43.965625) scale(0.7)"/>
     <use xlink:href="#DejaVuSans-35" transform="translate(0 -38.31875) scale(0.7)"/>
     <path d="M 0 18.965625 
L 0 25.215625 
L 44.536133 25.215625 
L 44.536133 18.965625 
L 0 18.965625 
z
"/>
    </g>
   </g>
   <g id="text_5">
    <!-- 32 -->
    <g transform="translate(483.219205 481.479339) scale(0.09 -0.09)">
     <defs>
      <path id="DejaVuSans-33" d="M 2597 2516 
Q 3050 2419 3304 2112 
Q 3559 1806 3559 1356 
Q 3559 666 3084 287 
Q 2609 -91 1734 -91 
Q 1441 -91 1130 -33 
Q 819 25 488 141 
L 488 750 
Q 750 597 1062 519 
Q 1375 441 1716 441 
Q 2309 441 2620 675 
Q 2931 909 2931 1356 
Q 2931 1769 2642 2001 
Q 2353 2234 1838 2234 
L 1294 2234 
L 1294 2753 
L 1863 2753 
Q 2328 2753 2575 2939 
Q 2822 3125 2822 3475 
Q 2822 3834 2567 4026 
Q 2313 4219 1838 4219 
Q 1578 4219 1281 4162 
Q 984 4106 628 3988 
L 628 4550 
Q 988 4650 1302 4700 
Q 1616 4750 1894 4750 
Q 2613 4750 3031 4423 
Q 3450 4097 3450 3541 
Q 3450 3153 3228 2886 
Q 3006 2619 2597 2516 
z
" transform="scale(0.015625)"/>
     </defs>
     <use xlink:href="#DejaVuSans-33"/>
     <use xlink:href="#DejaVuSans-32" x="63.623047"/>
    </g>
   </g>
   <g id="text_6">
    <!-- $\frac{1}{4}$ -->
    <g transform="translate(483.145455 517.568629) scale(0.2 -0.2)">
     <defs>
      <path id="DejaVuSans-34" d="M 2419 4116 
L 825 1625 
L 2419 1625 
L 2419 4116 
z
M 2253 4666 
L 3047 4666 
L 3047 1625 
L 3713 1625 
L 3713 1100 
L 3047 1100 
L 3047 0 
L 2419 0 
L 2419 1100 
L 313 1100 
L 313 1709 
L 2253 4666 
z
" transform="scale(0.015625)"/>
     </defs>
     <use xlink:href="#DejaVuSans-31" transform="translate(0 43.965625) scale(0.7)"/>
     <use xlink:href="#DejaVuSans-34" transform="translate(0 -38.31875) scale(0.7)"/>
     <path d="M 0 18.965625 
L 0 25.215625 
L 44.536133 25.215625 
L 44.536133 18.965625 
L 0 18.965625 
z
"/>
    </g>
   </g>
   <g id="text_7">
    <!-- 18 -->
    <g transform="translate(512.583636 473.547266) scale(0.16 -0.16)">
     <defs>
      <path id="DejaVuSans-38" d="M 2034 2216 
Q 1584 2216 1326 1975 
Q 1069 1734 1069 1313 
Q 1069 891 1326 650 
Q 1584 409 2034 409 
Q 2484 409 2743 651 
Q 3003 894 3003 1313 
Q 3003 1734 2745 1975 
Q 2488 2216 2034 2216 
z
M 1403 2484 
Q 997 2584 770 2862 
Q 544 3141 544 3541 
Q 544 4100 942 4425 
Q 1341 4750 2034 4750 
Q 2731 4750 3128 4425 
Q 3525 4100 3525 3541 
Q 3525 3141 3298 2862 
Q 3072 2584 2669 2484 
Q 3125 2378 3379 2068 
Q 3634 1759 3634 1313 
Q 3634 634 3220 271 
Q 2806 -91 2034 -91 
Q 1263 -91 848 271 
Q 434 634 434 1313 
Q 434 1759 690 2068 
Q 947 2378 1403 2484 
z
M 1172 3481 
Q 1172 3119 1398 2916 
Q 1625 2713 2034 2713 
Q 2441 2713 2670 2916 
Q 2900 3119 2900 3481 
Q 2900 3844 2670 4047 
Q 2441 4250 2034 4250 
Q 1625 4250 1398 4047 
Q 1172 3844 1172 3481 
z
" transform="scale(0.015625)"/>
     </defs>
     <use xlink:href="#DejaVuSans-31"/>
     <use xlink:href="#DejaVuSans-38" x="63.623047"/>
    </g>
   </g>
   <g id="text_8">
    <!-- $\frac{1}{3}$ -->
    <g transform="translate(516.963636 517.368629) scale(0.2 -0.2)">
     <use xlink:href="#DejaVuSans-31" transform="translate(0 43.965625) scale(0.7)"/>
     <use xlink:href="#DejaVuSans-33" transform="translate(0 -39.2375) scale(0.7)"/>
     <path d="M 0 18.965625 
L 0 25.215625 
L 44.536133 25.215625 
L 44.536133 18.965625 
L 0 18.965625 
z
"/>
    </g>
   </g>
   <g id="text_9">
    <!-- 50 -->
    <g transform="translate(546.000682 485.216982) scale(0.06 -0.06)">
     <use xlink:href="#DejaVuSans-35"/>
     <use xlink:href="#DejaVuSans-30" x="63.623047"/>
    </g>
   </g>
   <g id="text_10">
    <!-- $\frac{2}{5}$ -->
    <g transform="translate(544.018182 517.568629) scale(0.2 -0.2)">
     <use xlink:href="#DejaVuSans-32" transform="translate(0 44.046875) scale(0.7)"/>
     <use xlink:href="#DejaVuSans-35" transform="translate(0 -38.2375) scale(0.7)"/>
     <path d="M 0 19.046875 
L 0 25.296875 
L 44.536133 25.296875 
L 44.536133 19.046875 
L 0 19.046875 
z
"/>
    </g>
   </g>
   <g id="text_11">
    <!-- 8 -->
    <g transform="translate(578.629375 451.160135) scale(0.37 -0.37)">
     <use xlink:href="#DejaVuSans-38"/>
    </g>
   </g>
   <g id="text_12">
    <!-- $\frac{1}{2}$ -->
    <g transform="translate(584.6 517.468629) scale(0.2 -0.2)">
     <use xlink:href="#DejaVuSans-31" transform="translate(0 43.965625) scale(0.7)"/>
     <use xlink:href="#DejaVuSans-32" transform="translate(0 -39.2375) scale(0.7)"/>
     <path d="M 0 18.965625 
L 0 25.215625 
L 44.536133 25.215625 
L 44.536133 18.965625 
L 0 18.965625 
z
"/>
    </g>
   </g>
   <g id="text_13">
    <!-- 50 -->
    <g transform="translate(627.164318 485.216982) scale(0.06 -0.06)">
     <use xlink:href="#DejaVuSans-35"/>
     <use xlink:href="#DejaVuSans-30" x="63.623047"/>
    </g>
   </g>
   <g id="text_14">
    <!-- $\frac{3}{5}$ -->
    <g transform="translate(625.181818 517.668629) scale(0.2 -0.2)">
     <use xlink:href="#DejaVuSans-33" transform="translate(0 45.046875) scale(0.7)"/>
     <use xlink:href="#DejaVuSans-35" transform="translate(0 -38.232812) scale(0.7)"/>
     <path d="M 0 19.051563 
L 0 25.301563 
L 44.536133 25.301563 
L 44.536133 19.051563 
L 0 19.051563 
z
"/>
    </g>
   </g>
   <g id="text_15">
    <!-- 18 -->
    <g transform="translate(647.856364 473.547266) scale(0.16 -0.16)">
     <use xlink:href="#DejaVuSans-31"/>
     <use xlink:href="#DejaVuSans-38" x="63.623047"/>
    </g>
   </g>
   <g id="text_16">
    <!-- $\frac{2}{3}$ -->
    <g transform="translate(652.236364 517.468629) scale(0.2 -0.2)">
     <use xlink:href="#DejaVuSans-32" transform="translate(0 44.046875) scale(0.7)"/>
     <use xlink:href="#DejaVuSans-33" transform="translate(0 -39.15625) scale(0.7)"/>
     <path d="M 0 19.046875 
L 0 25.296875 
L 44.536133 25.296875 
L 44.536133 19.046875 
L 0 19.046875 
z
"/>
    </g>
   </g>
   <g id="text_17">
    <!-- 32 -->
    <g transform="translate(686.128295 481.479339) scale(0.09 -0.09)">
     <use xlink:href="#DejaVuSans-33"/>
     <use xlink:href="#DejaVuSans-32" x="63.623047"/>
    </g>
   </g>
   <g id="text_18">
    <!-- $\frac{3}{4}$ -->
    <g transform="translate(686.054545 517.768629) scale(0.2 -0.2)">
     <use xlink:href="#DejaVuSans-33" transform="translate(0 45.046875) scale(0.7)"/>
     <use xlink:href="#DejaVuSans-34" transform="translate(0 -38.232812) scale(0.7)"/>
     <path d="M 0 19.051563 
L 0 25.301563 
L 44.536133 25.301563 
L 44.536133 19.051563 
L 0 19.051563 
z
"/>
    </g>
   </g>
   <g id="text_19">
    <!-- 50 -->
    <g transform="translate(708.327955 485.216982) scale(0.06 -0.06)">
     <use xlink:href="#DejaVuSans-35"/>
     <use xlink:href="#DejaVuSans-30" x="63.623047"/>
    </g>
   </g>
   <g id="text_20">
    <!-- $\frac{4}{5}$ -->
    <g transform="translate(706.345455 517.468629) scale(0.2 -0.2)">
     <use xlink:href="#DejaVuSans-34" transform="translate(0 43.965625) scale(0.7)"/>
     <use xlink:href="#DejaVuSans-35" transform="translate(0 -38.31875) scale(0.7)"/>
     <path d="M 0 18.965625 
L 0 25.215625 
L 44.536133 25.215625 
L 44.536133 18.965625 
L 0 18.965625 
z
"/>
    </g>
   </g>
   <g id="text_21">
    <!-- 2 -->
    <g transform="translate(745.590341 330.159254) scale(1.5 -1.5)">
     <use xlink:href="#DejaVuSans-32"/>
    </g>
   </g>
   <g id="text_22">
    <!-- $\frac{1}{1}$ -->
    <g transform="translate(787.509091 517.568629) scale(0.2 -0.2)">
     <use xlink:href="#DejaVuSans-31" transform="translate(0 43.965625) scale(0.7)"/>
     <use xlink:href="#DejaVuSans-31" transform="translate(0 -38.31875) scale(0.7)"/>
     <path d="M 0 18.965625 
L 0 25.215625 
L 44.536133 25.215625 
L 44.536133 18.965625 
L 0 18.965625 
z
"/>
    </g>
   </g>
   <g id="text_23">
    <!-- 50 -->
    <g transform="translate(870.655227 485.216982) scale(0.06 -0.06)">
     <use xlink:href="#DejaVuSans-35"/>
     <use xlink:href="#DejaVuSans-30" x="63.623047"/>
    </g>
   </g>
   <g id="text_24">
    <!-- $\frac{6}{5}$ -->
    <g transform="translate(868.672727 517.668629) scale(0.2 -0.2)">
     <defs>
      <path id="DejaVuSans-36" d="M 2113 2584 
Q 1688 2584 1439 2293 
Q 1191 2003 1191 1497 
Q 1191 994 1439 701 
Q 1688 409 2113 409 
Q 2538 409 2786 701 
Q 3034 994 3034 1497 
Q 3034 2003 2786 2293 
Q 2538 2584 2113 2584 
z
M 3366 4563 
L 3366 3988 
Q 3128 4100 2886 4159 
Q 2644 4219 2406 4219 
Q 1781 4219 1451 3797 
Q 1122 3375 1075 2522 
Q 1259 2794 1537 2939 
Q 1816 3084 2150 3084 
Q 2853 3084 3261 2657 
Q 3669 2231 3669 1497 
Q 3669 778 3244 343 
Q 2819 -91 2113 -91 
Q 1303 -91 875 529 
Q 447 1150 447 2328 
Q 447 3434 972 4092 
Q 1497 4750 2381 4750 
Q 2619 4750 2861 4703 
Q 3103 4656 3366 4563 
z
" transform="scale(0.015625)"/>
     </defs>
     <use xlink:href="#DejaVuSans-36" transform="translate(0 45.046875) scale(0.7)"/>
     <use xlink:href="#DejaVuSans-35" transform="translate(0 -38.232812) scale(0.7)"/>
     <path d="M 0 19.051563 
L 0 25.301563 
L 44.536133 25.301563 
L 44.536133 19.051563 
L 0 19.051563 
z
"/>
    </g>
   </g>
   <g id="text_25">
    <!-- 32 -->
    <g transform="translate(889.037386 481.479339) scale(0.09 -0.09)">
     <use xlink:href="#DejaVuSans-33"/>
     <use xlink:href="#DejaVuSans-32" x="63.623047"/>
    </g>
   </g>
   <g id="text_26">
    <!-- $\frac{5}{4}$ -->
    <g transform="translate(888.963636 517.668629) scale(0.2 -0.2)">
     <use xlink:href="#DejaVuSans-35" transform="translate(0 44.965625) scale(0.7)"/>
     <use xlink:href="#DejaVuSans-34" transform="translate(0 -38.314062) scale(0.7)"/>
     <path d="M 0 18.970313 
L 0 25.220313 
L 44.536133 25.220313 
L 44.536133 18.970313 
L 0 18.970313 
z
"/>
    </g>
   </g>
   <g id="text_27">
    <!-- 18 -->
    <g transform="translate(918.401818 473.547266) scale(0.16 -0.16)">
     <use xlink:href="#DejaVuSans-31"/>
     <use xlink:href="#DejaVuSans-38" x="63.623047"/>
    </g>
   </g>
   <g id="text_28">
    <!-- $\frac{4}{3}$ -->
    <g transform="translate(922.781818 517.368629) scale(0.2 -0.2)">
     <use xlink:href="#DejaVuSans-34" transform="translate(0 43.965625) scale(0.7)"/>
     <use xlink:href="#DejaVuSans-33" transform="translate(0 -39.2375) scale(0.7)"/>
     <path d="M 0 18.965625 
L 0 25.215625 
L 44.536133 25.215625 
L 44.536133 18.965625 
L 0 18.965625 
z
"/>
    </g>
   </g>
   <g id="text_29">
    <!-- 50 -->
    <g transform="translate(951.818864 485.216982) scale(0.06 -0.06)">
     <use xlink:href="#DejaVuSans-35"/>
     <use xlink:href="#DejaVuSans-30" x="63.623047"/>
    </g>
   </g>
   <g id="text_30">
    <!-- $\frac{7}{5}$ -->
    <g transform="translate(949.836364 517.468629) scale(0.2 -0.2)">
     <defs>
      <path id="DejaVuSans-37" d="M 525 4666 
L 3525 4666 
L 3525 4397 
L 1831 0 
L 1172 0 
L 2766 4134 
L 525 4134 
L 525 4666 
z
" transform="scale(0.015625)"/>
     </defs>
     <use xlink:href="#DejaVuSans-37" transform="translate(0 43.965625) scale(0.7)"/>
     <use xlink:href="#DejaVuSans-35" transform="translate(0 -38.31875) scale(0.7)"/>
     <path d="M 0 18.965625 
L 0 25.215625 
L 44.536133 25.215625 
L 44.536133 18.965625 
L 0 18.965625 
z
"/>
    </g>
   </g>
   <g id="text_31">
    <!-- 50 -->
    <g transform="translate(221.346136 485.216982) scale(0.06 -0.06)">
     <use xlink:href="#DejaVuSans-35"/>
     <use xlink:href="#DejaVuSans-30" x="63.623047"/>
    </g>
   </g>
   <g id="text_32">
    <!-- $-\frac{2}{5}$ -->
    <g transform="translate(203.758909 517.568629) scale(0.2 -0.2)">
     <defs>
      <path id="DejaVuSans-2212" d="M 678 2272 
L 4684 2272 
L 4684 1741 
L 678 1741 
L 678 2272 
z
" transform="scale(0.015625)"/>
     </defs>
     <use xlink:href="#DejaVuSans-2212" transform="translate(0 0.25)"/>
     <use xlink:href="#DejaVuSans-32" transform="translate(83.789062 44.046875) scale(0.7)"/>
     <use xlink:href="#DejaVuSans-35" transform="translate(83.789062 -38.2375) scale(0.7)"/>
     <path d="M 83.789062 19.046875 
L 83.789062 25.296875 
L 128.325195 25.296875 
L 128.325195 19.046875 
L 83.789062 19.046875 
z
"/>
    </g>
   </g>
   <g id="text_33">
    <!-- 18 -->
    <g transform="translate(242.038182 473.547266) scale(0.16 -0.16)">
     <use xlink:href="#DejaVuSans-31"/>
     <use xlink:href="#DejaVuSans-38" x="63.623047"/>
    </g>
   </g>
   <g id="text_34">
    <!-- $-\frac{1}{3}$ -->
    <g transform="translate(230.813455 517.368629) scale(0.2 -0.2)">
     <use xlink:href="#DejaVuSans-2212" transform="translate(0 0.16875)"/>
     <use xlink:href="#DejaVuSans-31" transform="translate(83.789062 43.965625) scale(0.7)"/>
     <use xlink:href="#DejaVuSans-33" transform="translate(83.789062 -39.2375) scale(0.7)"/>
     <path d="M 83.789062 18.965625 
L 83.789062 25.215625 
L 128.325195 25.215625 
L 128.325195 18.965625 
L 83.789062 18.965625 
z
"/>
    </g>
   </g>
   <g id="text_35">
    <!-- 32 -->
    <g transform="translate(280.310114 481.479339) scale(0.09 -0.09)">
     <use xlink:href="#DejaVuSans-33"/>
     <use xlink:href="#DejaVuSans-32" x="63.623047"/>
    </g>
   </g>
   <g id="text_36">
    <!-- $-\frac{1}{4}$ -->
    <g transform="translate(264.631636 517.568629) scale(0.2 -0.2)">
     <use xlink:href="#DejaVuSans-2212" transform="translate(0 0.16875)"/>
     <use xlink:href="#DejaVuSans-31" transform="translate(83.789062 43.965625) scale(0.7)"/>
     <use xlink:href="#DejaVuSans-34" transform="translate(83.789062 -38.31875) scale(0.7)"/>
     <path d="M 83.789062 18.965625 
L 83.789062 25.215625 
L 128.325195 25.215625 
L 128.325195 18.965625 
L 83.789062 18.965625 
z
"/>
    </g>
   </g>
   <g id="text_37">
    <!-- 50 -->
    <g transform="translate(302.509773 485.216982) scale(0.06 -0.06)">
     <use xlink:href="#DejaVuSans-35"/>
     <use xlink:href="#DejaVuSans-30" x="63.623047"/>
    </g>
   </g>
   <g id="text_38">
    <!-- $-\frac{1}{5}$ -->
    <g transform="translate(284.922545 517.468629) scale(0.2 -0.2)">
     <use xlink:href="#DejaVuSans-2212" transform="translate(0 0.16875)"/>
     <use xlink:href="#DejaVuSans-31" transform="translate(83.789062 43.965625) scale(0.7)"/>
     <use xlink:href="#DejaVuSans-35" transform="translate(83.789062 -38.31875) scale(0.7)"/>
     <path d="M 83.789062 18.965625 
L 83.789062 25.215625 
L 128.325195 25.215625 
L 128.325195 18.965625 
L 83.789062 18.965625 
z
"/>
    </g>
   </g>
   <g id="text_39">
    <!-- 2 -->
    <g transform="translate(339.772159 330.159254) scale(1.5 -1.5)">
     <use xlink:href="#DejaVuSans-32"/>
    </g>
   </g>
   <g id="text_40">
    <!-- $\frac{0}{1}$ -->
    <g transform="translate(381.690909 517.768629) scale(0.2 -0.2)">
     <use xlink:href="#DejaVuSans-30" transform="translate(0 45.046875) scale(0.7)"/>
     <use xlink:href="#DejaVuSans-31" transform="translate(0 -38.232812) scale(0.7)"/>
     <path d="M 0 19.051563 
L 0 25.301563 
L 44.536133 25.301563 
L 44.536133 19.051563 
L 0 19.051563 
z
"/>
    </g>
   </g>
  </g>
 </g>
 <defs>
  <clipPath id="p186014b818">
   <rect x="144" y="69.12" width="892.8" height="443.52"/>
  </clipPath>
 </defs>
</svg>
