<svg viewBox="0 0 1000 1000" xmlns="http://www.w3.org/2000/svg">
  <circle cx="200.00" cy="100.00" r="100.00" fill ="none" stroke = "#000000"/>
<circle cx="200.00" cy="100.00" r="100.00" fill ="none" stroke = "#000000"/>
<circle cx="228.57" cy="2.04" r="2.04" fill ="none" stroke = "#000000"/>
<circle cx="228.57" cy="2.04" r="2.04" fill ="none" stroke = "#000000"/>
<circle cx="233.33" cy="2.78" r="2.78" fill ="none" stroke = "#000000"/>
<circle cx="233.33" cy="2.78" r="2.78" fill ="none" stroke = "#000000"/>
<circle cx="236.36" cy="0.83" r="0.83" fill ="none" stroke = "#000000"/>
<circle cx="236.36" cy="0.83" r="0.83" fill ="none" stroke = "#000000"/>
<circle cx="240.00" cy="4.00" r="4.00" fill ="none" stroke = "#000000"/>
<circle cx="240.00" cy="4.00" r="4.00" fill ="none" stroke = "#000000"/>
<circle cx="242.86" cy="0.51" r="0.51" fill ="none" stroke = "#000000"/>
<circle cx="242.86" cy="0.51" r="0.51" fill ="none" stroke = "#000000"/>
<circle cx="244.44" cy="1.23" r="1.23" fill ="none" stroke = "#000000"/>
<circle cx="244.44" cy="1.23" r="1.23" fill ="none" stroke = "#000000"/>
<circle cx="246.15" cy="0.59" r="0.59" fill ="none" stroke = "#000000"/>
<circle cx="246.15" cy="0.59" r="0.59" fill ="none" stroke = "#000000"/>
<circle cx="250.00" cy="6.25" r="6.25" fill ="none" stroke = "#000000"/>
<circle cx="250.00" cy="6.25" r="6.25" fill ="none" stroke = "#000000"/>
<circle cx="253.33" cy="0.44" r="0.44" fill ="none" stroke = "#000000"/>
<circle cx="253.33" cy="0.44" r="0.44" fill ="none" stroke = "#000000"/>
<circle cx="254.55" cy="0.83" r="0.83" fill ="none" stroke = "#000000"/>
<circle cx="254.55" cy="0.83" r="0.83" fill ="none" stroke = "#000000"/>
<circle cx="255.56" cy="0.31" r="0.31" fill ="none" stroke = "#000000"/>
<circle cx="255.56" cy="0.31" r="0.31" fill ="none" stroke = "#000000"/>
<circle cx="257.14" cy="2.04" r="2.04" fill ="none" stroke = "#000000"/>
<circle cx="257.14" cy="2.04" r="2.04" fill ="none" stroke = "#000000"/>
<circle cx="258.82" cy="0.35" r="0.35" fill ="none" stroke = "#000000"/>
<circle cx="258.82" cy="0.35" r="0.35" fill ="none" stroke = "#000000"/>
<circle cx="260.00" cy="1.00" r="1.00" fill ="none" stroke = "#000000"/>
<circle cx="260.00" cy="1.00" r="1.00" fill ="none" stroke = "#000000"/>
<circle cx="261.54" cy="0.59" r="0.59" fill ="none" stroke = "#000000"/>
<circle cx="261.54" cy="0.59" r="0.59" fill ="none" stroke = "#000000"/>
<circle cx="266.67" cy="11.11" r="11.11" fill ="none" stroke = "#000000"/>
<circle cx="266.67" cy="11.11" r="11.11" fill ="none" stroke = "#000000"/>
<circle cx="271.43" cy="0.51" r="0.51" fill ="none" stroke = "#000000"/>
<circle cx="271.43" cy="0.51" r="0.51" fill ="none" stroke = "#000000"/>
<circle cx="272.73" cy="0.83" r="0.83" fill ="none" stroke = "#000000"/>
<circle cx="272.73" cy="0.83" r="0.83" fill ="none" stroke = "#000000"/>
<circle cx="273.68" cy="0.28" r="0.28" fill ="none" stroke = "#000000"/>
<circle cx="273.68" cy="0.28" r="0.28" fill ="none" stroke = "#000000"/>
<circle cx="275.00" cy="1.56" r="1.56" fill ="none" stroke = "#000000"/>
<circle cx="275.00" cy="1.56" r="1.56" fill ="none" stroke = "#000000"/>
<circle cx="276.19" cy="0.23" r="0.23" fill ="none" stroke = "#000000"/>
<circle cx="276.19" cy="0.23" r="0.23" fill ="none" stroke = "#000000"/>
<circle cx="276.92" cy="0.59" r="0.59" fill ="none" stroke = "#000000"/>
<circle cx="276.92" cy="0.59" r="0.59" fill ="none" stroke = "#000000"/>
<circle cx="277.78" cy="0.31" r="0.31" fill ="none" stroke = "#000000"/>
<circle cx="277.78" cy="0.31" r="0.31" fill ="none" stroke = "#000000"/>
<circle cx="280.00" cy="4.00" r="4.00" fill ="none" stroke = "#000000"/>
<circle cx="280.00" cy="4.00" r="4.00" fill ="none" stroke = "#000000"/>
<circle cx="282.35" cy="0.35" r="0.35" fill ="none" stroke = "#000000"/>
<circle cx="282.35" cy="0.35" r="0.35" fill ="none" stroke = "#000000"/>
<circle cx="283.33" cy="0.69" r="0.69" fill ="none" stroke = "#000000"/>
<circle cx="283.33" cy="0.69" r="0.69" fill ="none" stroke = "#000000"/>
<circle cx="284.21" cy="0.28" r="0.28" fill ="none" stroke = "#000000"/>
<circle cx="284.21" cy="0.28" r="0.28" fill ="none" stroke = "#000000"/>
<circle cx="285.71" cy="2.04" r="2.04" fill ="none" stroke = "#000000"/>
<circle cx="285.71" cy="2.04" r="2.04" fill ="none" stroke = "#000000"/>
<circle cx="287.50" cy="0.39" r="0.39" fill ="none" stroke = "#000000"/>
<circle cx="287.50" cy="0.39" r="0.39" fill ="none" stroke = "#000000"/>
<circle cx="288.89" cy="1.23" r="1.23" fill ="none" stroke = "#000000"/>
<circle cx="288.89" cy="1.23" r="1.23" fill ="none" stroke = "#000000"/>
<circle cx="290.91" cy="0.83" r="0.83" fill ="none" stroke = "#000000"/>
<circle cx="290.91" cy="0.83" r="0.83" fill ="none" stroke = "#000000"/>
<circle cx="300.00" cy="25.00" r="25.00" fill ="none" stroke = "#000000"/>
<circle cx="300.00" cy="25.00" r="25.00" fill ="none" stroke = "#000000"/>
<circle cx="309.09" cy="0.83" r="0.83" fill ="none" stroke = "#000000"/>
<circle cx="309.09" cy="0.83" r="0.83" fill ="none" stroke = "#000000"/>
<circle cx="311.11" cy="1.23" r="1.23" fill ="none" stroke = "#000000"/>
<circle cx="311.11" cy="1.23" r="1.23" fill ="none" stroke = "#000000"/>
<circle cx="312.50" cy="0.39" r="0.39" fill ="none" stroke = "#000000"/>
<circle cx="312.50" cy="0.39" r="0.39" fill ="none" stroke = "#000000"/>
<circle cx="314.29" cy="2.04" r="2.04" fill ="none" stroke = "#000000"/>
<circle cx="314.29" cy="2.04" r="2.04" fill ="none" stroke = "#000000"/>
<circle cx="315.79" cy="0.28" r="0.28" fill ="none" stroke = "#000000"/>
<circle cx="315.79" cy="0.28" r="0.28" fill ="none" stroke = "#000000"/>
<circle cx="316.67" cy="0.69" r="0.69" fill ="none" stroke = "#000000"/>
<circle cx="316.67" cy="0.69" r="0.69" fill ="none" stroke = "#000000"/>
<circle cx="317.65" cy="0.35" r="0.35" fill ="none" stroke = "#000000"/>
<circle cx="317.65" cy="0.35" r="0.35" fill ="none" stroke = "#000000"/>
<circle cx="320.00" cy="4.00" r="4.00" fill ="none" stroke = "#000000"/>
<circle cx="320.00" cy="4.00" r="4.00" fill ="none" stroke = "#000000"/>
<circle cx="322.22" cy="0.31" r="0.31" fill ="none" stroke = "#000000"/>
<circle cx="322.22" cy="0.31" r="0.31" fill ="none" stroke = "#000000"/>
<circle cx="323.08" cy="0.59" r="0.59" fill ="none" stroke = "#000000"/>
<circle cx="323.08" cy="0.59" r="0.59" fill ="none" stroke = "#000000"/>
<circle cx="323.81" cy="0.23" r="0.23" fill ="none" stroke = "#000000"/>
<circle cx="323.81" cy="0.23" r="0.23" fill ="none" stroke = "#000000"/>
<circle cx="325.00" cy="1.56" r="1.56" fill ="none" stroke = "#000000"/>
<circle cx="325.00" cy="1.56" r="1.56" fill ="none" stroke = "#000000"/>
<circle cx="326.32" cy="0.28" r="0.28" fill ="none" stroke = "#000000"/>
<circle cx="326.32" cy="0.28" r="0.28" fill ="none" stroke = "#000000"/>
<circle cx="327.27" cy="0.83" r="0.83" fill ="none" stroke = "#000000"/>
<circle cx="327.27" cy="0.83" r="0.83" fill ="none" stroke = "#000000"/>
<circle cx="328.57" cy="0.51" r="0.51" fill ="none" stroke = "#000000"/>
<circle cx="328.57" cy="0.51" r="0.51" fill ="none" stroke = "#000000"/>
<circle cx="333.33" cy="11.11" r="11.11" fill ="none" stroke = "#000000"/>
<circle cx="333.33" cy="11.11" r="11.11" fill ="none" stroke = "#000000"/>
<circle cx="338.46" cy="0.59" r="0.59" fill ="none" stroke = "#000000"/>
<circle cx="338.46" cy="0.59" r="0.59" fill ="none" stroke = "#000000"/>
<circle cx="340.00" cy="1.00" r="1.00" fill ="none" stroke = "#000000"/>
<circle cx="340.00" cy="1.00" r="1.00" fill ="none" stroke = "#000000"/>
<circle cx="341.18" cy="0.35" r="0.35" fill ="none" stroke = "#000000"/>
<circle cx="341.18" cy="0.35" r="0.35" fill ="none" stroke = "#000000"/>
<circle cx="342.86" cy="2.04" r="2.04" fill ="none" stroke = "#000000"/>
<circle cx="342.86" cy="2.04" r="2.04" fill ="none" stroke = "#000000"/>
<circle cx="344.44" cy="0.31" r="0.31" fill ="none" stroke = "#000000"/>
<circle cx="344.44" cy="0.31" r="0.31" fill ="none" stroke = "#000000"/>
<circle cx="345.45" cy="0.83" r="0.83" fill ="none" stroke = "#000000"/>
<circle cx="345.45" cy="0.83" r="0.83" fill ="none" stroke = "#000000"/>
<circle cx="346.67" cy="0.44" r="0.44" fill ="none" stroke = "#000000"/>
<circle cx="346.67" cy="0.44" r="0.44" fill ="none" stroke = "#000000"/>
<circle cx="350.00" cy="6.25" r="6.25" fill ="none" stroke = "#000000"/>
<circle cx="350.00" cy="6.25" r="6.25" fill ="none" stroke = "#000000"/>
<circle cx="353.85" cy="0.59" r="0.59" fill ="none" stroke = "#000000"/>
<circle cx="353.85" cy="0.59" r="0.59" fill ="none" stroke = "#000000"/>
<circle cx="355.56" cy="1.23" r="1.23" fill ="none" stroke = "#000000"/>
<circle cx="355.56" cy="1.23" r="1.23" fill ="none" stroke = "#000000"/>
<circle cx="357.14" cy="0.51" r="0.51" fill ="none" stroke = "#000000"/>
<circle cx="357.14" cy="0.51" r="0.51" fill ="none" stroke = "#000000"/>
<circle cx="360.00" cy="4.00" r="4.00" fill ="none" stroke = "#000000"/>
<circle cx="360.00" cy="4.00" r="4.00" fill ="none" stroke = "#000000"/>
<circle cx="363.64" cy="0.83" r="0.83" fill ="none" stroke = "#000000"/>
<circle cx="363.64" cy="0.83" r="0.83" fill ="none" stroke = "#000000"/>
<circle cx="366.67" cy="2.78" r="2.78" fill ="none" stroke = "#000000"/>
<circle cx="366.67" cy="2.78" r="2.78" fill ="none" stroke = "#000000"/>
<circle cx="371.43" cy="2.04" r="2.04" fill ="none" stroke = "#000000"/>
<circle cx="371.43" cy="2.04" r="2.04" fill ="none" stroke = "#000000"/>
<circle cx="400.00" cy="100.00" r="100.00" fill ="none" stroke = "#000000"/>
<circle cx="400.00" cy="100.00" r="100.00" fill ="none" stroke = "#000000"/>
<circle cx="428.57" cy="2.04" r="2.04" fill ="none" stroke = "#000000"/>
<circle cx="428.57" cy="2.04" r="2.04" fill ="none" stroke = "#000000"/>
<circle cx="433.33" cy="2.78" r="2.78" fill ="none" stroke = "#000000"/>
<circle cx="433.33" cy="2.78" r="2.78" fill ="none" stroke = "#000000"/>
<circle cx="436.36" cy="0.83" r="0.83" fill ="none" stroke = "#000000"/>
<circle cx="436.36" cy="0.83" r="0.83" fill ="none" stroke = "#000000"/>
<circle cx="440.00" cy="4.00" r="4.00" fill ="none" stroke = "#000000"/>
<circle cx="440.00" cy="4.00" r="4.00" fill ="none" stroke = "#000000"/>
<circle cx="442.86" cy="0.51" r="0.51" fill ="none" stroke = "#000000"/>
<circle cx="442.86" cy="0.51" r="0.51" fill ="none" stroke = "#000000"/>
<circle cx="444.44" cy="1.23" r="1.23" fill ="none" stroke = "#000000"/>
<circle cx="444.44" cy="1.23" r="1.23" fill ="none" stroke = "#000000"/>
<circle cx="446.15" cy="0.59" r="0.59" fill ="none" stroke = "#000000"/>
<circle cx="446.15" cy="0.59" r="0.59" fill ="none" stroke = "#000000"/>
<circle cx="450.00" cy="6.25" r="6.25" fill ="none" stroke = "#000000"/>
<circle cx="450.00" cy="6.25" r="6.25" fill ="none" stroke = "#000000"/>
<circle cx="453.33" cy="0.44" r="0.44" fill ="none" stroke = "#000000"/>
<circle cx="453.33" cy="0.44" r="0.44" fill ="none" stroke = "#000000"/>
<circle cx="454.55" cy="0.83" r="0.83" fill ="none" stroke = "#000000"/>
<circle cx="454.55" cy="0.83" r="0.83" fill ="none" stroke = "#000000"/>
<circle cx="455.56" cy="0.31" r="0.31" fill ="none" stroke = "#000000"/>
<circle cx="455.56" cy="0.31" r="0.31" fill ="none" stroke = "#000000"/>
<circle cx="457.14" cy="2.04" r="2.04" fill ="none" stroke = "#000000"/>
<circle cx="457.14" cy="2.04" r="2.04" fill ="none" stroke = "#000000"/>
<circle cx="458.82" cy="0.35" r="0.35" fill ="none" stroke = "#000000"/>
<circle cx="458.82" cy="0.35" r="0.35" fill ="none" stroke = "#000000"/>
<circle cx="460.00" cy="1.00" r="1.00" fill ="none" stroke = "#000000"/>
<circle cx="460.00" cy="1.00" r="1.00" fill ="none" stroke = "#000000"/>
<circle cx="461.54" cy="0.59" r="0.59" fill ="none" stroke = "#000000"/>
<circle cx="461.54" cy="0.59" r="0.59" fill ="none" stroke = "#000000"/>
<circle cx="466.67" cy="11.11" r="11.11" fill ="none" stroke = "#000000"/>
<circle cx="466.67" cy="11.11" r="11.11" fill ="none" stroke = "#000000"/>
<circle cx="471.43" cy="0.51" r="0.51" fill ="none" stroke = "#000000"/>
<circle cx="471.43" cy="0.51" r="0.51" fill ="none" stroke = "#000000"/>
<circle cx="472.73" cy="0.83" r="0.83" fill ="none" stroke = "#000000"/>
<circle cx="472.73" cy="0.83" r="0.83" fill ="none" stroke = "#000000"/>
<circle cx="473.68" cy="0.28" r="0.28" fill ="none" stroke = "#000000"/>
<circle cx="473.68" cy="0.28" r="0.28" fill ="none" stroke = "#000000"/>
<circle cx="475.00" cy="1.56" r="1.56" fill ="none" stroke = "#000000"/>
<circle cx="475.00" cy="1.56" r="1.56" fill ="none" stroke = "#000000"/>
<circle cx="476.19" cy="0.23" r="0.23" fill ="none" stroke = "#000000"/>
<circle cx="476.19" cy="0.23" r="0.23" fill ="none" stroke = "#000000"/>
<circle cx="476.92" cy="0.59" r="0.59" fill ="none" stroke = "#000000"/>
<circle cx="476.92" cy="0.59" r="0.59" fill ="none" stroke = "#000000"/>
<circle cx="477.78" cy="0.31" r="0.31" fill ="none" stroke = "#000000"/>
<circle cx="477.78" cy="0.31" r="0.31" fill ="none" stroke = "#000000"/>
<circle cx="480.00" cy="4.00" r="4.00" fill ="none" stroke = "#000000"/>
<circle cx="480.00" cy="4.00" r="4.00" fill ="none" stroke = "#000000"/>
<circle cx="482.35" cy="0.35" r="0.35" fill ="none" stroke = "#000000"/>
<circle cx="482.35" cy="0.35" r="0.35" fill ="none" stroke = "#000000"/>
<circle cx="483.33" cy="0.69" r="0.69" fill ="none" stroke = "#000000"/>
<circle cx="483.33" cy="0.69" r="0.69" fill ="none" stroke = "#000000"/>
<circle cx="484.21" cy="0.28" r="0.28" fill ="none" stroke = "#000000"/>
<circle cx="484.21" cy="0.28" r="0.28" fill ="none" stroke = "#000000"/>
<circle cx="485.71" cy="2.04" r="2.04" fill ="none" stroke = "#000000"/>
<circle cx="485.71" cy="2.04" r="2.04" fill ="none" stroke = "#000000"/>
<circle cx="487.50" cy="0.39" r="0.39" fill ="none" stroke = "#000000"/>
<circle cx="487.50" cy="0.39" r="0.39" fill ="none" stroke = "#000000"/>
<circle cx="488.89" cy="1.23" r="1.23" fill ="none" stroke = "#000000"/>
<circle cx="488.89" cy="1.23" r="1.23" fill ="none" stroke = "#000000"/>
<circle cx="490.91" cy="0.83" r="0.83" fill ="none" stroke = "#000000"/>
<circle cx="490.91" cy="0.83" r="0.83" fill ="none" stroke = "#000000"/>
<circle cx="500.00" cy="25.00" r="25.00" fill ="none" stroke = "#000000"/>
<circle cx="500.00" cy="25.00" r="25.00" fill ="none" stroke = "#000000"/>
<circle cx="509.09" cy="0.83" r="0.83" fill ="none" stroke = "#000000"/>
<circle cx="509.09" cy="0.83" r="0.83" fill ="none" stroke = "#000000"/>
<circle cx="511.11" cy="1.23" r="1.23" fill ="none" stroke = "#000000"/>
<circle cx="511.11" cy="1.23" r="1.23" fill ="none" stroke = "#000000"/>
<circle cx="512.50" cy="0.39" r="0.39" fill ="none" stroke = "#000000"/>
<circle cx="512.50" cy="0.39" r="0.39" fill ="none" stroke = "#000000"/>
<circle cx="514.29" cy="2.04" r="2.04" fill ="none" stroke = "#000000"/>
<circle cx="514.29" cy="2.04" r="2.04" fill ="none" stroke = "#000000"/>
<circle cx="515.79" cy="0.28" r="0.28" fill ="none" stroke = "#000000"/>
<circle cx="515.79" cy="0.28" r="0.28" fill ="none" stroke = "#000000"/>
<circle cx="516.67" cy="0.69" r="0.69" fill ="none" stroke = "#000000"/>
<circle cx="516.67" cy="0.69" r="0.69" fill ="none" stroke = "#000000"/>
<circle cx="517.65" cy="0.35" r="0.35" fill ="none" stroke = "#000000"/>
<circle cx="517.65" cy="0.35" r="0.35" fill ="none" stroke = "#000000"/>
<circle cx="520.00" cy="4.00" r="4.00" fill ="none" stroke = "#000000"/>
<circle cx="520.00" cy="4.00" r="4.00" fill ="none" stroke = "#000000"/>
<circle cx="522.22" cy="0.31" r="0.31" fill ="none" stroke = "#000000"/>
<circle cx="522.22" cy="0.31" r="0.31" fill ="none" stroke = "#000000"/>
<circle cx="523.08" cy="0.59" r="0.59" fill ="none" stroke = "#000000"/>
<circle cx="523.08" cy="0.59" r="0.59" fill ="none" stroke = "#000000"/>
<circle cx="523.81" cy="0.23" r="0.23" fill ="none" stroke = "#000000"/>
<circle cx="523.81" cy="0.23" r="0.23" fill ="none" stroke = "#000000"/>
<circle cx="525.00" cy="1.56" r="1.56" fill ="none" stroke = "#000000"/>
<circle cx="525.00" cy="1.56" r="1.56" fill ="none" stroke = "#000000"/>
<circle cx="526.32" cy="0.28" r="0.28" fill ="none" stroke = "#000000"/>
<circle cx="526.32" cy="0.28" r="0.28" fill ="none" stroke = "#000000"/>
<circle cx="527.27" cy="0.83" r="0.83" fill ="none" stroke = "#000000"/>
<circle cx="527.27" cy="0.83" r="0.83" fill ="none" stroke = "#000000"/>
<circle cx="528.57" cy="0.51" r="0.51" fill ="none" stroke = "#000000"/>
<circle cx="528.57" cy="0.51" r="0.51" fill ="none" stroke = "#000000"/>
<circle cx="533.33" cy="11.11" r="11.11" fill ="none" stroke = "#000000"/>
<circle cx="533.33" cy="11.11" r="11.11" fill ="none" stroke = "#000000"/>
<circle cx="538.46" cy="0.59" r="0.59" fill ="none" stroke = "#000000"/>
<circle cx="538.46" cy="0.59" r="0.59" fill ="none" stroke = "#000000"/>
<circle cx="540.00" cy="1.00" r="1.00" fill ="none" stroke = "#000000"/>
<circle cx="540.00" cy="1.00" r="1.00" fill ="none" stroke = "#000000"/>
<circle cx="541.18" cy="0.35" r="0.35" fill ="none" stroke = "#000000"/>
<circle cx="541.18" cy="0.35" r="0.35" fill ="none" stroke = "#000000"/>
<circle cx="542.86" cy="2.04" r="2.04" fill ="none" stroke = "#000000"/>
<circle cx="542.86" cy="2.04" r="2.04" fill ="none" stroke = "#000000"/>
<circle cx="544.44" cy="0.31" r="0.31" fill ="none" stroke = "#000000"/>
<circle cx="544.44" cy="0.31" r="0.31" fill ="none" stroke = "#000000"/>
<circle cx="545.45" cy="0.83" r="0.83" fill ="none" stroke = "#000000"/>
<circle cx="545.45" cy="0.83" r="0.83" fill ="none" stroke = "#000000"/>
<circle cx="546.67" cy="0.44" r="0.44" fill ="none" stroke = "#000000"/>
<circle cx="546.67" cy="0.44" r="0.44" fill ="none" stroke = "#000000"/>
<circle cx="550.00" cy="6.25" r="6.25" fill ="none" stroke = "#000000"/>
<circle cx="550.00" cy="6.25" r="6.25" fill ="none" stroke = "#000000"/>
<circle cx="553.85" cy="0.59" r="0.59" fill ="none" stroke = "#000000"/>
<circle cx="553.85" cy="0.59" r="0.59" fill ="none" stroke = "#000000"/>
<circle cx="555.56" cy="1.23" r="1.23" fill ="none" stroke = "#000000"/>
<circle cx="555.56" cy="1.23" r="1.23" fill ="none" stroke = "#000000"/>
<circle cx="557.14" cy="0.51" r="0.51" fill ="none" stroke = "#000000"/>
<circle cx="557.14" cy="0.51" r="0.51" fill ="none" stroke = "#000000"/>
<circle cx="560.00" cy="4.00" r="4.00" fill ="none" stroke = "#000000"/>
<circle cx="560.00" cy="4.00" r="4.00" fill ="none" stroke = "#000000"/>
<circle cx="563.64" cy="0.83" r="0.83" fill ="none" stroke = "#000000"/>
<circle cx="563.64" cy="0.83" r="0.83" fill ="none" stroke = "#000000"/>
<circle cx="566.67" cy="2.78" r="2.78" fill ="none" stroke = "#000000"/>
<circle cx="566.67" cy="2.78" r="2.78" fill ="none" stroke = "#000000"/>
<circle cx="571.43" cy="2.04" r="2.04" fill ="none" stroke = "#000000"/>
<circle cx="571.43" cy="2.04" r="2.04" fill ="none" stroke = "#000000"/>
<circle cx="600.00" cy="100.00" r="100.00" fill ="none" stroke = "#000000"/>
<circle cx="600.00" cy="100.00" r="100.00" fill ="none" stroke = "#000000"/>
</svg>